<?xml version="1.0" encoding="utf-8"?>
<!-- Generator: Adobe Illustrator 22.0.1, SVG Export Plug-In . SVG Version: 6.00 Build 0)  -->
<svg version="1.1" id="Livello_1" xmlns="http://www.w3.org/2000/svg" xmlns:xlink="http://www.w3.org/1999/xlink" x="0px" y="0px"
	 viewBox="0 0 532.5 367.9" style="enable-background:new 0 0 532.5 367.9;" xml:space="preserve">
<style type="text/css">
	.st0{fill:#0000FF;}
</style>
<path class="st0" d="M33.1,5.7l356.6,356.6c5,5,12.4,6.9,19.2,4.9c6.8-2,12-7.6,13.5-14.6l71.8-337.2c1.9-8.7,9.4-15,18.3-15.3
	c8.9-0.3,16.9,5.5,19.3,14.1s-1.2,17.7-9,22.1L9.7,331.7c-9.2,5.3-12.4,17-7.2,26.3c5.2,9.3,16.9,12.6,26.2,7.6l365.5-198.7
	c8.9-4.9,20.1-2,25.6,6.6s3.4,19.9-4.7,26L195.6,364.1c-5.9,4.4-13.7,5.1-20.3,1.8c-6.6-3.3-10.7-10-10.7-17.3V19.4
	c0-8.4,5.5-15.9,13.5-18.5s16.8,0.4,21.7,7.2c4.9,6.9,4.8,16.1-0.3,22.9L34.9,250.5c-4.7,6.3-12.8,9.1-20.4,7.1s-13.3-8.4-14.3-16.2
	s2.8-15.5,9.6-19.4l384-219.4c5.3-3,11.6-3.4,17.2-1s9.7,7.2,11.2,13.1l72.1,283.8c2.2,8.7,10.2,14.8,19.2,14.6
	c9-0.2,16.7-6.5,18.6-15.4c1.9-8.8-2.6-17.8-10.7-21.6L11.2,37C4.2,33.7-0.2,26.5,0,18.8s5-14.6,12.2-17.4
	C19.4-1.5,27.6,0.2,33.1,5.7L33.1,5.7z"/>
</svg>
