<?xml version="1.0" encoding="utf-8"?>
<!-- Generator: Adobe Illustrator 22.0.1, SVG Export Plug-In . SVG Version: 6.00 Build 0)  -->
<svg version="1.1" id="Livello_1" xmlns="http://www.w3.org/2000/svg" xmlns:xlink="http://www.w3.org/1999/xlink" x="0px" y="0px"
	 viewBox="0 0 607.8 843.8" style="enable-background:new 0 0 607.8 843.8;" xml:space="preserve">
<style type="text/css">
	.st0{fill:#FFFFFF;}
	.st1{fill:#0000FF;}
</style>
<g>
	<path class="st1" d="M37.3,822.9v-2h14.2v2h-5.9v15.7h-2.4v-15.7H37.3z"/>
	<path class="st1" d="M61.7,838.6c-0.4,0.2-0.9,0.3-1.5,0.3c-0.5,0-1-0.2-1.3-0.5c-0.3-0.3-0.5-0.8-0.5-1.5c-0.6,0.7-1.3,1.2-2,1.5
		c-0.8,0.3-1.6,0.5-2.5,0.5c-0.6,0-1.1-0.1-1.7-0.2c-0.5-0.1-1-0.3-1.4-0.6s-0.7-0.6-0.9-1.1c-0.2-0.5-0.3-1-0.3-1.7
		c0-0.7,0.1-1.3,0.4-1.8c0.2-0.5,0.6-0.8,1-1.1c0.4-0.3,0.9-0.5,1.4-0.7c0.5-0.1,1.1-0.3,1.6-0.4c0.6-0.1,1.1-0.2,1.7-0.3
		s1-0.1,1.4-0.2c0.4-0.1,0.7-0.3,0.9-0.5c0.2-0.2,0.3-0.5,0.3-0.9c0-0.5-0.1-0.8-0.3-1.1c-0.2-0.3-0.4-0.5-0.7-0.6
		c-0.3-0.1-0.6-0.2-0.9-0.3s-0.7-0.1-1-0.1c-0.9,0-1.6,0.2-2.2,0.5c-0.6,0.3-0.9,1-1,1.9h-2.1c0-0.8,0.2-1.5,0.5-2
		c0.3-0.5,0.7-1,1.2-1.3c0.5-0.3,1.1-0.6,1.7-0.7c0.6-0.1,1.3-0.2,2-0.2c0.6,0,1.2,0,1.7,0.1c0.6,0.1,1.1,0.3,1.6,0.5
		s0.8,0.6,1.1,1.1c0.3,0.5,0.4,1.1,0.4,1.8v6.6c0,0.5,0,0.9,0.1,1.1c0.1,0.2,0.3,0.3,0.6,0.3c0.2,0,0.4,0,0.6-0.1V838.6z
		 M58.2,832.1c-0.3,0.2-0.6,0.3-1,0.4c-0.4,0.1-0.9,0.2-1.4,0.2c-0.5,0.1-0.9,0.1-1.4,0.2c-0.5,0.1-0.9,0.2-1.3,0.4
		c-0.4,0.2-0.7,0.4-0.9,0.7c-0.2,0.3-0.4,0.7-0.4,1.2c0,0.3,0.1,0.6,0.2,0.9s0.3,0.4,0.5,0.6c0.2,0.1,0.5,0.3,0.8,0.3
		c0.3,0.1,0.6,0.1,0.9,0.1c0.7,0,1.3-0.1,1.8-0.3s0.9-0.4,1.2-0.7s0.5-0.6,0.7-0.9c0.1-0.3,0.2-0.7,0.2-1V832.1z"/>
	<path class="st1" d="M65.9,821v10.5l5.9-5.6h2.8l-5.1,4.7l5.5,8.2h-2.7l-4.4-6.7l-2,1.8v4.9h-2.1V821H65.9z"/>
	<path class="st1" d="M85.6,837.9c-1,0.7-2.2,1.1-3.6,1.1c-1,0-1.9-0.2-2.7-0.5c-0.8-0.3-1.4-0.8-1.9-1.4c-0.5-0.6-0.9-1.3-1.2-2.1
		c-0.3-0.8-0.4-1.7-0.4-2.7c0-1,0.1-1.9,0.4-2.7c0.3-0.8,0.7-1.5,1.3-2.1c0.5-0.6,1.2-1.1,1.9-1.4c0.7-0.3,1.5-0.5,2.4-0.5
		c1.1,0,2.1,0.2,2.8,0.7c0.8,0.5,1.4,1.1,1.8,1.8c0.5,0.7,0.8,1.5,0.9,2.4s0.2,1.7,0.2,2.5H78c0,0.6,0,1.1,0.2,1.6s0.4,1,0.7,1.3
		c0.3,0.4,0.8,0.7,1.3,0.9c0.5,0.2,1.1,0.3,1.8,0.3c0.9,0,1.6-0.2,2.2-0.6c0.6-0.4,0.9-1,1.1-1.9h2.1
		C87.2,836.1,86.6,837.1,85.6,837.9z M85.1,829.6c-0.2-0.4-0.4-0.8-0.8-1.2c-0.3-0.3-0.7-0.6-1.1-0.8c-0.4-0.2-0.9-0.3-1.5-0.3
		c-0.5,0-1,0.1-1.5,0.3c-0.4,0.2-0.8,0.5-1.1,0.8c-0.3,0.3-0.6,0.7-0.7,1.2c-0.2,0.4-0.3,0.9-0.3,1.4h7.4
		C85.4,830.5,85.3,830.1,85.1,829.6z"/>
	<path class="st1" d="M108.1,838.6c-0.4,0.2-0.9,0.3-1.5,0.3c-0.5,0-1-0.2-1.3-0.5c-0.3-0.3-0.5-0.8-0.5-1.5c-0.6,0.7-1.3,1.2-2,1.5
		c-0.8,0.3-1.6,0.5-2.5,0.5c-0.6,0-1.1-0.1-1.7-0.2c-0.5-0.1-1-0.3-1.4-0.6s-0.7-0.6-0.9-1.1c-0.2-0.5-0.3-1-0.3-1.7
		c0-0.7,0.1-1.3,0.4-1.8c0.2-0.5,0.6-0.8,1-1.1c0.4-0.3,0.9-0.5,1.4-0.7c0.5-0.1,1.1-0.3,1.6-0.4c0.6-0.1,1.1-0.2,1.7-0.3
		s1-0.1,1.4-0.2c0.4-0.1,0.7-0.3,0.9-0.5c0.2-0.2,0.3-0.5,0.3-0.9c0-0.5-0.1-0.8-0.3-1.1c-0.2-0.3-0.4-0.5-0.7-0.6
		c-0.3-0.1-0.6-0.2-0.9-0.3s-0.7-0.1-1-0.1c-0.9,0-1.6,0.2-2.2,0.5c-0.6,0.3-0.9,1-1,1.9h-2.1c0-0.8,0.2-1.5,0.5-2
		c0.3-0.5,0.7-1,1.2-1.3c0.5-0.3,1.1-0.6,1.7-0.7c0.6-0.1,1.3-0.2,2-0.2c0.6,0,1.2,0,1.7,0.1c0.6,0.1,1.1,0.3,1.6,0.5
		s0.8,0.6,1.1,1.1c0.3,0.5,0.4,1.1,0.4,1.8v6.6c0,0.5,0,0.9,0.1,1.1c0.1,0.2,0.3,0.3,0.6,0.3c0.2,0,0.4,0,0.6-0.1V838.6z
		 M104.7,832.1c-0.3,0.2-0.6,0.3-1,0.4c-0.4,0.1-0.9,0.2-1.4,0.2c-0.5,0.1-0.9,0.1-1.4,0.2c-0.5,0.1-0.9,0.2-1.3,0.4
		c-0.4,0.2-0.7,0.4-0.9,0.7c-0.2,0.3-0.4,0.7-0.4,1.2c0,0.3,0.1,0.6,0.2,0.9s0.3,0.4,0.5,0.6c0.2,0.1,0.5,0.3,0.8,0.3
		c0.3,0.1,0.6,0.1,0.9,0.1c0.7,0,1.3-0.1,1.8-0.3s0.9-0.4,1.2-0.7s0.5-0.6,0.7-0.9c0.1-0.3,0.2-0.7,0.2-1V832.1z"/>
	<path class="st1" d="M126.3,838.7v-1.7h0c-0.3,0.7-0.9,1.2-1.6,1.5c-0.7,0.3-1.6,0.5-2.5,0.5c-1,0-1.9-0.2-2.6-0.5
		c-0.7-0.4-1.3-0.9-1.8-1.5c-0.5-0.6-0.9-1.3-1.1-2.1c-0.2-0.8-0.4-1.7-0.4-2.6c0-0.9,0.1-1.8,0.4-2.6c0.2-0.8,0.6-1.5,1.1-2.1
		c0.5-0.6,1.1-1.1,1.8-1.4c0.7-0.4,1.6-0.5,2.6-0.5c0.3,0,0.7,0,1.1,0.1c0.4,0.1,0.8,0.2,1.1,0.3s0.7,0.4,1.1,0.6s0.6,0.6,0.9,1h0
		V821h2.1v17.7H126.3z M118.8,834.1c0.2,0.6,0.4,1.1,0.7,1.5s0.7,0.8,1.2,1.1c0.5,0.3,1.1,0.4,1.8,0.4c0.7,0,1.3-0.1,1.8-0.4
		s0.9-0.6,1.2-1.1s0.5-1,0.7-1.6c0.1-0.6,0.2-1.2,0.2-1.8c0-0.6-0.1-1.2-0.2-1.8c-0.1-0.6-0.4-1.1-0.7-1.6c-0.3-0.4-0.7-0.8-1.3-1.1
		c-0.5-0.3-1.1-0.4-1.9-0.4c-0.7,0-1.3,0.1-1.8,0.4s-0.9,0.7-1.2,1.1c-0.3,0.5-0.5,1-0.6,1.6c-0.1,0.6-0.2,1.2-0.2,1.8
		C118.5,833,118.6,833.6,118.8,834.1z"/>
	<path class="st1" d="M140.8,837.9c-1,0.7-2.2,1.1-3.6,1.1c-1,0-1.9-0.2-2.7-0.5c-0.8-0.3-1.4-0.8-1.9-1.4c-0.5-0.6-0.9-1.3-1.2-2.1
		c-0.3-0.8-0.4-1.7-0.4-2.7c0-1,0.1-1.9,0.4-2.7c0.3-0.8,0.7-1.5,1.3-2.1c0.5-0.6,1.2-1.1,1.9-1.4c0.7-0.3,1.5-0.5,2.4-0.5
		c1.1,0,2.1,0.2,2.8,0.7c0.8,0.5,1.4,1.1,1.8,1.8c0.5,0.7,0.8,1.5,0.9,2.4s0.2,1.7,0.2,2.5h-9.6c0,0.6,0,1.1,0.2,1.6s0.4,1,0.7,1.3
		c0.3,0.4,0.8,0.7,1.3,0.9c0.5,0.2,1.1,0.3,1.8,0.3c0.9,0,1.6-0.2,2.2-0.6c0.6-0.4,0.9-1,1.1-1.9h2.1
		C142.4,836.1,141.8,837.1,140.8,837.9z M140.3,829.6c-0.2-0.4-0.4-0.8-0.8-1.2c-0.3-0.3-0.7-0.6-1.1-0.8c-0.4-0.2-0.9-0.3-1.5-0.3
		c-0.5,0-1,0.1-1.5,0.3c-0.4,0.2-0.8,0.5-1.1,0.8c-0.3,0.3-0.6,0.7-0.7,1.2c-0.2,0.4-0.3,0.9-0.3,1.4h7.4
		C140.6,830.5,140.5,830.1,140.3,829.6z"/>
	<path class="st1" d="M154.1,837.9c-1,0.7-2.2,1.1-3.6,1.1c-1,0-1.9-0.2-2.7-0.5c-0.8-0.3-1.4-0.8-1.9-1.4c-0.5-0.6-0.9-1.3-1.2-2.1
		c-0.3-0.8-0.4-1.7-0.4-2.7c0-1,0.1-1.9,0.4-2.7c0.3-0.8,0.7-1.5,1.3-2.1c0.5-0.6,1.2-1.1,1.9-1.4c0.7-0.3,1.5-0.5,2.4-0.5
		c1.1,0,2.1,0.2,2.8,0.7c0.8,0.5,1.4,1.1,1.8,1.8c0.5,0.7,0.8,1.5,0.9,2.4s0.2,1.7,0.2,2.5h-9.6c0,0.6,0,1.1,0.2,1.6s0.4,1,0.7,1.3
		c0.3,0.4,0.8,0.7,1.3,0.9c0.5,0.2,1.1,0.3,1.8,0.3c0.9,0,1.6-0.2,2.2-0.6c0.6-0.4,0.9-1,1.1-1.9h2.1
		C155.7,836.1,155.1,837.1,154.1,837.9z M153.6,829.6c-0.2-0.4-0.4-0.8-0.8-1.2c-0.3-0.3-0.7-0.6-1.1-0.8c-0.4-0.2-0.9-0.3-1.5-0.3
		c-0.5,0-1,0.1-1.5,0.3c-0.4,0.2-0.8,0.5-1.1,0.8c-0.3,0.3-0.6,0.7-0.7,1.2c-0.2,0.4-0.3,0.9-0.3,1.4h7.4
		C153.9,830.5,153.8,830.1,153.6,829.6z"/>
	<path class="st1" d="M160.6,825.8v1.7h0c0.3-0.7,0.9-1.2,1.6-1.6c0.7-0.3,1.6-0.5,2.5-0.5c1,0,1.9,0.2,2.6,0.5
		c0.7,0.4,1.3,0.9,1.8,1.5s0.9,1.3,1.1,2.1c0.2,0.8,0.4,1.7,0.4,2.6s-0.1,1.8-0.4,2.6c-0.2,0.8-0.6,1.5-1.1,2.1s-1.1,1.1-1.8,1.4
		c-0.7,0.3-1.6,0.5-2.6,0.5c-0.3,0-0.7,0-1.1-0.1c-0.4-0.1-0.8-0.2-1.2-0.3c-0.4-0.1-0.7-0.4-1.1-0.6s-0.6-0.6-0.9-1h0v6.6h-2.1
		v-17.7H160.6z M168.1,830.4c-0.2-0.6-0.4-1.1-0.7-1.5s-0.7-0.8-1.2-1.1s-1.1-0.4-1.8-0.4c-0.7,0-1.3,0.1-1.8,0.4s-0.9,0.7-1.2,1.1
		s-0.5,1-0.7,1.6c-0.1,0.6-0.2,1.2-0.2,1.8c0,0.6,0.1,1.2,0.2,1.8c0.1,0.6,0.4,1.1,0.7,1.6c0.3,0.4,0.7,0.8,1.3,1.1
		c0.5,0.3,1.1,0.4,1.9,0.4s1.3-0.1,1.8-0.4s0.9-0.7,1.2-1.1c0.3-0.5,0.5-1,0.6-1.6c0.1-0.6,0.2-1.2,0.2-1.8
		C168.4,831.6,168.3,831,168.1,830.4z"/>
	<path class="st1" d="M182.2,821v6.6h0c0.3-0.7,0.9-1.2,1.6-1.6c0.7-0.3,1.6-0.5,2.5-0.5c1,0,1.9,0.2,2.6,0.5
		c0.7,0.4,1.3,0.9,1.8,1.5s0.9,1.3,1.1,2.1c0.2,0.8,0.4,1.7,0.4,2.6s-0.1,1.8-0.4,2.6c-0.2,0.8-0.6,1.5-1.1,2.1s-1.1,1.1-1.8,1.4
		c-0.7,0.3-1.6,0.5-2.6,0.5c-0.3,0-0.7,0-1.1-0.1c-0.4-0.1-0.8-0.2-1.2-0.3c-0.4-0.1-0.7-0.4-1.1-0.6s-0.6-0.6-0.9-1h0v1.7h-2.1V821
		H182.2z M189.8,830.4c-0.2-0.6-0.4-1.1-0.7-1.5s-0.7-0.8-1.2-1.1s-1.1-0.4-1.8-0.4c-0.7,0-1.3,0.1-1.8,0.4s-0.9,0.7-1.2,1.1
		s-0.5,1-0.7,1.6c-0.1,0.6-0.2,1.2-0.2,1.8c0,0.6,0.1,1.2,0.2,1.8c0.1,0.6,0.4,1.1,0.7,1.6c0.3,0.4,0.7,0.8,1.3,1.1
		c0.5,0.3,1.1,0.4,1.9,0.4s1.3-0.1,1.8-0.4s0.9-0.7,1.2-1.1c0.3-0.5,0.5-1,0.6-1.6c0.1-0.6,0.2-1.2,0.2-1.8
		C190,831.6,189.9,831,189.8,830.4z"/>
	<path class="st1" d="M196.6,825.8v2.7h0c0.5-1,1.1-1.8,1.9-2.3c0.7-0.5,1.7-0.7,2.8-0.7v2.2c-0.8,0-1.6,0.1-2.2,0.3
		c-0.6,0.2-1.1,0.6-1.4,1c-0.4,0.4-0.6,1-0.8,1.6c-0.2,0.6-0.2,1.4-0.2,2.2v5.7h-2.1v-12.8H196.6z"/>
	<path class="st1" d="M211.6,837.9c-1,0.7-2.2,1.1-3.6,1.1c-1,0-1.9-0.2-2.7-0.5c-0.8-0.3-1.4-0.8-1.9-1.4c-0.5-0.6-0.9-1.3-1.2-2.1
		c-0.3-0.8-0.4-1.7-0.4-2.7c0-1,0.1-1.9,0.4-2.7c0.3-0.8,0.7-1.5,1.3-2.1c0.5-0.6,1.2-1.1,1.9-1.4c0.7-0.3,1.5-0.5,2.4-0.5
		c1.1,0,2.1,0.2,2.8,0.7c0.8,0.5,1.4,1.1,1.8,1.8c0.5,0.7,0.8,1.5,0.9,2.4s0.2,1.7,0.2,2.5h-9.6c0,0.6,0,1.1,0.2,1.6s0.4,1,0.7,1.3
		c0.3,0.4,0.8,0.7,1.3,0.9c0.5,0.2,1.1,0.3,1.8,0.3c0.9,0,1.6-0.2,2.2-0.6c0.6-0.4,0.9-1,1.1-1.9h2.1
		C213.2,836.1,212.6,837.1,211.6,837.9z M211.1,829.6c-0.2-0.4-0.4-0.8-0.8-1.2c-0.3-0.3-0.7-0.6-1.1-0.8c-0.4-0.2-0.9-0.3-1.5-0.3
		c-0.5,0-1,0.1-1.5,0.3c-0.4,0.2-0.8,0.5-1.1,0.8c-0.3,0.3-0.6,0.7-0.7,1.2c-0.2,0.4-0.3,0.9-0.3,1.4h7.4
		C211.4,830.5,211.3,830.1,211.1,829.6z"/>
	<path class="st1" d="M227.2,838.6c-0.4,0.2-0.9,0.3-1.5,0.3c-0.5,0-1-0.2-1.3-0.5c-0.3-0.3-0.5-0.8-0.5-1.5c-0.6,0.7-1.3,1.2-2,1.5
		c-0.8,0.3-1.6,0.5-2.5,0.5c-0.6,0-1.1-0.1-1.7-0.2c-0.5-0.1-1-0.3-1.4-0.6s-0.7-0.6-0.9-1.1c-0.2-0.5-0.3-1-0.3-1.7
		c0-0.7,0.1-1.3,0.4-1.8c0.2-0.5,0.6-0.8,1-1.1c0.4-0.3,0.9-0.5,1.4-0.7c0.5-0.1,1.1-0.3,1.6-0.4c0.6-0.1,1.1-0.2,1.7-0.3
		s1-0.1,1.4-0.2c0.4-0.1,0.7-0.3,0.9-0.5c0.2-0.2,0.3-0.5,0.3-0.9c0-0.5-0.1-0.8-0.3-1.1c-0.2-0.3-0.4-0.5-0.7-0.6
		c-0.3-0.1-0.6-0.2-0.9-0.3s-0.7-0.1-1-0.1c-0.9,0-1.6,0.2-2.2,0.5c-0.6,0.3-0.9,1-1,1.9h-2.1c0-0.8,0.2-1.5,0.5-2
		c0.3-0.5,0.7-1,1.2-1.3c0.5-0.3,1.1-0.6,1.7-0.7c0.6-0.1,1.3-0.2,2-0.2c0.6,0,1.2,0,1.7,0.1c0.6,0.1,1.1,0.3,1.6,0.5
		s0.8,0.6,1.1,1.1c0.3,0.5,0.4,1.1,0.4,1.8v6.6c0,0.5,0,0.9,0.1,1.1c0.1,0.2,0.3,0.3,0.6,0.3c0.2,0,0.4,0,0.6-0.1V838.6z
		 M223.8,832.1c-0.3,0.2-0.6,0.3-1,0.4c-0.4,0.1-0.9,0.2-1.4,0.2c-0.5,0.1-0.9,0.1-1.4,0.2c-0.5,0.1-0.9,0.2-1.3,0.4
		c-0.4,0.2-0.7,0.4-0.9,0.7c-0.2,0.3-0.4,0.7-0.4,1.2c0,0.3,0.1,0.6,0.2,0.9s0.3,0.4,0.5,0.6c0.2,0.1,0.5,0.3,0.8,0.3
		c0.3,0.1,0.6,0.1,0.9,0.1c0.7,0,1.3-0.1,1.8-0.3s0.9-0.4,1.2-0.7s0.5-0.6,0.7-0.9c0.1-0.3,0.2-0.7,0.2-1V832.1z"/>
	<path class="st1" d="M234.7,825.8v1.9h-2.6v8c0,0.2,0,0.4,0.1,0.6c0,0.1,0.1,0.3,0.2,0.3s0.3,0.1,0.5,0.2c0.2,0,0.5,0,0.8,0h1v1.9
		h-1.6c-0.5,0-1,0-1.4-0.1c-0.4-0.1-0.7-0.2-0.9-0.4c-0.2-0.2-0.4-0.5-0.5-0.8s-0.2-0.8-0.2-1.4v-8.2h-2.2v-1.9h2.2V822h2.1v3.8
		H234.7z"/>
	<path class="st1" d="M239.1,821v6.8h0c0.2-0.4,0.4-0.7,0.7-1c0.3-0.3,0.6-0.5,1-0.7s0.8-0.3,1.2-0.4c0.4-0.1,0.8-0.1,1.2-0.1
		c0.8,0,1.5,0.1,2.1,0.3c0.6,0.2,1,0.6,1.4,1c0.3,0.4,0.6,0.9,0.7,1.5c0.1,0.6,0.2,1.2,0.2,1.9v8.4h-2.1V830c0-0.8-0.2-1.4-0.7-1.9
		c-0.5-0.5-1.1-0.7-1.9-0.7c-0.6,0-1.2,0.1-1.7,0.3c-0.5,0.2-0.9,0.5-1.2,0.8c-0.3,0.4-0.6,0.8-0.7,1.3c-0.2,0.5-0.2,1-0.2,1.6v7.2
		H237V821H239.1z"/>
	<path class="st1" d="M254.1,835.9v2.8h-2.8v-2.8H254.1z"/>
	<path class="st1" d="M278.5,838.7l-4-14.9h0l-4.1,14.9h-2.5l-4.5-17.7h2.4l3.5,14.7h0l4-14.7h2.6l3.9,14.7h0l3.6-14.7h2.4
		l-4.7,17.7H278.5z"/>
	<path class="st1" d="M289.7,821v6.8h0c0.2-0.4,0.4-0.7,0.7-1c0.3-0.3,0.6-0.5,1-0.7s0.8-0.3,1.2-0.4c0.4-0.1,0.8-0.1,1.2-0.1
		c0.8,0,1.5,0.1,2.1,0.3c0.6,0.2,1,0.6,1.4,1c0.3,0.4,0.6,0.9,0.7,1.5c0.1,0.6,0.2,1.2,0.2,1.9v8.4h-2.1V830c0-0.8-0.2-1.4-0.7-1.9
		c-0.5-0.5-1.1-0.7-1.9-0.7c-0.6,0-1.2,0.1-1.7,0.3c-0.5,0.2-0.9,0.5-1.2,0.8c-0.3,0.4-0.6,0.8-0.7,1.3c-0.2,0.5-0.2,1-0.2,1.6v7.2
		h-2.1V821H289.7z"/>
	<path class="st1" d="M312.8,838.6c-0.4,0.2-0.9,0.3-1.5,0.3c-0.5,0-1-0.2-1.3-0.5c-0.3-0.3-0.5-0.8-0.5-1.5c-0.6,0.7-1.3,1.2-2,1.5
		c-0.8,0.3-1.6,0.5-2.5,0.5c-0.6,0-1.1-0.1-1.7-0.2c-0.5-0.1-1-0.3-1.4-0.6s-0.7-0.6-0.9-1.1c-0.2-0.5-0.3-1-0.3-1.7
		c0-0.7,0.1-1.3,0.4-1.8c0.2-0.5,0.6-0.8,1-1.1c0.4-0.3,0.9-0.5,1.4-0.7c0.5-0.1,1.1-0.3,1.6-0.4c0.6-0.1,1.1-0.2,1.7-0.3
		s1-0.1,1.4-0.2s0.7-0.3,0.9-0.5c0.2-0.2,0.3-0.5,0.3-0.9c0-0.5-0.1-0.8-0.3-1.1c-0.2-0.3-0.4-0.5-0.7-0.6c-0.3-0.1-0.6-0.2-0.9-0.3
		c-0.3,0-0.7-0.1-1-0.1c-0.9,0-1.6,0.2-2.2,0.5c-0.6,0.3-0.9,1-1,1.9h-2.1c0-0.8,0.2-1.5,0.5-2c0.3-0.5,0.7-1,1.2-1.3
		c0.5-0.3,1.1-0.6,1.7-0.7c0.6-0.1,1.3-0.2,2-0.2c0.6,0,1.2,0,1.7,0.1c0.6,0.1,1.1,0.3,1.6,0.5c0.5,0.3,0.8,0.6,1.1,1.1
		c0.3,0.5,0.4,1.1,0.4,1.8v6.6c0,0.5,0,0.9,0.1,1.1c0.1,0.2,0.3,0.3,0.6,0.3c0.2,0,0.4,0,0.6-0.1V838.6z M309.4,832.1
		c-0.3,0.2-0.6,0.3-1,0.4c-0.4,0.1-0.9,0.2-1.4,0.2s-0.9,0.1-1.4,0.2c-0.5,0.1-0.9,0.2-1.3,0.4c-0.4,0.2-0.7,0.4-0.9,0.7
		c-0.2,0.3-0.4,0.7-0.4,1.2c0,0.3,0.1,0.6,0.2,0.9s0.3,0.4,0.5,0.6c0.2,0.1,0.5,0.3,0.8,0.3c0.3,0.1,0.6,0.1,0.9,0.1
		c0.7,0,1.3-0.1,1.8-0.3c0.5-0.2,0.9-0.4,1.2-0.7s0.5-0.6,0.7-0.9c0.1-0.3,0.2-0.7,0.2-1V832.1z"/>
	<path class="st1" d="M320.3,825.8v1.9h-2.6v8c0,0.2,0,0.4,0.1,0.6c0,0.1,0.1,0.3,0.2,0.3c0.1,0.1,0.3,0.1,0.5,0.2s0.5,0,0.8,0h1
		v1.9h-1.6c-0.5,0-1,0-1.4-0.1c-0.4-0.1-0.7-0.2-0.9-0.4c-0.2-0.2-0.4-0.5-0.5-0.8c-0.1-0.4-0.2-0.8-0.2-1.4v-8.2h-2.2v-1.9h2.2V822
		h2.1v3.8H320.3z"/>
	<path class="st1" d="M338.9,838.7v-1.7h0c-0.3,0.7-0.9,1.2-1.6,1.5c-0.7,0.3-1.6,0.5-2.5,0.5c-1,0-1.9-0.2-2.6-0.5
		c-0.7-0.4-1.3-0.9-1.8-1.5c-0.5-0.6-0.9-1.3-1.1-2.1c-0.2-0.8-0.4-1.7-0.4-2.6c0-0.9,0.1-1.8,0.4-2.6c0.2-0.8,0.6-1.5,1.1-2.1
		c0.5-0.6,1.1-1.1,1.8-1.4c0.7-0.4,1.6-0.5,2.6-0.5c0.3,0,0.7,0,1.1,0.1s0.8,0.2,1.1,0.3c0.4,0.2,0.7,0.4,1.1,0.6
		c0.3,0.3,0.6,0.6,0.9,1h0V821h2.1v17.7H338.9z M331.3,834.1c0.2,0.6,0.4,1.1,0.7,1.5c0.3,0.4,0.7,0.8,1.2,1.1
		c0.5,0.3,1.1,0.4,1.8,0.4c0.7,0,1.3-0.1,1.8-0.4c0.5-0.3,0.9-0.6,1.2-1.1c0.3-0.5,0.5-1,0.7-1.6c0.1-0.6,0.2-1.2,0.2-1.8
		c0-0.6-0.1-1.2-0.2-1.8c-0.1-0.6-0.4-1.1-0.7-1.6c-0.3-0.4-0.7-0.8-1.3-1.1c-0.5-0.3-1.1-0.4-1.9-0.4c-0.7,0-1.3,0.1-1.8,0.4
		c-0.5,0.3-0.9,0.7-1.2,1.1c-0.3,0.5-0.5,1-0.6,1.6c-0.1,0.6-0.2,1.2-0.2,1.8C331,833,331.1,833.6,331.3,834.1z"/>
	<path class="st1" d="M343.9,829.6c0.3-0.8,0.7-1.5,1.2-2.1c0.5-0.6,1.2-1.1,2-1.4s1.7-0.5,2.7-0.5c1,0,1.9,0.2,2.7,0.5
		s1.4,0.8,1.9,1.4c0.5,0.6,0.9,1.3,1.2,2.1s0.4,1.7,0.4,2.6s-0.1,1.8-0.4,2.6c-0.3,0.8-0.7,1.5-1.2,2.1c-0.5,0.6-1.2,1.1-1.9,1.4
		c-0.8,0.3-1.7,0.5-2.7,0.5c-1,0-1.9-0.2-2.7-0.5c-0.8-0.3-1.4-0.8-2-1.4c-0.5-0.6-0.9-1.3-1.2-2.1c-0.3-0.8-0.4-1.7-0.4-2.6
		S343.7,830.5,343.9,829.6z M346.1,834.4c0.2,0.6,0.5,1.1,0.9,1.5c0.4,0.4,0.8,0.7,1.3,0.9s1,0.3,1.6,0.3s1.1-0.1,1.6-0.3
		s0.9-0.5,1.3-0.9c0.4-0.4,0.6-0.9,0.9-1.5c0.2-0.6,0.3-1.3,0.3-2.1c0-0.8-0.1-1.5-0.3-2.1c-0.2-0.6-0.5-1.1-0.9-1.5
		c-0.4-0.4-0.8-0.7-1.3-0.9c-0.5-0.2-1-0.3-1.6-0.3s-1.1,0.1-1.6,0.3c-0.5,0.2-0.9,0.5-1.3,0.9c-0.4,0.4-0.7,0.9-0.9,1.5
		c-0.2,0.6-0.3,1.3-0.3,2.1C345.8,833.1,345.9,833.7,346.1,834.4z"/>
	<path class="st1" d="M370.4,840.4c-0.2,0.6-0.5,1.2-0.7,1.6c-0.2,0.4-0.5,0.8-0.8,1.1c-0.3,0.3-0.6,0.5-1,0.6
		c-0.4,0.1-0.8,0.2-1.2,0.2c-0.2,0-0.5,0-0.7,0s-0.5-0.1-0.7-0.2v-1.9c0.2,0.1,0.4,0.2,0.6,0.2s0.4,0.1,0.6,0.1
		c0.4,0,0.8-0.1,1.1-0.3c0.3-0.2,0.5-0.5,0.7-0.9l0.9-2.2l-5.1-12.8h2.4l3.7,10.5h0l3.6-10.5h2.2L370.4,840.4z"/>
	<path class="st1" d="M377.5,829.6c0.3-0.8,0.7-1.5,1.2-2.1c0.5-0.6,1.2-1.1,2-1.4s1.7-0.5,2.7-0.5c1,0,1.9,0.2,2.7,0.5
		s1.4,0.8,1.9,1.4c0.5,0.6,0.9,1.3,1.2,2.1s0.4,1.7,0.4,2.6s-0.1,1.8-0.4,2.6c-0.3,0.8-0.7,1.5-1.2,2.1c-0.5,0.6-1.2,1.1-1.9,1.4
		c-0.8,0.3-1.7,0.5-2.7,0.5c-1,0-1.9-0.2-2.7-0.5c-0.8-0.3-1.4-0.8-2-1.4c-0.5-0.6-0.9-1.3-1.2-2.1c-0.3-0.8-0.4-1.7-0.4-2.6
		S377.2,830.5,377.5,829.6z M379.6,834.4c0.2,0.6,0.5,1.1,0.9,1.5c0.4,0.4,0.8,0.7,1.3,0.9s1,0.3,1.6,0.3s1.1-0.1,1.6-0.3
		s0.9-0.5,1.3-0.9c0.4-0.4,0.6-0.9,0.9-1.5c0.2-0.6,0.3-1.3,0.3-2.1c0-0.8-0.1-1.5-0.3-2.1c-0.2-0.6-0.5-1.1-0.9-1.5
		c-0.4-0.4-0.8-0.7-1.3-0.9c-0.5-0.2-1-0.3-1.6-0.3s-1.1,0.1-1.6,0.3c-0.5,0.2-0.9,0.5-1.3,0.9c-0.4,0.4-0.7,0.9-0.9,1.5
		c-0.2,0.6-0.3,1.3-0.3,2.1C379.3,833.1,379.4,833.7,379.6,834.4z"/>
	<path class="st1" d="M400.7,838.7v-2h0c-0.4,0.8-1,1.4-1.7,1.8c-0.7,0.4-1.5,0.6-2.5,0.6c-0.8,0-1.5-0.1-2.1-0.3
		c-0.6-0.2-1-0.5-1.4-1c-0.3-0.4-0.6-0.9-0.7-1.5s-0.2-1.2-0.2-1.9v-8.4h2.1v8.7c0,0.8,0.2,1.4,0.7,1.9c0.5,0.5,1.1,0.7,1.9,0.7
		c0.6,0,1.2-0.1,1.7-0.3s0.9-0.5,1.2-0.8s0.5-0.8,0.7-1.3c0.2-0.5,0.2-1,0.2-1.6v-7.2h2.1v12.8H400.7z"/>
	<path class="st1" d="M414.7,825.8v2h0c0.9-1.6,2.3-2.3,4.2-2.3c0.8,0,1.5,0.1,2.1,0.3c0.6,0.2,1,0.6,1.4,1c0.3,0.4,0.6,0.9,0.7,1.5
		c0.1,0.6,0.2,1.2,0.2,1.9v8.4h-2.1V830c0-0.8-0.2-1.4-0.7-1.9c-0.5-0.5-1.1-0.7-1.9-0.7c-0.6,0-1.2,0.1-1.7,0.3s-0.9,0.5-1.2,0.8
		c-0.3,0.4-0.6,0.8-0.7,1.3s-0.2,1-0.2,1.6v7.2h-2.1v-12.8H414.7z"/>
	<path class="st1" d="M435.6,837.9c-1,0.7-2.2,1.1-3.6,1.1c-1,0-1.9-0.2-2.7-0.5c-0.8-0.3-1.4-0.8-1.9-1.4c-0.5-0.6-0.9-1.3-1.2-2.1
		s-0.4-1.7-0.4-2.7c0-1,0.1-1.9,0.4-2.7c0.3-0.8,0.7-1.5,1.3-2.1s1.2-1.1,1.9-1.4c0.7-0.3,1.5-0.5,2.4-0.5c1.1,0,2.1,0.2,2.8,0.7
		c0.8,0.5,1.4,1.1,1.8,1.8s0.8,1.5,0.9,2.4s0.2,1.7,0.2,2.5h-9.6c0,0.6,0,1.1,0.2,1.6s0.4,1,0.7,1.3s0.8,0.7,1.3,0.9
		c0.5,0.2,1.1,0.3,1.8,0.3c0.9,0,1.6-0.2,2.2-0.6c0.6-0.4,0.9-1,1.1-1.9h2.1C437.2,836.1,436.6,837.1,435.6,837.9z M435.1,829.6
		c-0.2-0.4-0.4-0.8-0.8-1.2c-0.3-0.3-0.7-0.6-1.1-0.8c-0.4-0.2-0.9-0.3-1.5-0.3c-0.5,0-1,0.1-1.5,0.3c-0.4,0.2-0.8,0.5-1.1,0.8
		s-0.6,0.7-0.7,1.2c-0.2,0.4-0.3,0.9-0.3,1.4h7.4C435.4,830.5,435.3,830.1,435.1,829.6z"/>
	<path class="st1" d="M449,837.9c-1,0.7-2.2,1.1-3.6,1.1c-1,0-1.9-0.2-2.7-0.5c-0.8-0.3-1.4-0.8-1.9-1.4c-0.5-0.6-0.9-1.3-1.2-2.1
		s-0.4-1.7-0.4-2.7c0-1,0.1-1.9,0.4-2.7c0.3-0.8,0.7-1.5,1.3-2.1s1.2-1.1,1.9-1.4c0.7-0.3,1.5-0.5,2.4-0.5c1.1,0,2.1,0.2,2.8,0.7
		c0.8,0.5,1.4,1.1,1.8,1.8s0.8,1.5,0.9,2.4s0.2,1.7,0.2,2.5h-9.6c0,0.6,0,1.1,0.2,1.6s0.4,1,0.7,1.3s0.8,0.7,1.3,0.9
		c0.5,0.2,1.1,0.3,1.8,0.3c0.9,0,1.6-0.2,2.2-0.6c0.6-0.4,0.9-1,1.1-1.9h2.1C450.6,836.1,449.9,837.1,449,837.9z M448.5,829.6
		c-0.2-0.4-0.4-0.8-0.8-1.2c-0.3-0.3-0.7-0.6-1.1-0.8c-0.4-0.2-0.9-0.3-1.5-0.3c-0.5,0-1,0.1-1.5,0.3c-0.4,0.2-0.8,0.5-1.1,0.8
		s-0.6,0.7-0.7,1.2c-0.2,0.4-0.3,0.9-0.3,1.4h7.4C448.8,830.5,448.7,830.1,448.5,829.6z"/>
	<path class="st1" d="M462.6,838.7v-1.7h0c-0.3,0.7-0.9,1.2-1.6,1.5c-0.7,0.3-1.6,0.5-2.5,0.5c-1,0-1.9-0.2-2.6-0.5
		c-0.7-0.4-1.3-0.9-1.8-1.5c-0.5-0.6-0.9-1.3-1.1-2.1c-0.2-0.8-0.4-1.7-0.4-2.6c0-0.9,0.1-1.8,0.4-2.6c0.2-0.8,0.6-1.5,1.1-2.1
		c0.5-0.6,1.1-1.1,1.8-1.4c0.7-0.4,1.6-0.5,2.6-0.5c0.3,0,0.7,0,1.1,0.1s0.8,0.2,1.1,0.3c0.4,0.2,0.7,0.4,1.1,0.6
		c0.3,0.3,0.6,0.6,0.9,1h0V821h2.1v17.7H462.6z M455,834.1c0.2,0.6,0.4,1.1,0.7,1.5c0.3,0.4,0.7,0.8,1.2,1.1
		c0.5,0.3,1.1,0.4,1.8,0.4c0.7,0,1.3-0.1,1.8-0.4c0.5-0.3,0.9-0.6,1.2-1.1c0.3-0.5,0.5-1,0.7-1.6c0.1-0.6,0.2-1.2,0.2-1.8
		c0-0.6-0.1-1.2-0.2-1.8c-0.1-0.6-0.4-1.1-0.7-1.6c-0.3-0.4-0.7-0.8-1.3-1.1c-0.5-0.3-1.1-0.4-1.9-0.4c-0.7,0-1.3,0.1-1.8,0.4
		c-0.5,0.3-0.9,0.7-1.2,1.1c-0.3,0.5-0.5,1-0.6,1.6c-0.1,0.6-0.2,1.2-0.2,1.8C454.8,833,454.8,833.6,455,834.1z"/>
	<path class="st1" d="M476.8,825.8v1.9h0c1-1.5,2.3-2.2,4.1-2.2c0.8,0,1.5,0.2,2.2,0.5c0.6,0.3,1.1,0.9,1.4,1.7
		c0.4-0.7,1-1.2,1.7-1.6s1.5-0.6,2.3-0.6c0.6,0,1.2,0.1,1.8,0.2s1,0.4,1.3,0.7s0.7,0.7,0.9,1.2s0.3,1,0.3,1.7v9.4h-2.1v-8.4
		c0-0.4,0-0.8-0.1-1.1c-0.1-0.3-0.2-0.6-0.4-0.9c-0.2-0.3-0.4-0.5-0.8-0.6c-0.3-0.1-0.7-0.2-1.3-0.2c-1,0-1.9,0.3-2.5,0.9
		s-0.9,1.4-0.9,2.4v8h-2.1v-8.4c0-0.4,0-0.8-0.1-1.1s-0.2-0.6-0.4-0.9c-0.2-0.3-0.4-0.5-0.7-0.6c-0.3-0.1-0.7-0.2-1.2-0.2
		c-0.6,0-1.1,0.1-1.6,0.4c-0.4,0.2-0.8,0.5-1.1,0.9c-0.3,0.3-0.5,0.7-0.6,1.1c-0.1,0.4-0.2,0.7-0.2,0.9v8h-2.1v-12.8H476.8z"/>
	<path class="st1" d="M495.7,829.6c0.3-0.8,0.7-1.5,1.2-2.1c0.5-0.6,1.2-1.1,2-1.4s1.7-0.5,2.7-0.5c1,0,1.9,0.2,2.7,0.5
		s1.4,0.8,1.9,1.4c0.5,0.6,0.9,1.3,1.2,2.1s0.4,1.7,0.4,2.6s-0.1,1.8-0.4,2.6c-0.3,0.8-0.7,1.5-1.2,2.1c-0.5,0.6-1.2,1.1-1.9,1.4
		c-0.8,0.3-1.7,0.5-2.7,0.5c-1,0-1.9-0.2-2.7-0.5c-0.8-0.3-1.4-0.8-2-1.4c-0.5-0.6-0.9-1.3-1.2-2.1c-0.3-0.8-0.4-1.7-0.4-2.6
		S495.5,830.5,495.7,829.6z M497.9,834.4c0.2,0.6,0.5,1.1,0.9,1.5c0.4,0.4,0.8,0.7,1.3,0.9s1,0.3,1.6,0.3s1.1-0.1,1.6-0.3
		s0.9-0.5,1.3-0.9c0.4-0.4,0.6-0.9,0.9-1.5c0.2-0.6,0.3-1.3,0.3-2.1c0-0.8-0.1-1.5-0.3-2.1c-0.2-0.6-0.5-1.1-0.9-1.5
		c-0.4-0.4-0.8-0.7-1.3-0.9c-0.5-0.2-1-0.3-1.6-0.3s-1.1,0.1-1.6,0.3c-0.5,0.2-0.9,0.5-1.3,0.9c-0.4,0.4-0.7,0.9-0.9,1.5
		c-0.2,0.6-0.3,1.3-0.3,2.1C497.6,833.1,497.7,833.7,497.9,834.4z"/>
	<path class="st1" d="M512.2,825.8v2.7h0c0.5-1,1.1-1.8,1.9-2.3c0.7-0.5,1.7-0.7,2.8-0.7v2.2c-0.8,0-1.6,0.1-2.2,0.3
		c-0.6,0.2-1.1,0.6-1.4,1c-0.4,0.4-0.6,1-0.8,1.6c-0.2,0.6-0.2,1.4-0.2,2.2v5.7h-2.1v-12.8H512.2z"/>
	<path class="st1" d="M527.2,837.9c-1,0.7-2.2,1.1-3.6,1.1c-1,0-1.9-0.2-2.7-0.5c-0.8-0.3-1.4-0.8-1.9-1.4c-0.5-0.6-0.9-1.3-1.2-2.1
		s-0.4-1.7-0.4-2.7c0-1,0.1-1.9,0.4-2.7c0.3-0.8,0.7-1.5,1.3-2.1s1.2-1.1,1.9-1.4c0.7-0.3,1.5-0.5,2.4-0.5c1.1,0,2.1,0.2,2.8,0.7
		c0.8,0.5,1.4,1.1,1.8,1.8s0.8,1.5,0.9,2.4s0.2,1.7,0.2,2.5h-9.6c0,0.6,0,1.1,0.2,1.6s0.4,1,0.7,1.3s0.8,0.7,1.3,0.9
		c0.5,0.2,1.1,0.3,1.8,0.3c0.9,0,1.6-0.2,2.2-0.6c0.6-0.4,0.9-1,1.1-1.9h2.1C528.8,836.1,528.1,837.1,527.2,837.9z M526.7,829.6
		c-0.2-0.4-0.4-0.8-0.8-1.2c-0.3-0.3-0.7-0.6-1.1-0.8c-0.4-0.2-0.9-0.3-1.5-0.3c-0.5,0-1,0.1-1.5,0.3c-0.4,0.2-0.8,0.5-1.1,0.8
		s-0.6,0.7-0.7,1.2c-0.2,0.4-0.3,0.9-0.3,1.4h7.4C527,830.5,526.9,830.1,526.7,829.6z"/>
	<path class="st1" d="M538,829.6c0.3-0.8,0.7-1.5,1.2-2.1c0.5-0.6,1.2-1.1,2-1.4s1.7-0.5,2.7-0.5c1,0,1.9,0.2,2.7,0.5
		s1.4,0.8,1.9,1.4c0.5,0.6,0.9,1.3,1.2,2.1s0.4,1.7,0.4,2.6s-0.1,1.8-0.4,2.6c-0.3,0.8-0.7,1.5-1.2,2.1c-0.5,0.6-1.2,1.1-1.9,1.4
		c-0.8,0.3-1.7,0.5-2.7,0.5c-1,0-1.9-0.2-2.7-0.5c-0.8-0.3-1.4-0.8-2-1.4c-0.5-0.6-0.9-1.3-1.2-2.1c-0.3-0.8-0.4-1.7-0.4-2.6
		S537.8,830.5,538,829.6z M540.2,834.4c0.2,0.6,0.5,1.1,0.9,1.5c0.4,0.4,0.8,0.7,1.3,0.9s1,0.3,1.6,0.3s1.1-0.1,1.6-0.3
		s0.9-0.5,1.3-0.9c0.4-0.4,0.6-0.9,0.9-1.5c0.2-0.6,0.3-1.3,0.3-2.1c0-0.8-0.1-1.5-0.3-2.1c-0.2-0.6-0.5-1.1-0.9-1.5
		c-0.4-0.4-0.8-0.7-1.3-0.9c-0.5-0.2-1-0.3-1.6-0.3s-1.1,0.1-1.6,0.3c-0.5,0.2-0.9,0.5-1.3,0.9c-0.4,0.4-0.7,0.9-0.9,1.5
		c-0.2,0.6-0.3,1.3-0.3,2.1C539.9,833.1,540,833.7,540.2,834.4z"/>
	<path class="st1" d="M551.3,827.7v-1.9h2.2v-1.9c0-1,0.3-1.8,0.9-2.4c0.6-0.5,1.5-0.8,2.6-0.8c0.2,0,0.4,0,0.7,0s0.5,0.1,0.7,0.1
		v1.8c-0.2-0.1-0.4-0.1-0.6-0.1c-0.2,0-0.4,0-0.6,0c-0.5,0-0.9,0.1-1.2,0.3c-0.3,0.2-0.4,0.6-0.4,1.1v1.8h2.5v1.9h-2.5v11h-2.1v-11
		H551.3z"/>
	<path class="st1" d="M560.1,824.1c0.3-0.7,0.6-1.4,1.1-1.9c0.5-0.5,1.1-1,1.8-1.3s1.5-0.4,2.3-0.4c0.8,0,1.5,0.1,2.1,0.3
		c0.6,0.2,1.2,0.5,1.7,1c0.5,0.4,0.8,0.9,1.1,1.6s0.4,1.3,0.4,2.1c0,0.5-0.1,1-0.2,1.4c-0.1,0.4-0.3,0.8-0.5,1.1s-0.4,0.6-0.7,0.9
		c-0.3,0.3-0.5,0.6-0.8,0.8c-0.3,0.2-0.5,0.5-0.8,0.8s-0.5,0.5-0.7,0.8c-0.2,0.3-0.4,0.6-0.5,0.9c-0.1,0.3-0.2,0.7-0.2,1.2v1h-2.1
		v-1.2c0-0.7,0.2-1.3,0.4-1.8s0.5-0.9,0.8-1.3c0.3-0.4,0.7-0.7,1-1.1c0.4-0.3,0.7-0.7,1-1c0.3-0.4,0.6-0.7,0.7-1.2
		c0.2-0.4,0.3-1,0.2-1.6c-0.1-0.9-0.4-1.6-0.9-2.1c-0.5-0.5-1.2-0.8-2.1-0.8c-0.6,0-1.1,0.1-1.5,0.3c-0.4,0.2-0.8,0.5-1.1,0.9
		c-0.3,0.4-0.5,0.8-0.6,1.3c-0.1,0.5-0.2,1-0.2,1.6h-2.1C559.7,825.6,559.8,824.9,560.1,824.1z M566.5,835.9v2.8h-2.8v-2.8H566.5z"
		/>
</g>
<g>
	<path class="st1" d="M303.6,478.1c38,0,76.1-0.1,114.1,0c25.8,0.1,35.8,14.3,27.6,38.9c-25.1,75.3-50.2,150.6-75.3,225.9
		c-6.2,18.7-12.6,23.6-32,23.7c-22.9,0.2-45.8,0.2-68.7,0c-18.8-0.2-24.9-4.9-31-23.1c-25.3-75.7-50.6-151.4-75.8-227.2
		c-8.1-24.3,2.2-38.3,28.2-38.4C228.4,478,266,478.1,303.6,478.1z"/>
	<path class="st1" d="M142.7,104.5c-19-4.7-38-9.5-60.8-15.1c8.5-4.4,13.7-7.9,19.5-10c13.8-4.8,28.2-8.3,41.8-13.6
		c10.4-4,17.3-2.6,21.6,8c0.7,1.9,2.5,3.3,4.7,6.2c18.4-17.4,36.2-34.3,53.9-51.1c7.5-7.1,14.9-14.5,22.7-21.3
		c15.6-13.6,35.7-8.5,42.3,11.3c9.7,29,18.6,58.4,28,87.5c9,27.7,30.1,32.7,51,12c21.4-21.2,42.6-42.7,65-65.2
		c-13.8-4.6-29.5-4.8-32.6-21.2c-1.2-6.3-0.3-13.9,2.4-19.7C408,0.2,425.6-3.4,437.1,4c15.8,10.3,14.9,24.6-4.4,49.1
		c13.4,2.5,25.7,5,38.1,7.1c37,6.3,74,12.5,111.1,18.7c19.1,3.2,29.2,15.9,25,31.9c-4,15.3-18.6,22.1-36.3,16.1
		c-45.4-15.3-90.6-31.2-136-46.4c-17.3-5.8-32,0.9-36.2,16.9c-1.7,6.2-0.1,13.6,1.1,20.2c2.7,14.7,11.4,30.9,7.7,43.5
		c-3.6,12.2-19.8,20.7-30.4,30.8c-26,24.6-52,49.2-79.2,74.9c-10.6-17.6-20.2-36.2-46.4-26.7c-2.8-12.2-5.3-23.3-7.5-33.1
		c12,0,23.3,1.9,33.5-0.8c5.4-1.4,10.5-10.1,12.6-16.6c4.4-13.4-6.2-28.5-20.1-31.1c-16.9-3.2-29.2,7.1-32.6,29.1
		c-6.1-9.5-11.3-17.5-18-28c-3.7,11.2-5.9,20.2-9.6,28.6c-2.7,6-6.2,13.4-11.5,16.4c-20.5,11.7-41.9,21.8-66.2,34.2
		c0-15.1,0-27.3,0-39.5c-0.1-31.5-2.9-35.4-33.2-45.1c-25.5-8.1-51-16.1-76.5-24.3c-17-5.5-24.8-17.3-21.2-31.7
		c3.5-13.9,16.8-20.6,34.1-17c14.7,3.1,29.4,6.4,44.4,9.7c0.1,2.4,0.6,4.2,0.2,5.7c-3.6,13,0.5,23.1,11.5,30.2
		c10.5,6.8,22.8,5.1,33.3-4.4c6.3-5.7,12-12.2,18-18.3c15.3,3.6,30.6,7.2,49.6,11.7c-8.8-14.3-15.5-25.2-23.5-38.3
		C158.6,87.9,150.6,96.2,142.7,104.5z M218.8,161.3c2.2-5,3.4-7.3,4.2-9.7c2.9-8.1,3.4-20.1,9-23.3c6.1-3.5,16.9,1,25.6,2.2
		c16,2.2,29.5-6.2,32.7-20.6c2.9-13.1-5.9-27-19.5-30.8c-13.4-3.8-26.9,4.1-32.3,18.9c-2.9,8-5.5,16.1-8.4,24.4
		c-13.1-2.6-25-4.9-40-7.9C200.3,131.2,208.8,145.1,218.8,161.3z"/>
	<path class="st1" d="M448.1,306.6c14.1-1.8,26.3-3.3,40.7-5.1c-3.5,11-6.5,20.2-9.4,29.4c-6.5,20.5-1,32.1,19.6,39
		c28.6,9.6,57.4,18.5,86.1,27.8c17.4,5.6,24.2,15,22,29.8c-2,13.2-12.2,20.8-29.7,21c-23.3,0.3-46.6,0.3-69.9,0
		c-18-0.3-25.6-6.8-29.9-24.2C468,385.9,458.3,347.5,448.1,306.6z"/>
	<path class="st1" d="M329.9,322.6c9.5,14.9,18.1,28.6,27.9,44c15.6-13.3,30.2-25.3,44.2-37.9c9.9-8.9,20.5-13,33-7.2
		c11.7,5.6,13.9,16.3,13.7,28.3c-0.4,23.3-0.1,46.6-0.2,69.9c-0.1,15.3-5.9,24.1-18.7,27.2c-13,3.2-22.5-1.9-29.4-13.1
		c-12.3-20.3-24.9-40.4-37.2-60.6c-3.2-5.4-6.2-7.6-13.4-5.7c-12,3.1-22.7-1.2-28.1-12.8C316.2,343.2,318.3,332.3,329.9,322.6z"/>
	<path class="st1" d="M288.8,409.3c0.3,25-3.4,33-16.3,37.2c-11.5,3.8-23.3-0.1-29.5-10c-6.6-10.5-5-20.6,2.7-29.9
		c8.9-10.7,17.9-10.6,42,0.4c-6.9-31.4-13.6-61.8-20.4-92.3c0.9-0.6,1.8-1.2,2.8-1.8c8.6,8.9,17.1,18,25.9,26.8
		c20.7,20.9,41.6,41.5,62.3,62.4c12.5,12.6,13.8,27,3.9,37.9c-9.7,10.7-24.9,10.4-38.2-0.8C312.6,429.7,301.3,420,288.8,409.3z"/>
	<path class="st1" d="M148.7,295c20.6,41.5,40.1,80,58.7,118.7c6,12.4-0.9,27.6-12.9,32.4c-14.1,5.6-28.5-0.2-33.6-14.9
		c-8.2-23.6-15.4-47.5-23-71.3c-1.4-4.4-3-8.6-4.8-13.6c-5.5,6.8-9.1,14.6-15.1,17.8c-6.1,3.2-15,3.9-21.8,2.2
		c-11.8-2.8-17.6-13.8-15.9-26.1c1.6-12.3,9.2-19.2,21-21.3c12.7-2.3,22.2,4.7,31,24.2C137.9,326.8,142.8,312.6,148.7,295z"/>
	<path class="st1" d="M491.4,299.9c10.2-29.4,19.1-55.2,28.6-82.5c25.9,8.6,50.5,16.2,74.6,25c10.6,3.9,13.7,13.7,12.7,24.5
		c-0.9,10.6-7,19-16.9,20.5C558.7,292.3,526.6,295.6,491.4,299.9z"/>
	<path class="st1" d="M158,59.7c-6.5-10.2-12.3-19.2-19.2-29.9c-5.8,4.8-10.9,9-16.2,13.1c-12.8,10.1-28.8,8.9-37.8-3
		c-7.8-10.3-5.5-27.2,4.8-34.9c11.9-8.9,28.9-5,37.9,8.7c3.5,5.3,6.9,10.8,11.1,17.3c9.6-8.2,18.5-15.5,27.2-23.2
		c9-8.1,19.4-9.8,30-5c9.9,4.5,14.8,13.3,13.8,24.3c-1.1,12.1-8.7,19.2-20.1,22.7C179.2,52.9,169,56.2,158,59.7z"/>
	<path class="st1" d="M302.3,274.9c28.5,3.8,53.6,7.7,78.7,10.2c19.4,1.9,38.8,9.8,59.6,0.5c1.7,5.8,3.3,11.4,5.5,19.1
		c-19.6,2.4-38.6,4.6-57.5,7c-17.1,2.1-34.1,4.5-51.2,6.4c-3,0.3-7.8,0.2-8.9-1.5C319.9,303.8,312.1,290.6,302.3,274.9z"/>
	<path class="st1" d="M77.7,265.3c-13.4,6.8-26.7,13.9-40.2,20.4c-10.6,5.1-21.2,4.5-29.7-4.2c-7.5-7.7-9.9-17.1-5.4-27.3
		c4.9-11.2,14.1-16,26-14.8c17.8,1.9,35.6,4.3,54.2,6.6c-1.9,7.4-3.6,13.5-5.2,19.6C77.4,265.6,77.7,265.3,77.7,265.3z"/>
	<path class="st1" d="M441.2,278.9c-6.8-26.6-13.5-53.3-20.3-79.9c-2.4-9.6-4.7-19.3-7.3-28.8c-2-7.4,0.9-10.3,8.2-10.8
		c14.1-0.9,26.3,9.4,26.5,24.1c0.5,27.2,0.4,54.4,0,81.6c-0.1,4.7-2.7,9.3-4.2,14C443.1,279,442.1,279,441.2,278.9z"/>
	<path class="st1" d="M159.5,253.7c-3.4,11-6.8,22-11.1,36.1c-6-11-10.7-19.6-15.6-28.7c-3.9,7.7-5.7,16-10.8,20.3
		c-5.3,4.4-13.8,6.7-21,6.6c-14-0.1-18-12.5-23.3-22.7c0,0-0.3,0.3-0.3,0.3c10.5-4.5,21-8.9,31.5-13.4c-0.1-1.1-0.3-2.1-0.4-3.2
		c-5.4-1.3-10.8-2.5-16.2-3.8c0.1-1.1,0.1-2.3,0.2-3.4c8.4,0,16.8,0,27.1,0c-2.4,3.6-3.7,5.4-6.5,9.6c16.6,0.9,31.6,1.7,46.6,2.4
		L159.5,253.7z"/>
	<path class="st1" d="M518.8,215.8c-10-3.4-18.4-5.6-26.2-9.1c-13-5.8-17.9-19.7-12.4-32.4c5.2-11.8,19.1-18,31.1-13.8
		c12.5,4.3,19.6,18.2,15.7,31.1C524.6,199.4,521.8,207,518.8,215.8z"/>
	<path class="st1" d="M80.2,423.1c0-13.8,10.7-24.7,24.4-24.9c14.1-0.2,25.3,11.3,25,25.6c-0.3,13.8-11.2,24.3-25.1,24.1
		C90.6,447.7,80.2,437.1,80.2,423.1z"/>
	<path class="st1" d="M159.6,253.9c20.8-22,35.8-20.1,56.8,8.8c-19.9-3.1-38.4-6-56.9-8.9C159.5,253.7,159.6,253.9,159.6,253.9z"/>
	<path class="st1" d="M263.3,289.7c-2.1-6.3-4.1-12.6-6.8-20.6c12,1.5,21.6,2.7,32.3,4.1c-6.2,11.1-15.2,15-25.8,16.3
		C263,289.4,263.3,289.7,263.3,289.7z"/>
	<path class="st1" d="M237.9,264.7c2.8,16.8,8.9,22.8,25.3,24.9c0,0-0.3-0.3-0.3-0.2c-0.6,4-1.3,7.9-1.8,10.9
		c-10.9-11-22.3-22.4-33.9-34.1c3.2-0.3,7.1-0.7,11-1.2C238.4,265.1,237.9,264.7,237.9,264.7z"/>
	<path class="st1" d="M238.4,265.1c2.5-6.8,5-13.6,7.4-20.5c1.4,0.2,2.9,0.3,4.3,0.5c1.5,6.8,3.1,13.7,5,22.1
		c-7.3-1-12.2-1.7-17.1-2.5C237.9,264.7,238.4,265.1,238.4,265.1z"/>
</g>
</svg>
