<?xml version="1.0" encoding="utf-8"?>
<!-- Generator: Adobe Illustrator 22.0.1, SVG Export Plug-In . SVG Version: 6.00 Build 0)  -->
<svg version="1.1" id="Livello_1" xmlns="http://www.w3.org/2000/svg" xmlns:xlink="http://www.w3.org/1999/xlink" x="0px" y="0px"
	 viewBox="0 0 734.6 429.3" style="enable-background:new 0 0 734.6 429.3;" xml:space="preserve">
<style type="text/css">
	.st0{fill:#0000FF;}
	.st1{fill:none;stroke:#0000FF;stroke-miterlimit:10;}
</style>
<path class="st0" d="M76.9,23.8c0-12.9,10.4-23.3,23.3-23.3s23.3,10.4,23.3,23.3S113,47,100.1,47S76.9,36.6,76.9,23.8z"/>
<path class="st0" d="M123.4,252.8v-76.3c0-12.9-10.4-23.3-23.3-23.3s-23.3,10.4-23.3,23.3s10.4,23.3,23.3,23.3h76.3
	c10.8,0,20.2-7.5,22.7-18s-2.7-21.4-12.4-26.2s-21.4-2.2-28.3,6.1s-7,20.4-0.4,29l36.9,47.9c7.1,9.3,6.3,22.4-2,30.7
	s-21.4,9.1-30.7,2l-47.9-37c-8.6-6.6-20.6-6.4-29,0.4c-8.4,6.9-10.9,18.6-6.1,28.3c4.8,9.7,15.6,14.8,26.2,12.4
	C116,273,123.4,263.6,123.4,252.8L123.4,252.8z"/>
<path class="st0" d="M168.7,307.1l91.8-32.4c7-2.5,12.5-8.2,14.6-15.3c2.1-7.2,0.7-14.9-3.9-20.8l-36.9-47.9
	c-7.1-9.3-6.3-22.4,2-30.7s21.4-9.1,30.7-2l47.9,36.9c8.4,6.4,20,6.4,28.4,0l48-36.9c9.3-7.1,22.4-6.3,30.7,2s9.1,21.4,2,30.7
	l-36.9,47.9c-3.1,4.1-4.8,9.1-4.8,14.2v76.3c0,12.9,10.4,23.3,23.3,23.3s23.3-10.4,23.3-23.3v-76.3c0-12.9-10.4-23.3-23.3-23.3
	h-76.3c-8.9,0-17,5-20.9,13s-3,17.5,2.4,24.5l36.9,47.9c7.1,9.3,6.3,22.4-2,30.7s-21.4,9.1-30.7,2l-47.9-36.9
	c-9.9-7.6-24-6.1-32,3.5s-7.1,23.7,2.1,32.1s23.4,8.1,32.2-0.7l76.3-76.3c7.5-7.5,9-19,3.7-28.1s-16-13.6-26.2-10.8
	s-17.3,12-17.3,22.5v152.7c0,8.9,5,17,13,20.9s17.5,3,24.5-2.4l47.9-37.1c8.6-6.6,20.6-6.4,29,0.4s10.9,18.6,6.1,28.3
	c-4.8,9.7-15.6,14.8-26.2,12.4c-10.5-2.5-18-11.9-18-22.7v-76.3c0-12.9,10.4-23.3,23.3-23.3s23.3,10.4,23.3,23.3
	s-10.4,23.3-23.3,23.3h-229c-11.3,0-21-8.2-22.9-19.3S158,310.9,168.7,307.1z"/>
<path class="st0" d="M486.5,153.6L706,199.2c8.4,1.7,17-1.2,22.5-7.7s7-15.5,3.9-23.5s-10.3-13.6-18.7-14.7l-234.9-30.1
	c-10.1-1.3-18.2-9-20-19s3.1-20,12.1-24.7s20-3,27.2,4.2l76.3,76.3c8.4,8.4,9.1,21.8,1.7,31.1c-7.4,9.3-20.7,11.4-30.7,5
	s-13.6-19.4-8.2-30l76.3-152.7c4-7.9,12.1-12.9,20.9-12.9c8.9,0,16.9,5.1,20.8,13s2.9,17.4-2.5,24.4l-36.9,47.9
	c-6.4,8.4-6.4,20,0,28.4l36.9,47.9c4.6,5.9,6,13.7,3.9,20.8c-2.1,7.2-7.5,12.9-14.6,15.3l-91.8,32.4c-8.7,3.1-14.7,11-15.5,20.1
	c-0.7,9.2,4,17.9,12.1,22.3s18,3.6,25.3-2l47.9-36.9c9.1-7,22-6.3,30.3,1.6s9.5,20.8,2.9,30.2s-19.1,12.6-29.4,7.4L471.1,197
	c-10.5-5.2-15.4-17.4-11.6-28.5C463.6,157.7,475.1,151.3,486.5,153.6L486.5,153.6z"/>
<path class="st0" d="M196.7,111.6l-116.8,206c-4.6,8.2-3.9,18.3,1.9,25.8s15.4,10.6,24.5,8.2s15.8-10.2,17-19.5l30.1-234.9
	c1.2-9.3,7.9-17,17-19.5s18.7,0.7,24.5,8.2C200.6,93.2,201.4,103.4,196.7,111.6z"/>
<path class="st0" d="M252.8,47h229c9.2,0,17.5-5.4,21.3-13.8s2.2-18.2-3.9-25s-15.7-9.4-24.4-6.6L336.3,45.9
	c-7.3,2.3-15.2,0.9-21.3-3.7L267.1,5.3c-8.1-6.2-19.2-6.5-27.5-0.6s-11.9,16.4-8.9,26.1S242.6,47,252.8,47L252.8,47z"/>
<path class="st0" d="M0.7,26.6l46.2,376c1.2,9.5-3.6,18.7-11.9,23.3s-18.7,3.6-26-2.4c-7.4-6.1-10.3-16-7.4-25.1l44.3-138.5
	c2.3-7.3,0.9-15.2-3.7-21.3L5.3,190.7c-6.4-8.4-6.4-20,0-28.4l36.9-47.9c3.1-4.1,4.8-9.1,4.8-14.2V23.8c0-8.7-4.8-16.6-12.5-20.6
	c-7.7-4-16.9-3.5-24.1,1.5C3.4,9.5-0.4,18,0.7,26.6L0.7,26.6z"/>
<path class="st0" d="M572.3,387l47.9,36.9c8.8,6.7,21.1,6.4,29.4-0.8s10.5-19.4,5.1-29s-16.9-14.1-27.4-10.8l-138.5,44.3
	c-12.1,3.9-25.1-2.7-29.2-14.7s2.3-25.1,14.3-29.4l91.8-32.4c9.5-3.4,15.8-12.5,15.5-22.6s-7-18.9-16.7-21.7s-20.1,0.8-25.8,9.2
	s-5.4,19.4,0.8,27.4l36.9,47.9c7.5,9.7,6.1,23.6-3.1,31.7c-9.2,8.1-23.1,7.6-31.8-1s-9.1-22.6-1-31.8
	C548.7,380.8,562.6,379.5,572.3,387L572.3,387z"/>
<path class="st1" d="M687.8,325.5l46-298.2c1.6-10.6-4.1-20.9-14-25s-21.3-1-27.7,7.5L500.5,266.7c-4.9,6.6-13,10.1-21.3,9.2
	c-8.2-0.9-15.3-6.1-18.7-13.7L350.4,14.3c-4-9.1-13.4-14.6-23.2-13.7c-9.9,0.8-18.2,7.9-20.6,17.5s1.5,19.7,9.8,25.2s19.1,5,27-1
	l47.9-37c8.7-6.7,20.9-6.4,29.3,0.7s10.6,19.1,5.4,28.8L232.3,394.4c-4.5,8.4-3.5,18.8,2.7,26.1s16.2,10.1,25.3,7
	c9.1-3.1,15.3-11.4,15.7-21s-5.1-18.4-13.8-22.3L14.3,274c-6.8-3-11.8-9.2-13.3-16.5c-1.5-7.3,0.5-14.9,5.6-20.5l110.7-121.2
	c7.6-8.3,8.1-20.9,1.3-29.9L81.7,38"/>
</svg>
