<svg id="Livello_1" data-name="Livello 1" xmlns="http://www.w3.org/2000/svg" viewBox="0 0 1600 646"><defs><style>.cls-1{fill:blue;fill-rule:evenodd;}</style></defs><path class="cls-1" d="M238,462.38h84.27A29.77,29.77,0,0,1,352,492.15v84.26a29.77,29.77,0,0,1-29.77,29.77H238a29.77,29.77,0,0,1-29.77-29.77V492.15A29.83,29.83,0,0,1,238,462.38Z"/><path class="cls-1" d="M132.62,302.54,48.35,386.81a29.76,29.76,0,0,0,21.06,50.84H322.22a29.82,29.82,0,0,0,21.07-8.71l84.26-84.26h0l84.27-84.27a29.76,29.76,0,0,0-21.06-50.84H406.49a29.85,29.85,0,0,0-21.07,8.7l-42.13,42.14a29.82,29.82,0,1,1-36.18-46.81L505.87,96.36A29.72,29.72,0,0,0,480.22,43L332.75,98.74a30.2,30.2,0,0,1-17.58,1.1l-238.7-58a29.77,29.77,0,0,0-28,50l126.4,126.4a29.81,29.81,0,0,1,0,42.14Z"/><path class="cls-1" d="M568.2,134,652.45,49.7a29.78,29.78,0,0,1,49.81,13.37L729,162.7a29.77,29.77,0,0,0,57.51,0l26.73-99.63A29.79,29.79,0,0,1,842,41h168.48a29.8,29.8,0,0,1,15.11,55.48L826.88,213.7a29.77,29.77,0,0,0,10.89,55.12l176.91,25.27a29.76,29.76,0,0,1,16.85,50.55l-42.12,42.12-42.12,42.12a29.84,29.84,0,0,1-21.06,8.7h-337a29.78,29.78,0,0,1-4.21-59.25L762,353.06a29.79,29.79,0,0,0,0-59L585.05,268.73a29.78,29.78,0,0,1-25.54-29.48V155A29.8,29.8,0,0,1,568.2,134Z"/><path class="cls-1" d="M757.75,462.21H842A29.76,29.76,0,0,1,871.75,492v84.24A29.76,29.76,0,0,1,842,606H757.75A29.75,29.75,0,0,1,728,576.21V492A29.82,29.82,0,0,1,757.75,462.21Z"/><path class="cls-1" d="M1088.49,344.49l84.33,84.33a29.82,29.82,0,0,0,42.16,0l126.49-126.49a29.81,29.81,0,0,1,49.86,13.38l26.77,99.72A29.82,29.82,0,0,0,1468,428.82l84.33-84.33a29.81,29.81,0,0,0-13.39-49.86l-99.72-26.77a29.79,29.79,0,0,1,0-57.56l99.72-26.76A29.82,29.82,0,0,0,1561,154.75V70.43A29.82,29.82,0,0,0,1515.62,45L1293.81,180.24a29.78,29.78,0,0,1-44.27-17.79l-26.86-99.72a29.81,29.81,0,0,0-49.86-13.38l-84.33,84.32a29.82,29.82,0,0,0,13.38,49.87l99.73,26.76a29.79,29.79,0,0,1,0,57.56l-99.73,26.77a29.81,29.81,0,0,0-13.38,49.86Z"/><path class="cls-1" d="M1278.23,462.27h84.32a29.79,29.79,0,0,1,29.79,29.79v84.33a29.79,29.79,0,0,1-29.79,29.79h-84.32a29.79,29.79,0,0,1-29.79-29.79V492.06A29.84,29.84,0,0,1,1278.23,462.27Z"/></svg>