<?xml version="1.0" encoding="utf-8"?>
<!-- Generator: Adobe Illustrator 22.0.1, SVG Export Plug-In . SVG Version: 6.00 Build 0)  -->
<svg version="1.1" id="Livello_1" xmlns="http://www.w3.org/2000/svg" xmlns:xlink="http://www.w3.org/1999/xlink" x="0px" y="0px"
	 viewBox="0 0 286.2 328.8" style="enable-background:new 0 0 286.2 328.8;" xml:space="preserve">
<style type="text/css">
	.st0{fill:#0000FF;}
</style>
<g>
	<path class="st0" d="M2.2,177.9c-4,6.5-2.4,15,3.6,19.7c6,4.7,14.6,4.2,20-1.2l46.7-46.7L53.7,93.4L2.2,177.9z"/>
	<polygon class="st0" points="81.5,238.2 98.4,227.5 90.3,203.1 	"/>
	<path class="st0" d="M43.3,275.5c2,6.5,8,10.9,14.8,10.7c6.8-0.2,12.6-4.8,14.3-11.4l9.1-36.5l-31.8,20.1
		C44,262,41.3,269,43.3,275.5z"/>
	<path class="st0" d="M128.8,318.5c2.3,6.8,9,11.1,16.2,10.2c7.1-0.9,12.6-6.7,13.2-13.9l9.5-131.2l-69.2,43.8L128.8,318.5z"/>
	<path class="st0" d="M68.4,47c-5-4.9-12.6-5.8-18.6-2.1s-8.6,11-6.4,17.6l10.3,30.8l16.9-27.8C74.3,59.6,73.3,52,68.4,47z"/>
	<polygon class="st0" points="103.4,118.8 72.5,149.7 90.3,203.1 110.5,122.3 	"/>
	<path class="st0" d="M241.9,8.3c-2.2-4.3-6.3-7.4-11.1-8.1c-4.8-0.8-9.7,0.8-13.1,4.2L114,108.1l-3.5,14.2l59.5,29.7l0.7-10.1
		c0.5-6.6,5.2-12.2,11.7-13.6s13.2,1.5,16.4,7.3c3.3,5.8,2.4,13-2.2,17.8s-11.8,6.1-17.7,3.1l-9-4.5l-2.3,31.6l111.5-70.5
		c6.5-4.1,8.9-12.6,5.4-19.5L241.9,8.3z"/>
	<path class="st0" d="M115.1,104.1c1.9-7.7-2.4-15.5-9.9-18s-15.7,1.3-18.7,8.6s0.1,15.7,7.2,19.2l9.7,4.9l10.6-10.6L115.1,104.1z"
		/>
</g>
</svg>
