<?xml version="1.0" encoding="utf-8"?>
<!-- Generator: Adobe Illustrator 22.0.1, SVG Export Plug-In . SVG Version: 6.00 Build 0)  -->
<svg version="1.1" id="Livello_1" xmlns="http://www.w3.org/2000/svg" xmlns:xlink="http://www.w3.org/1999/xlink" x="0px" y="0px"
	 viewBox="0 0 532.5 367.9" style="enable-background:new 0 0 532.5 367.9;" xml:space="preserve">
<style type="text/css">
	.st0{fill:#0000FF;}
</style>
<g>
	<polygon class="st0" points="485.1,58 439.8,84.1 461.5,169.2 	"/>
	<polygon class="st0" points="111.3,83.9 139,111.6 147.2,100.7 	"/>
	<path class="st0" d="M199.8,8.1c-4.9-6.8-13.7-9.8-21.7-7.2c-8,2.6-13.5,10.1-13.5,18.5v58.1L199.5,31
		C204.6,24.2,204.7,15,199.8,8.1z"/>
	<polygon class="st0" points="164.6,77.5 147.2,100.7 164.6,108.9 	"/>
	<path class="st0" d="M531.8,14.2c-2.4-8.6-10.4-14.4-19.3-14.1c-8.9,0.3-16.4,6.6-18.3,15.3L485.1,58l37.7-21.7
		C530.6,31.9,534.2,22.8,531.8,14.2z"/>
	<path class="st0" d="M12.2,1.4C5,4.2,0.2,11.1,0,18.8S4.2,33.7,11.2,37l100.1,46.9L33.1,5.7C27.6,0.2,19.4-1.5,12.2,1.4z"/>
	<path class="st0" d="M9.7,331.7c-9.2,5.3-12.4,17-7.2,26.3s16.9,12.6,26.2,7.6l135.9-73.9v-49.2L9.7,331.7z"/>
	<path class="st0" d="M513.5,313.1c9-0.2,16.7-6.5,18.6-15.4c1.9-8.8-2.6-17.8-10.7-21.6l-37.2-17.4l10.1,39.8
		C496.5,307.2,504.5,313.3,513.5,313.1z"/>
	<polygon class="st0" points="91.1,175.5 162.3,134.9 139,111.6 	"/>
	<path class="st0" d="M0.2,241.4c1,7.8,6.7,14.2,14.3,16.2s15.7-0.8,20.4-7.1l56.2-75L9.8,222C3,225.9-0.8,233.6,0.2,241.4z"/>
	<path class="st0" d="M307.6,280.2l82.1,82.1c5,5,12.4,6.9,19.2,4.9s12-7.6,13.5-14.6l23.8-111.7L393.1,216L307.6,280.2z"/>
	<polygon class="st0" points="162.3,134.9 164.6,137.2 164.6,133.6 	"/>
	<polygon class="st0" points="164.6,137.2 164.6,242.5 231.4,204 	"/>
	<path class="st0" d="M439.8,84.1l-17.6-69.4C420.7,8.8,416.6,4,411,1.6c-5.6-2.4-11.9-2-17.2,1L188.3,120l104.2,48.9L439.8,84.1z"
		/>
	<polygon class="st0" points="446.2,240.9 484.2,258.7 461.5,169.2 	"/>
	<path class="st0" d="M164.6,291.7v56.9c0,7.3,4.1,14,10.7,17.3c6.6,3.3,14.4,2.6,20.3-1.8l112-83.9l-42.8-42.8L164.6,291.7z"/>
	<path class="st0" d="M415.1,199.5c8.1-6.1,10.2-17.4,4.7-26c-5.5-8.6-16.7-11.5-25.6-6.6l-49,26.6l47.9,22.5L415.1,199.5z"/>
	<polygon class="st0" points="264.7,237.3 345.2,193.5 292.6,168.9 231.4,204 	"/>
	<polygon class="st0" points="188.3,120 164.6,108.9 164.6,133.6 	"/>
</g>
</svg>
