<?xml version="1.0" encoding="utf-8"?>
<!-- Generator: Adobe Illustrator 22.0.1, SVG Export Plug-In . SVG Version: 6.00 Build 0)  -->
<svg version="1.1" id="Livello_1" xmlns="http://www.w3.org/2000/svg" xmlns:xlink="http://www.w3.org/1999/xlink" x="0px" y="0px"
	 viewBox="0 0 633.1 633.1" style="enable-background:new 0 0 633.1 633.1;" xml:space="preserve">
<style type="text/css">
	.st0{fill:#0000FF;}
</style>
<g>
	<path class="st0" d="M588.3,0H44.8C20.1,0,0,20.1,0,44.8v543.4c0,24.8,20.1,44.8,44.8,44.8h543.4c24.8,0,44.8-20.1,44.8-44.8V135.4
		c0-24.8-20.1-44.8-44.8-44.8H135.4c-24.8,0-44.8,20.1-44.8,44.8v362.3c0,24.8,20.1,44.8,44.8,44.8h362.3
		c24.8,0,44.8-20.1,44.8-44.8V226c0-24.8-20.1-44.8-44.8-44.8H226c-24.8,0-44.8,20.1-44.8,44.8v181.1c0,24.8,20.1,44.8,44.8,44.8
		h181.1c24.8,0,44.8-20.1,44.8-44.8v-90.6c0-24.8-20.1-44.8-44.8-44.8h-90.6c-23.9,0-43.7,18.8-44.8,42.7s16.7,44.5,40.6,46.7
		s45.2-14.6,48.6-38.3l1.8-12.6c3.3-22.9,23.4-39.5,46.5-38.5s41.6,19.6,42.7,42.7s-15.6,43.2-38.5,46.5l-12.6,1.8
		c-19.7,2.8-35.2,18.3-38.1,38.1l-1.8,12.6c-3.1,22.1-22.1,38.5-44.4,38.5s-41.2-16.4-44.4-38.5l-1.8-12.6
		c-2.8-19.7-18.3-35.2-38.1-38.1l-12.6-1.8c-22.1-3.1-38.5-22.1-38.5-44.4s16.4-41.2,38.5-44.4l12.6-1.8
		c19.7-2.8,35.2-18.3,38.1-38.1l1.8-12.6c3.1-22.1,22.1-38.5,44.4-38.5s41.2,16.4,44.4,38.5l1.8,12.6c3.1,22.1,22.1,38.5,44.4,38.5
		s41.2-16.4,44.4-38.5l1.8-12.6c3.3-22.9,23.4-39.5,46.5-38.5c23.1,1.1,41.6,19.6,42.7,42.7s-15.6,43.2-38.5,46.5l-12.6,1.8
		c-22.1,3.1-38.5,22.1-38.5,44.4s16.4,41.2,38.5,44.4l12.6,1.8c22.1,3.1,38.5,22.1,38.5,44.4s-16.4,41.2-38.5,44.4l-12.6,1.8
		c-19.7,2.8-35.2,18.3-38.1,38.1l-1.8,12.6c-3.1,22.1-22.1,38.5-44.4,38.5s-41.2-16.4-44.4-38.5l-1.8-12.6
		c-3.1-22.1-22.1-38.5-44.4-38.5s-41.2,16.4-44.4,38.5l-1.8,12.6c-3.1,22.1-22.1,38.5-44.4,38.5s-41.2-16.4-44.4-38.5l-1.8-12.6
		c-2.8-19.7-18.3-35.2-38.1-38.1l-12.6-1.8c-22.1-3.1-38.5-22.1-38.5-44.4s16.4-41.2,38.5-44.4l12.6-1.8
		c22.1-3.1,38.5-22.1,38.5-44.4s-16.4-41.2-38.5-44.4l-12.6-1.8c-22.1-3.1-38.5-22.1-38.5-44.4s16.4-41.2,38.5-44.4l12.6-1.8
		c19.7-2.8,35.2-18.3,38.1-38.1l1.8-12.6c3.1-22.1,22.1-38.5,44.4-38.5s41.2,16.4,44.4,38.5l1.8,12.6c3.1,22.1,22.1,38.5,44.4,38.5
		s41.2-16.4,44.4-38.5l1.8-12.6c3.1-22.1,22.1-38.5,44.4-38.5s41.2,16.4,44.4,38.5l1.8,12.6c3.1,22.1,22.1,38.5,44.4,38.5
		c22.3,0,41.2-16.4,44.4-38.5l1.8-12.6c3.3-22.9,23.4-39.5,46.5-38.5c23.1,1.1,41.6,19.6,42.7,42.7s-15.6,43.2-38.5,46.5l-12.6,1.8
		c-22.1,3.1-38.5,22.1-38.5,44.4s16.4,41.2,38.5,44.4l12.6,1.8c22.1,3.1,38.5,22.1,38.5,44.4s-16.4,41.2-38.5,44.4l-12.6,1.8
		c-22.1,3.1-38.5,22.1-38.5,44.4s16.4,41.2,38.5,44.4l12.6,1.8c22.1,3.1,38.5,22.1,38.5,44.4c0,22.3-16.4,41.2-38.5,44.4l-12.6,1.8
		c-19.7,2.8-35.2,18.3-38.1,38.1l-1.8,12.6c-3.1,22.1-22.1,38.5-44.4,38.5c-22.3,0-41.2-16.4-44.4-38.5l-1.8-12.6
		c-3.1-22.1-22.1-38.5-44.4-38.5s-41.2,16.4-44.4,38.5l-1.8,12.6c-3.1,22.1-22.1,38.5-44.4,38.5s-41.2-16.4-44.4-38.5l-1.8-12.6
		c-3.1-22.1-22.1-38.5-44.4-38.5s-41.2,16.4-44.4,38.5l-1.8,12.6c-3.1,22.1-22.1,38.5-44.4,38.5S94.2,616.7,91,594.6l-1.8-12.6
		c-2.8-19.7-18.3-35.2-38.1-38.1l-12.6-1.8C16.4,538.9,0,520,0,497.7s16.4-41.2,38.5-44.4l12.6-1.8c22.1-3.1,38.5-22.1,38.5-44.4
		s-16.4-41.2-38.5-44.4l-12.6-1.8C16.4,357.8,0,338.9,0,316.5s16.4-41.2,38.5-44.4l12.6-1.8c22.1-3.1,38.5-22.1,38.5-44.4
		s-16.4-41.2-38.5-44.4l-12.6-1.8C16.4,176.6,0,157.7,0,135.4S16.4,94.2,38.5,91l12.6-1.8c19.7-2.8,35.2-18.3,38.1-38.1L91,38.5
		C94.2,16.4,113.1,0,135.4,0s41.2,16.4,44.4,38.5l1.8,12.6c3.1,22.1,22.1,38.5,44.4,38.5s41.2-16.4,44.4-38.5l1.8-12.6
		C275.3,16.4,294.2,0,316.5,0s41.2,16.4,44.4,38.5l1.8,12.6c3.1,22.1,22.1,38.5,44.4,38.5s41.2-16.4,44.4-38.5l1.8-12.6
		C456.5,16.4,475.4,0,497.7,0c22.3,0,41.2,16.4,44.4,38.5l1.8,12.6c3.4,23.7,24.8,40.6,48.6,38.3s41.7-22.8,40.6-46.7
		S612.2,0,588.3,0L588.3,0z"/>
</g>
</svg>
