<?xml version="1.0" encoding="utf-8"?>
<!-- Generator: Adobe Illustrator 22.0.1, SVG Export Plug-In . SVG Version: 6.00 Build 0)  -->
<svg version="1.1" id="Livello_1" xmlns="http://www.w3.org/2000/svg" xmlns:xlink="http://www.w3.org/1999/xlink" x="0px" y="0px"
	 viewBox="0 0 790.5 414.3" style="enable-background:new 0 0 790.5 414.3;" xml:space="preserve">
<style type="text/css">
	.st0{fill:#0000FF;}
</style>
<g>
	<path class="st0" d="M53.8,18.3L38,396.1c-0.3,7.2-4.7,13.7-11.3,16.6s-14.3,1.8-19.9-2.8s-8-12.1-6.2-19.1L91.2,23.7
		c1.7-7-0.7-14.4-6.2-19.1S71.7-1.2,65.1,1.8S54.1,11,53.8,18.3L53.8,18.3z"/>
	<path class="st0" d="M199.3,18.3l15.8,377.8c0.3,7.2,4.7,13.7,11.3,16.6c6.6,2.9,14.3,1.8,19.9-2.8s8-12.1,6.2-19.1L161.9,23.6
		c-1.7-7,0.7-14.4,6.2-19.1s13.3-5.8,19.9-2.8S199,11,199.3,18.3L199.3,18.3z"/>
	<path class="st0" d="M113.1,32.5L140,59.4c7.4,7.4,7.4,19.5,0,26.9s-19.5,7.4-26.9,0s-7.4-19.5,0-26.9L140,32.5
		c7.4-7.4,7.4-19.5,0-26.9s-19.5-7.4-26.9,0S105.7,25.1,113.1,32.5z"/>
	<path class="st0" d="M72.8,215.1h107.5c10.5,0,19,8.5,19,19s-8.5,19-19,19H72.8c-10.5,0-19-8.5-19-19S62.3,215.1,72.8,215.1
		L72.8,215.1z"/>
	<path class="st0" d="M306.7,21l-37.8,372.4c-0.7,7.2,2.7,14.2,8.9,18c6.2,3.8,14,3.8,20.1,0c6.2-3.8,9.6-10.8,8.9-18L268.9,21
		c-0.7-7.2,2.7-14.2,8.9-18c6.2-3.8,14-3.8,20.1,0C304,6.8,307.5,13.8,306.7,21L306.7,21z"/>
	<path class="st0" d="M341.6,0.1h53.8c10.5,0,19,8.5,19,19s-8.5,19-19,19h-53.8c-10.5,0-19-8.5-19-19S331.1,0.1,341.6,0.1z"/>
	<path class="st0" d="M435.6,86.3l26.9,26.9c7.4,7.4,7.4,19.5,0,26.9s-19.5,7.4-26.9,0s-7.4-19.5,0-26.9l26.9-26.9
		c7.4-7.4,7.4-19.5,0-26.9s-19.5-7.4-26.9,0S428.2,78.8,435.6,86.3z"/>
	<path class="st0" d="M341.6,161.3h53.8c10.5,0,19,8.5,19,19s-8.5,19-19,19h-53.8c-10.5,0-19-8.5-19-19S331.1,161.3,341.6,161.3z"/>
	<path class="st0" d="M341.6,376.3h107.5c10.5,0,19,8.5,19,19s-8.5,19-19,19H341.6c-10.5,0-19-8.5-19-19S331.1,376.3,341.6,376.3z"
		/>
	<path class="st0" d="M483.9,343.4L468,178.5c-0.8-7.8-6.2-14.3-13.7-16.5c-7.5-2.1-15.6,0.5-20.3,6.8s-5.2,14.7-1.1,21.4
		l86.2,141.5c4.1,6.7,3.6,15.2-1.1,21.4c-4.7,6.2-12.8,8.9-20.3,6.8C490.1,357.7,484.7,351.2,483.9,343.4z"/>
	<path class="st0" d="M538.1,131.1L575,283.4c1.9,7.7-1.2,15.7-7.7,20.1c-6.5,4.5-15.1,4.5-21.6,0s-9.5-12.5-7.7-20.1l36.9-152.3
		c1.9-7.7-1.2-15.7-7.7-20.1c-6.5-4.5-15.1-4.5-21.6,0S536.3,123.4,538.1,131.1z"/>
	<path class="st0" d="M551.7,54.5l63.6-17c8.9-2.4,14.8-10.8,14-20S621.2,0.9,612,0.1s-17.6,5.1-20,14l-17,63.6
		c-2.4,8.9-10.8,14.8-20,14s-16.5-8.1-17.3-17.3S542.7,56.9,551.7,54.5L551.7,54.5z"/>
	<path class="st0" d="M664.1,0.1h53.8c10.5,0,19,8.5,19,19s-8.5,19-19,19h-53.8c-10.5,0-19-8.5-19-19S653.6,0.1,664.1,0.1z"/>
	<path class="st0" d="M551.7,359.9l63.6,17c8.9,2.4,14.8,10.8,14,20s-8.1,16.5-17.3,17.3s-17.6-5.1-20-14l-17-63.6
		c-2.4-8.9-10.8-14.8-20-14s-16.5,8.1-17.3,17.3C536.8,349.1,542.7,357.5,551.7,359.9L551.7,359.9z"/>
	<path class="st0" d="M664.1,376.3h53.8c10.5,0,19,8.5,19,19s-8.5,19-19,19h-53.8c-10.5,0-19-8.5-19-19S653.6,376.3,664.1,376.3z"/>
	<path class="st0" d="M758.1,32.5L785,59.4c7.4,7.4,7.4,19.5,0,26.9s-19.5,7.4-26.9,0s-7.4-19.5,0-26.9L785,32.5
		c7.4-7.4,7.4-19.5,0-26.9s-19.5-7.4-26.9,0C750.7,13.1,750.7,25.1,758.1,32.5z"/>
	<path class="st0" d="M758.1,381.9L785,355c7.4-7.4,7.4-19.5,0-26.9s-19.5-7.4-26.9,0s-7.4,19.5,0,26.9l26.9,26.9
		c7.4,7.4,7.4,19.5,0,26.9s-19.5,7.4-26.9,0C750.7,401.3,750.7,389.3,758.1,381.9z"/>
</g>
</svg>
