<?xml version="1.0" encoding="utf-8"?>
<!-- Generator: Adobe Illustrator 22.0.1, SVG Export Plug-In . SVG Version: 6.00 Build 0)  -->
<svg version="1.1" id="Livello_1" xmlns="http://www.w3.org/2000/svg" xmlns:xlink="http://www.w3.org/1999/xlink" x="0px" y="0px"
	 viewBox="0 0 483.4 384.9" style="enable-background:new 0 0 483.4 384.9;" xml:space="preserve">
<style type="text/css">
	.st0{fill:#0000FF;}
</style>
<path class="st0" d="M2.1,5l64,9.1c0.9,0.1,1.7,0.8,2,1.7c0.3,0.9,0.1,1.9-0.6,2.5L32.4,53.5c-0.5,0.5-1.3,0.8-2,0.7
	c-0.7-0.1-1.4-0.5-1.8-1.1L0.4,10.9c-0.7-1-0.5-2.3,0.3-3.1l3.5-3.5c0.8-0.8,1-2.1,0.4-3.1S2.8-0.2,1.7,0.1C0.6,0.5-0.1,1.6,0,2.7
	S1,4.8,2.1,5L2.1,5z"/>
<path class="st0" d="M78.1,14.8L35.9,57c-0.8,0.8-1,2.2-0.3,3.1c0.7,1,1.9,1.4,3,0.9c1.1-0.5,1.7-1.6,1.5-2.8s-1.3-2-2.4-2H2.5
	c-1.4,0-2.5,1.1-2.5,2.5v14.1c0,1.4,1.1,2.5,2.5,2.5h35.2c0.7,0,1.3-0.3,1.8-0.7l49.3-49.3c1-1,1-2.5,0-3.5l-7-7
	C80.7,13.8,79.1,13.8,78.1,14.8z"/>
<path class="st0" d="M91.5,2.5v77.4c0,1,0.6,1.9,1.5,2.3c0.9,0.4,2,0.2,2.7-0.5l14.1-14.1c1-1,1-2.5,0-3.5L99.2,53.5
	c-1-1-1-2.5,0-3.5l10.6-10.6c0.6-0.6,0.9-1.6,0.6-2.5s-1-1.5-1.9-1.7c-0.9-0.2-1.8,0.1-2.4,0.8L67.7,81.5c-0.6,0.7-1.5,1-2.4,0.8
	s-1.6-0.8-1.9-1.6c-0.3-0.8-0.1-1.8,0.5-2.5l46-53c0.7-0.8,0.8-1.8,0.3-2.7l-7-14.1c-0.1-0.2-0.3-0.5-0.5-0.6l-7-7
	C95,0,93.9-0.2,93,0.2C92.1,0.6,91.5,1.5,91.5,2.5z"/>
<path class="st0" d="M119.6,2.5v77.4c0,1.4,1.1,2.5,2.5,2.5h35.2c1.4,0,2.5-1.1,2.5-2.5V2.5c0-1.3-1-2.3-2.2-2.5
	c-1.3-0.1-2.4,0.7-2.7,2l-14.1,70.4c-0.2,1,0.3,2.1,1.2,2.6s2,0.5,2.9-0.2c0.8-0.7,1.1-1.8,0.8-2.8c-0.4-1-1.3-1.7-2.3-1.7h-7
	c-1.1,0-2,0.7-2.3,1.7s0,2.1,0.8,2.8c0.8,0.7,2,0.7,2.9,0.2c0.9-0.5,1.4-1.6,1.2-2.6L124.5,2c-0.3-1.3-1.4-2.1-2.7-2
	C120.6,0.1,119.6,1.2,119.6,2.5L119.6,2.5z"/>
<path class="st0" d="M2.6,96.4l154.6-5c0.9,0,1.8,0.4,2.2,1.2s0.5,1.8,0,2.5s-1.3,1.2-2.2,1.2l-154.6-5c-0.9,0-1.8,0.4-2.2,1.2
	s-0.5,1.8,0,2.5S1.7,96.5,2.6,96.4z"/>
<path class="st0" d="M78,99.4l-49.3,56.3c-0.6,0.7-0.8,1.8-0.4,2.7s1.3,1.5,2.3,1.5h98.5c0.9,0,1.8-0.5,2.2-1.4
	c0.4-0.8,0.3-1.9-0.2-2.6L88.9,99.5c-0.6-0.8-1.6-1.2-2.6-0.9c-1,0.2-1.7,1.1-1.8,2.1l-7,49.3c-0.1,0.9,0.3,1.8,1,2.4
	s1.8,0.6,2.6,0.2s1.3-1.3,1.3-2.2V101c0-1-0.6-2-1.6-2.3S78.7,98.6,78,99.4z"/>
<path class="st0" d="M65.8,105.5H16.6c-1,0-2,0.6-2.3,1.6s-0.1,2.1,0.7,2.7l63.3,56.3c0.9,0.8,2.4,0.8,3.3,0l63.3-56.3
	c0.8-0.7,1-1.8,0.7-2.7s-1.3-1.6-2.3-1.6H65.8L65.8,105.5z"/>
<path class="st0" d="M21.1,178.4v91.5c0,1.4,1.1,2.5,2.5,2.5h56.3c0.9,0,1.7-0.5,2.2-1.3s0.4-1.7,0-2.5l-53.5-88.9
	c-0.5-0.8-0.5-1.7,0-2.5c0.4-0.8,1.3-1.3,2.2-1.3h98.5c0.8,0,1.6,0.4,2.1,1.1c0.5,0.7,0.5,1.6,0.2,2.4l-39.7,89.5
	c-0.3,0.8-0.3,1.7,0.2,2.4c0.5,0.7,1.2,1.1,2.1,1.1h42.2c1.4,0,2.5-1.1,2.5-2.5v-91.5c0-1.4-1.1-2.5-2.5-2.5H23.6
	C22.2,175.9,21.1,177,21.1,178.4L21.1,178.4z"/>
<path class="st0" d="M59.1,194.9l41.6-4.9c1-0.1,1.9,0.3,2.4,1.1s0.5,1.8,0,2.7c-0.5,0.8-1.4,1.3-2.4,1.1L59.1,190
	c-1-0.1-1.9,0.3-2.4,1.1s-0.5,1.8,0,2.7C57.2,194.6,58.1,195.1,59.1,194.9z"/>
<path class="st0" d="M2.5,328.6h365.9c1.4,0,2.5-1.1,2.5-2.5V2.5c0-1.4-1.1-2.5-2.5-2.5H192.5c-1.4,0-2.5,1.1-2.5,2.4l-7,288.5
	c0,1,0.6,1.9,1.5,2.3c0.9,0.4,2,0.2,2.7-0.5c0.7-0.7,0.9-1.8,0.6-2.7s-1.3-1.5-2.3-1.5H2.5c-1.4,0-2.5,1.1-2.5,2.5v35.2
	C0,327.5,1.1,328.6,2.5,328.6L2.5,328.6z"/>
<path class="st0" d="M7.5,341.6l28.1,42.2c0.7,1,1.9,1.4,3,0.9l98.5-42.2c1.1-0.5,1.7-1.8,1.4-2.9s-1.5-2-2.7-1.8
	c-1.2,0.2-2.2,1.2-2.2,2.5v42.2c0,1.4,1.1,2.5,2.5,2.5h7c1.4,0,2.5-1.1,2.5-2.5v-42.2c0-1.4-1.1-2.5-2.5-2.5H9.5
	c-0.9,0-1.8,0.5-2.2,1.3C6.9,339.9,6.9,340.9,7.5,341.6z"/>
<path class="st0" d="M154.8,340.2v42.2c0,1,0.7,2,1.6,2.3c1,0.4,2.1,0.1,2.8-0.7l35.2-42.2c0.6-0.7,0.8-1.8,0.3-2.6
	s-1.3-1.4-2.3-1.4h-35.2C155.9,337.7,154.8,338.9,154.8,340.2L154.8,340.2z"/>
<path class="st0" d="M204.1,340.2v42.2c0,1.4,1.1,2.5,2.5,2.5h21.1c1.2,0,2.2-0.8,2.4-1.9s-0.3-2.3-1.3-2.8l-14.1-7
	c-1.2-0.6-2.6-0.2-3.3,1s-0.3,2.6,0.8,3.3c1.1,0.7,2.6,0.5,3.4-0.6l21.1-28.1c0.3-0.4,0.5-1,0.5-1.5v-7c0-1-0.6-1.9-1.5-2.3
	c-0.9-0.4-2-0.2-2.7,0.5l-14.1,14.1c-0.8,0.8-1,2.2-0.3,3.1s1.9,1.4,3,0.9s1.7-1.6,1.5-2.8s-1.3-2-2.4-2h-7c-1.4,0-2.5,1.1-2.5,2.5
	s1.1,2.5,2.5,2.5s2.5-1.1,2.5-2.5v-14.1c0-1.4-1.1-2.5-2.5-2.5h-7C205.2,337.7,204.1,338.9,204.1,340.2L204.1,340.2z"/>
<path class="st0" d="M175.9,375.4v7c0,1.4,1.1,2.5,2.5,2.5h14.1c1.4,0,2.5-1.1,2.5-2.5v-7c0-1.4-1.1-2.5-2.5-2.5h-14.1
	C177,372.9,175.9,374,175.9,375.4L175.9,375.4z"/>
<path class="st0" d="M307.5,382.5v-42.2c0-1.4-1.1-2.5-2.5-2.5h-42.2c-1.2,0-2.2,0.8-2.4,2c-0.2,1.2,0.4,2.3,1.5,2.8l105.5,42.2
	c0.8,0.3,1.6,0.2,2.3-0.2s1.1-1.2,1.1-2.1v-42.2c0-0.8-0.4-1.6-1.1-2.1c-0.7-0.5-1.6-0.6-2.3-0.2l-105.5,42.2
	c-0.9,0.4-1.5,1.2-1.6,2.2c0,1,0.5,1.9,1.4,2.3c0.9,0.4,2,0.3,2.7-0.4l53-46c0.7-0.6,1.8-0.8,2.7-0.4c0.9,0.4,1.5,1.3,1.5,2.3v42.2
	c0,0.8-0.4,1.6-1.1,2c-0.7,0.5-1.5,0.6-2.3,0.3l-12.3-4.7c-1-0.4-2.2-0.1-2.8,0.8c-0.7,0.9-0.7,2.1-0.1,2.9s1.7,1.3,2.8,1
	S307.5,383.5,307.5,382.5L307.5,382.5z"/>
<path class="st0" d="M246.3,354.3v-14.1c0-1.4,1.1-2.5,2.5-2.5h126.7c1.4,0,2.5,1.1,2.5,2.5v42.2c0,1.4-1.1,2.5-2.5,2.5H248.8
	c-1.4,0-2.5-1.1-2.5-2.5V354.3z"/>
<path class="st0" d="M479.3,0.7l-98.5,91.5c-0.7,0.7-1,1.8-0.6,2.7s1.3,1.6,2.3,1.6h77.4c1.1,0,2-0.7,2.4-1.7c0.3-1,0-2.1-0.9-2.8
	c-0.9-0.6-2.1-0.6-2.9,0L381,148.2c-0.9,0.6-1.2,1.8-0.9,2.8c0.3,1,1.3,1.7,2.4,1.7h77.4c1.1,0,2-0.7,2.4-1.7c0.3-1,0-2.1-0.9-2.8
	c-0.9-0.6-2.1-0.6-2.9,0L381,204.5c-0.9,0.6-1.2,1.8-0.9,2.8c0.3,1,1.3,1.7,2.4,1.7H481c1.4,0,2.5-1.1,2.5-2.5V2.5
	c0-1-0.6-1.9-1.5-2.3S480,0,479.3,0.7L479.3,0.7z"/>
<path class="st0" d="M415.3,235.7l63.3,147.8c0.5,1.1,1.6,1.7,2.8,1.5c1.2-0.2,2-1.3,2-2.4V234.7c0-1.4-1.1-2.5-2.5-2.5h-98.5
	c-0.7,0-1.3,0.3-1.8,0.8c-0.5,0.5-0.7,1.2-0.7,1.8l7,147.8c0,1,0.7,1.8,1.6,2.2c0.9,0.4,2,0.1,2.7-0.6l3.5-3.5
	c0.8-0.8,2.2-1,3.1-0.3s1.4,1.9,0.9,3c-0.5,1.1-1.6,1.7-2.8,1.5s-2-1.3-2-2.4V241.7c0-0.7,0.3-1.3,0.8-1.8c0.5-0.5,1.2-0.7,1.9-0.7
	l77.1,5c1.3,0.1,2.5-0.9,2.6-2.2c0.1-1.3-0.8-2.5-2.2-2.7l-56.3-7c-0.9-0.1-1.8,0.3-2.3,1S415,234.8,415.3,235.7L415.3,235.7z"/>
<path class="st0" d="M380,2.5v21.1c0,0.8,0.4,1.5,1,2s1.4,0.6,2.2,0.4l77.4-21.1c1.2-0.3,2-1.5,1.8-2.7S461.1,0,459.9,0h-77.4
	C381.1,0,380,1.1,380,2.5z"/>
<path class="st0" d="M420.1,368.4v-28.1c0-1-0.6-1.9-1.6-2.3s-2-0.2-2.7,0.6c-0.7,0.7-0.9,1.8-0.5,2.7l11.6,26.1
	c0.3,0.8,0.3,1.7-0.2,2.4s-1.2,1.1-2.1,1.1h-14.1c-1.1,0-2.1-0.7-2.4-1.7c-0.3-1,0.1-2.2,1-2.8c0.9-0.6,2.1-0.6,2.9,0.1
	s1.2,1.8,0.8,2.8l-4.7,12.3c-0.3,0.8-0.2,1.6,0.3,2.3c0.5,0.7,1.2,1.1,2,1.1h14.1c0.9,0,1.7-0.4,2.1-1.2c0.5-0.7,0.5-1.6,0.1-2.4
	l-7-14.1c-0.6-1.1-1.9-1.7-3.1-1.2c-1.2,0.4-1.9,1.7-1.6,2.9s1.5,2,2.7,1.9S420.1,369.6,420.1,368.4L420.1,368.4z"/>
</svg>
