<?xml version="1.0" encoding="utf-8"?>
<!-- Generator: Adobe Illustrator 22.0.1, SVG Export Plug-In . SVG Version: 6.00 Build 0)  -->
<svg version="1.1" id="Livello_1" xmlns="http://www.w3.org/2000/svg" xmlns:xlink="http://www.w3.org/1999/xlink" x="0px" y="0px"
	 viewBox="0 0 645.2 442.1" style="enable-background:new 0 0 645.2 442.1;" xml:space="preserve">
<style type="text/css">
	.st0{fill:#0000FF;}
</style>
<g>
	<path class="st0" d="M70.3,86.6C79,85.9,85.9,79,86.6,70.3c0.8-8.7-4.8-16.7-13.2-18.9l-30-8l8,30C53.6,81.8,61.6,87.4,70.3,86.6z"
		/>
	<path class="st0" d="M16.4,0.1C7.7,0.8,0.8,7.7,0.1,16.4S4.9,33,13.3,35.3l30,8l-8-30C33,4.9,25.1-0.7,16.4,0.1z"/>
	<path class="st0" d="M0.1,70.3C0.8,79,7.7,85.9,16.4,86.6c8.7,0.8,16.7-4.8,18.9-13.2l8-30l-30,8C4.9,53.6-0.7,61.6,0.1,70.3z"/>
	<path class="st0" d="M86.6,16.4C85.9,7.7,79,0.8,70.3,0.1c-8.7-0.8-16.7,4.8-18.9,13.2l-8,30l30-8C81.8,33,87.4,25.1,86.6,16.4z"/>
	<path class="st0" d="M101.6,171.9c0.8,8.7,7.6,15.6,16.3,16.3c8.7,0.8,16.7-4.8,18.9-13.2v0l8-30l-30,8
		C106.4,155.2,100.9,163.2,101.6,171.9z"/>
	<path class="st0" d="M174.9,136.8c8.4-2.3,14-10.2,13.2-18.9c-0.8-8.7-7.6-15.6-16.3-16.3c-8.7-0.8-16.7,4.8-18.9,13.2l-8,30l0,0
		L174.9,136.8z"/>
	<path class="st0" d="M171.9,188.2c8.7-0.8,15.6-7.6,16.3-16.3s-4.8-16.7-13.2-18.9l-30-8l8,30C155.2,183.3,163.2,188.9,171.9,188.2
		z"/>
	<path class="st0" d="M136.8,114.9c-2.3-8.4-10.2-14-18.9-13.2c-8.7,0.8-15.6,7.6-16.3,16.3c-0.8,8.7,4.8,16.7,13.2,18.9l30,8l0,0
		L136.8,114.9z"/>
	<rect x="246.5" y="246.5" class="st0" width="0" height="0"/>
	<path class="st0" d="M276.5,254.5l-30-8l8,30c2.3,8.4,10.2,14,18.9,13.2s15.6-7.6,16.3-16.3C290.5,264.7,284.9,256.8,276.5,254.5z"
		/>
	<path class="st0" d="M246.5,246.5l-8-30c-2.3-8.4-10.2-14-18.9-13.2c-8.7,0.8-15.6,7.6-16.3,16.3c-0.8,8.7,4.8,16.7,13.2,18.9h0
		L246.5,246.5L246.5,246.5L246.5,246.5z"/>
	<path class="st0" d="M216.4,254.5c-8.4,2.3-14,10.2-13.2,18.9c0.8,8.7,7.6,15.6,16.3,16.3s16.7-4.8,18.9-13.2h0l8-30h0L216.4,254.5
		z"/>
	<path class="st0" d="M276.5,238.4c8.4-2.3,14-10.2,13.2-18.9c-0.8-8.7-7.6-15.6-16.3-16.3c-8.7-0.8-16.7,4.8-18.9,13.2l-8,30v0
		L276.5,238.4z"/>
	<path class="st0" d="M18,239h50.8c9.9,0,18-8,18-18v-50.8c0-9.9-8-18-18-18H18c-9.9,0-18,8-18,18v50.8C0,231,8,239,18,239z"/>
	<path class="st0" d="M101.6,322.6c0,9.9,8,18,18,18h50.8c9.9,0,18-8,18-18v-50.8c0-9.9-8-18-18-18h-50.8c-9.9,0-18,8-18,18V322.6z"
		/>
	<path class="st0" d="M119.5,239h50.8c9.9,0,18-8,18-18s-8-18-18-18h-50.8c-9.9,0-18,8-18,18C101.6,231,109.6,239,119.5,239z"/>
	<path class="st0" d="M68.7,101.6H18c-9.9,0-18,8-18,18s8,18,18,18h50.8c9.9,0,18-8,18-18S78.6,101.6,68.7,101.6z"/>
	<path class="st0" d="M271.8,304.7h-50.8c-9.9,0-18,8-18,18s8,18,18,18h50.8c9.9,0,18-8,18-18S281.8,304.7,271.8,304.7z"/>
	<polygon class="st0" points="348,348 348,348 348,348 348,348 	"/>
	<path class="st0" d="M378,356.1l-30-8l8,30c2.3,8.4,10.2,14,18.9,13.2s15.6-7.6,16.3-16.3C392,366.3,386.5,358.3,378,356.1z"/>
	<path class="st0" d="M348,348l-8-30c-2.3-8.4-10.2-14-18.9-13.2s-15.6,7.6-16.3,16.3c-0.8,8.7,4.8,16.7,13.2,18.9h0L348,348
		L348,348L348,348z"/>
	<path class="st0" d="M318,356.1c-8.4,2.3-14,10.2-13.2,18.9c0.8,8.7,7.6,15.6,16.3,16.3s16.7-4.8,18.9-13.2h0l8-30h0L318,356.1z"/>
	<path class="st0" d="M378,340c8.4-2.3,14-10.2,13.2-18.9c-0.8-8.7-7.6-15.6-16.3-16.3s-16.7,4.8-18.9,13.2l-8,30v0L378,340z"/>
	<path class="st0" d="M373.4,406.2h-50.8c-9.9,0-18,8-18,18s8,18,18,18h50.8c9.9,0,18-8,18-18S383.3,406.2,373.4,406.2z"/>
	<path class="st0" d="M271.8,355.4h-50.8c-9.9,0-18,8-18,18v50.8c0,9.9,8,18,18,18h50.8c9.9,0,18-8,18-18v-50.8
		C289.8,363.5,281.8,355.4,271.8,355.4z"/>
	<path class="st0" d="M322.6,188.2h-18v83.6c0,9.9,8,18,18,18s18-8,18-18V170.3C340.6,180.2,332.5,188.2,322.6,188.2z"/>
	<path class="st0" d="M221.1,188.2h83.6v-18c0-9.9,8-18,18-18h-50.8H239v18C239,180.2,231,188.2,221.1,188.2z"/>
	<path class="st0" d="M340.6,170.3c0-3.7-1.1-7.2-3.1-10C339.4,163.1,340.6,166.6,340.6,170.3L340.6,170.3z"/>
	<path class="st0" d="M337.5,160.2c-1.3-1.9-2.9-3.6-4.8-4.8C334.6,156.7,336.2,158.3,337.5,160.2z"/>
	<path class="st0" d="M221.1,86.7h-18v83.6c0-9.9,8-18,18-18h18v-32.8V68.7C239,78.6,231,86.7,221.1,86.7z"/>
	<path class="st0" d="M119.5,86.7h83.6v-18c0-9.9,8-18,18-18h-83.6v18C137.5,78.6,129.4,86.7,119.5,86.7z"/>
	<path class="st0" d="M119.5,50.8h18V18c0-9.9-8-18-18-18s-18,8-18,18v50.8C101.6,58.8,109.6,50.8,119.5,50.8z"/>
	<path class="st0" d="M424.2,289.8h-18v134.4c0,9.9,8,18,18,18s18-8,18-18V271.8C442.1,281.8,434.1,289.8,424.2,289.8z"/>
	<path class="st0" d="M442.1,271.8L442.1,271.8c0-3.7-1.1-7.2-3.1-10C441,264.7,442.1,268.1,442.1,271.8z"/>
	<path class="st0" d="M424.2,253.9h-50.8c-9.9,0-18,8-18,18s8,18,18,18h32.8v-18C406.2,261.9,414.3,253.9,424.2,253.9z"/>
	<path class="st0" d="M439.1,261.8c-1.3-1.9-2.9-3.6-4.8-4.8C436.1,258.2,437.8,259.9,439.1,261.8z"/>
	<path class="st0" d="M86.6,371.8c-0.8-8.7-7.6-15.6-16.3-16.3c-8.7-0.8-16.7,4.8-18.9,13.2l-8,30l30-8
		C81.8,388.5,87.4,380.5,86.6,371.8z"/>
	<path class="st0" d="M13.3,406.8c-8.4,2.3-14,10.2-13.2,18.9c0.8,8.7,7.6,15.6,16.3,16.3c8.7,0.8,16.7-4.8,18.9-13.2l8-30
		L13.3,406.8z"/>
	<path class="st0" d="M86.6,321.1c-0.8-8.7-7.6-15.6-16.3-16.3c-8.7-0.8-16.7,4.8-18.9,13.2l-8,30l30-8
		C81.8,337.7,87.4,329.7,86.6,321.1z"/>
	<path class="st0" d="M16.4,391.3c8.7,0.8,16.7-4.8,18.9-13.2l8-30l-30,8c-8.4,2.3-14,10.2-13.2,18.9
		C0.8,383.6,7.7,390.5,16.4,391.3z"/>
	<path class="st0" d="M86.6,270.3c-0.8-8.7-7.6-15.6-16.3-16.3c-8.7-0.8-16.7,4.8-18.9,13.2l-8,30l30-8
		C81.8,286.9,87.4,279,86.6,270.3z"/>
	<path class="st0" d="M16.4,340.5c8.7,0.8,16.7-4.8,18.9-13.2l8-30l-30,8c-8.4,2.3-14,10.2-13.2,18.9
		C0.8,332.9,7.7,339.7,16.4,340.5z"/>
	<path class="st0" d="M137.4,371.8c-0.8-8.7-7.6-15.6-16.3-16.3c-8.7-0.8-16.7,4.8-18.9,13.2l-8,30l30-8
		C132.6,388.5,138.2,380.5,137.4,371.8z"/>
	<path class="st0" d="M64.1,406.8c-8.4,2.3-14,10.2-13.2,18.9c0.8,8.7,7.6,15.6,16.3,16.3c8.7,0.8,16.7-4.8,18.9-13.2l8-30
		L64.1,406.8z"/>
	<path class="st0" d="M171.9,355.5c-8.7-0.8-16.7,4.8-18.9,13.2l-8,30l30-8c8.4-2.3,14-10.2,13.2-18.9
		C187.4,363.2,180.5,356.3,171.9,355.5z"/>
	<path class="st0" d="M101.6,425.7c0.8,8.7,7.6,15.6,16.3,16.3c8.7,0.8,16.7-4.8,18.9-13.2l8-30l-30,8
		C106.4,409.1,100.9,417.1,101.6,425.7z"/>
	<path class="st0" d="M627.3,0H424.2H170.3c-9.9,0-18,8-18,18s8,18,18,18h439V18C609.3,8,617.4,0,627.3,0z"/>
	<path class="st0" d="M627.3,35.9h-18v388.3c0,9.9,8,18,18,18s18-8,18-18V18C645.2,27.9,637.2,35.9,627.3,35.9z"/>
	<path class="st0" d="M270.3,50.8c-8.7,0.8-15.6,7.6-16.3,16.3c-0.8,8.7,4.8,16.7,13.2,18.9h0l30,8l-8-30
		C286.9,55.7,279,50.1,270.3,50.8z"/>
	<path class="st0" d="M324.2,137.4c8.7-0.8,15.6-7.6,16.3-16.3s-4.8-16.7-13.2-18.9l-30-8l8,30C307.5,132.6,315.5,138.2,324.2,137.4
		z"/>
	<path class="st0" d="M340.5,67.2c-0.8-8.7-7.6-15.6-16.3-16.3c-8.7-0.8-16.7,4.8-18.9,13.2l-8,30l30-8
		C335.7,83.8,341.3,75.8,340.5,67.2z"/>
	<path class="st0" d="M254,121.1c0.8,8.7,7.6,15.6,16.3,16.3s16.7-4.8,18.9-13.2h0l8-30l-30,8C258.8,104.4,253.2,112.4,254,121.1z"
		/>
	<polygon class="st0" points="398.8,195.7 398.8,195.7 398.8,195.7 	"/>
	<path class="st0" d="M390.7,165.6L390.7,165.6c-2.3-8.4-10.2-14-18.9-13.2s-15.6,7.6-16.3,16.3s4.8,16.7,13.2,18.9l30,8h0
		L390.7,165.6z"/>
	<path class="st0" d="M425.7,238.9c8.7-0.8,15.6-7.6,16.3-16.3c0.8-8.7-4.8-16.7-13.2-18.9l-30-8l8,30
		C409.1,234.1,417.1,239.7,425.7,238.9z"/>
	<path class="st0" d="M442.1,168.7c-0.8-8.7-7.6-15.6-16.3-16.3c-8.7-0.8-16.7,4.8-18.9,13.2l-8,30l30-8
		C437.2,185.4,442.8,177.4,442.1,168.7z"/>
	<path class="st0" d="M368.8,203.7c-8.4,2.3-14,10.2-13.2,18.9s7.6,15.6,16.3,16.3c8.7,0.8,16.7-4.8,18.9-13.2l0,0l8-30l0,0
		L368.8,203.7z"/>
	<path class="st0" d="M492.3,267.2c-2.3-8.4-10.2-14-18.9-13.2s-15.6,7.6-16.3,16.3c-0.8,8.7,4.8,16.7,13.2,18.9h0l30,8l0,0
		L492.3,267.2z"/>
	<path class="st0" d="M527.3,340.5c8.7-0.8,15.6-7.6,16.3-16.3c0.8-8.7-4.8-16.7-13.2-18.9l-30-8l8,30
		C510.6,335.7,518.6,341.3,527.3,340.5z"/>
	<path class="st0" d="M470.3,305.3c-8.4,2.3-14,10.2-13.2,18.9c0.8,8.7,7.6,15.6,16.3,16.3s16.7-4.8,18.9-13.2h0l8-30l0,0
		L470.3,305.3z"/>
	<path class="st0" d="M543.6,270.3c-0.8-8.7-7.6-15.6-16.3-16.3c-8.7-0.8-16.7,4.8-18.9,13.2l-8,30l30-8
		C538.8,286.9,544.4,279,543.6,270.3z"/>
	<path class="st0" d="M527.3,442.1c8.7-0.8,15.6-7.6,16.3-16.3c0.8-8.7-4.8-16.7-13.2-18.9l-30-8l8,30
		C510.6,437.2,518.6,442.8,527.3,442.1z"/>
	<path class="st0" d="M492.3,368.8c-2.3-8.4-10.2-14-18.9-13.2s-15.6,7.6-16.3,16.3c-0.8,8.7,4.8,16.7,13.2,18.9l30,8L492.3,368.8
		L492.3,368.8z"/>
	<path class="st0" d="M457.1,425.7c0.8,8.7,7.6,15.6,16.3,16.3s16.7-4.8,18.9-13.2h0l8-30l-30,8
		C461.9,409.1,456.3,417.1,457.1,425.7z"/>
	<path class="st0" d="M543.6,371.8c-0.8-8.7-7.6-15.6-16.3-16.3c-8.7-0.8-16.7,4.8-18.9,13.2l-8,30l30-8
		C538.8,388.5,544.4,380.5,543.6,371.8z"/>
	<path class="st0" d="M543.6,168.7c-0.8-8.7-7.6-15.6-16.3-16.3c-8.7-0.8-16.7,4.8-18.9,13.2l-8,30l30-8
		C538.8,185.4,544.4,177.4,543.6,168.7z"/>
	<path class="st0" d="M470.3,203.7c-8.4,2.3-14,10.2-13.2,18.9s7.6,15.6,16.3,16.3c8.7,0.8,16.7-4.8,18.9-13.2l0,0l8-30l0,0
		L470.3,203.7z"/>
	<polygon class="st0" points="500.3,195.7 500.3,195.7 500.3,195.7 	"/>
	<path class="st0" d="M527.3,238.9c8.7-0.8,15.6-7.6,16.3-16.3c0.8-8.7-4.8-16.7-13.2-18.9l-30-8l8,30
		C510.6,234.1,518.6,239.7,527.3,238.9z"/>
	<path class="st0" d="M492.3,165.6L492.3,165.6c-2.3-8.4-10.2-14-18.9-13.2s-15.6,7.6-16.3,16.3s4.8,16.7,13.2,18.9l30,8h0
		L492.3,165.6z"/>
	<path class="st0" d="M371.8,50.8c-8.7,0.8-15.6,7.6-16.3,16.3c-0.8,8.7,4.8,16.7,13.2,18.9l30,8l-8-30
		C388.5,55.7,380.5,50.1,371.8,50.8z"/>
	<path class="st0" d="M428.8,102.2l-30-8l0,0l8,30h0c2.3,8.4,10.2,14,18.9,13.2s15.6-7.6,16.3-16.3
		C442.8,112.4,437.2,104.4,428.8,102.2z"/>
	<path class="st0" d="M428.8,86.1c8.4-2.3,14-10.2,13.2-18.9c-0.8-8.7-7.6-15.6-16.3-16.3c-8.7-0.8-16.7,4.8-18.9,13.2l-8,30l0,0
		L428.8,86.1z"/>
	<path class="st0" d="M355.5,121.1c0.8,8.7,7.6,15.6,16.3,16.3s16.7-4.8,18.9-13.2h0l8-30l-30,8
		C360.3,104.4,354.8,112.4,355.5,121.1z"/>
	<path class="st0" d="M527.3,137.4c8.7-0.8,15.6-7.6,16.3-16.3s-4.8-16.7-13.2-18.9l-30-8l8,30C510.6,132.6,518.6,138.2,527.3,137.4
		z"/>
	<path class="st0" d="M473.4,50.8c-8.7,0.8-15.6,7.6-16.3,16.3c-0.8,8.7,4.8,16.7,13.2,18.9h0l30,8l-8-30
		C490,55.7,482.1,50.1,473.4,50.8z"/>
	<path class="st0" d="M543.6,67.2c-0.8-8.7-7.6-15.6-16.3-16.3c-8.7-0.8-16.7,4.8-18.9,13.2l-8,30l30-8
		C538.8,83.8,544.4,75.8,543.6,67.2z"/>
	<path class="st0" d="M457.1,121.1c0.8,8.7,7.6,15.6,16.3,16.3s16.7-4.8,18.9-13.2h0l8-30l-30,8
		C461.9,104.4,456.3,112.4,457.1,121.1z"/>
	<path class="st0" d="M567,439.4c5.8,3.6,13.2,3.6,19,0c5.8-3.6,9.1-10.2,8.4-17l-17.9-175.9l-17.9,175.9
		C558,429.2,561.2,435.8,567,439.4z"/>
	<path class="st0" d="M586,53.5c-5.8-3.6-13.2-3.6-19,0s-9.1,10.2-8.4,17h0l17.9,175.9l17.9-175.9C595.1,63.7,591.8,57.1,586,53.5z"
		/>
</g>
</svg>
