<?xml version="1.0" encoding="utf-8"?>
<!-- Generator: Adobe Illustrator 22.0.1, SVG Export Plug-In . SVG Version: 6.00 Build 0)  -->
<svg version="1.1" id="Livello_1" xmlns="http://www.w3.org/2000/svg" xmlns:xlink="http://www.w3.org/1999/xlink" x="0px" y="0px"
	 viewBox="0 0 380.8 380.8" style="enable-background:new 0 0 380.8 380.8;" xml:space="preserve">
<style type="text/css">
	.st0{fill-rule:evenodd;clip-rule:evenodd;fill:#0000FF;}
</style>
<g>
	<path class="st0" d="M48.4,5.6L5.6,48.4c-4.3,4.3-6.3,10.4-5.4,16.4c0.9,6,4.7,11.2,10.1,14l17.4,8.9c5.7,2.9,9.6,8.6,10.3,15
		l4.9,46.8c1,9.1,8.2,16.2,17.3,17c9.1,0.8,17.5-4.9,20-13.7c2.5-8.8-1.5-18.1-9.6-22.2l-17.4-8.9c-9.3-4.8-13-16.1-8.4-25.4
		L79,27.5c4.2-8.4,1.6-18.5-5.9-24C65.4-1.9,55-1,48.4,5.6"/>
	<path class="st0" d="M123.7,17.1l4.9,46.8c0.7,6.4,4.5,12,10.3,15l17.4,8.9c5.4,2.8,9.2,8,10.1,14c0.9,6-1,12.1-5.4,16.4
		l-42.8,42.8c-6.6,6.6-17,7.5-24.6,2c-7.6-5.5-10.1-15.6-5.9-24l34.1-68.7c4.6-9.3,0.9-20.7-8.4-25.4L96,36
		c-8.1-4.2-12.2-13.5-9.6-22.2c2.5-8.8,10.9-14.5,20-13.7C115.5,0.9,122.7,8,123.7,17.1"/>
	<path class="st0" d="M252.2,17.1l4.9,46.8c0.7,6.4,4.5,12,10.3,15l17.4,8.9c5.4,2.8,9.2,8,10.1,14c0.9,6-1,12.1-5.4,16.4
		l-42.8,42.8c-6.6,6.6-17,7.5-24.6,2c-7.6-5.5-10.1-15.6-5.9-24l34.1-68.7c4.6-9.3,0.9-20.7-8.4-25.4L224.6,36
		c-8.1-4.2-12.2-13.5-9.6-22.2s10.9-14.5,20-13.7C244,0.9,251.2,8,252.2,17.1"/>
	<path class="st0" d="M310.2,87.8l17.4-8.9c3.6-1.8,6.5-4.7,8.3-8.3l8.9-17.4c3.8-7.3,11.8-11.4,20-10.1c8.1,1.3,14.5,7.7,15.8,15.8
		c1.3,8.1-2.8,16.2-10.1,20l-17.4,8.9c-6.4,3.3-10.4,9.8-10.4,17c0,7.2,4,13.7,10.4,17l17.4,8.9c7.3,3.8,11.4,11.8,10.1,20
		c-1.3,8.1-7.7,14.5-15.8,15.8c-8.1,1.3-16.2-2.8-20-10.1l-8.9-17.4c-1.8-3.6-4.7-6.5-8.3-8.3l-17.4-8.9c-6.4-3.3-10.4-9.8-10.4-17
		C299.9,97.6,303.9,91,310.2,87.8"/>
	<path class="st0" d="M118.2,219.8l42.8,42.8c4.3,4.3,6.3,10.4,5.4,16.4c-0.9,6-4.7,11.2-10.1,14l-17.4,8.9
		c-6.4,3.3-10.4,9.8-10.4,17c0,7.2,4,13.7,10.4,17l17.4,8.9c8.1,4.2,12.2,13.5,9.6,22.2c-2.5,8.8-10.9,14.5-20,13.7
		c-9.1-0.8-16.3-7.9-17.3-17l-4.9-46.8c-0.2-2.3-0.9-4.5-1.9-6.5l-34.1-68.7c-4.2-8.4-1.6-18.5,5.9-24
		C101.2,212.3,111.6,213.2,118.2,219.8"/>
	<path class="st0" d="M48.4,375.2L5.6,332.4C1.3,328.1-0.7,322,0.2,316c0.9-6,4.7-11.2,10.1-14l17.4-8.9c5.7-2.9,9.6-8.6,10.3-15
		l4.9-46.8c1-9.1,8.2-16.2,17.3-17c9.1-0.8,17.5,4.9,20,13.7c2.5,8.8-1.5,18.1-9.6,22.2l-17.4,8.9c-9.3,4.8-13,16.1-8.4,25.4
		L79,353.3c4.2,8.4,1.6,18.5-5.9,24C65.4,382.7,55,381.8,48.4,375.2"/>
	<path class="st0" d="M289.6,262.6l-42.8-42.8c-6.6-6.6-17-7.5-24.6-2c-7.6,5.5-10.1,15.6-5.9,24l34.1,68.7c1,2,1.7,4.2,1.9,6.5
		l4.9,46.8c1,9.1,8.2,16.2,17.3,17c9.1,0.8,17.5-4.9,20-13.7s-1.5-18.1-9.6-22.2l-17.4-8.9c-6.4-3.3-10.4-9.8-10.4-17
		c0-7.2,4-13.7,10.4-17l17.4-8.9c5.4-2.8,9.2-8,10.1-14C295.9,273,293.9,266.9,289.6,262.6"/>
	<path class="st0" d="M344.8,224.6l-8.9,17.4c-1.8,3.6-4.7,6.5-8.3,8.3l-17.4,8.9c-7.3,3.8-11.4,11.8-10.1,20
		c1.3,8.1,7.7,14.5,15.8,15.8c8.1,1.3,16.2-2.8,20-10.1l8.9-17.4c1.8-3.6,4.7-6.5,8.3-8.3l17.4-8.9c7.3-3.8,11.4-11.8,10.1-20
		c-1.3-8.1-7.7-14.5-15.8-15.8C356.6,213.1,348.5,217.2,344.8,224.6"/>
</g>
</svg>
