<?xml version="1.0" encoding="utf-8"?>
<!-- Generator: Adobe Illustrator 22.0.1, SVG Export Plug-In . SVG Version: 6.00 Build 0)  -->
<svg version="1.1" id="Livello_1" xmlns="http://www.w3.org/2000/svg" xmlns:xlink="http://www.w3.org/1999/xlink" x="0px" y="0px"
	 viewBox="0 0 517.8 471.2" style="enable-background:new 0 0 517.8 471.2;" xml:space="preserve">
<style type="text/css">
	.st0{fill:#0000FF;}
</style>
<g id="Livello_1_1_">
	<g>
		<path class="st0" d="M168.6,158.8l47.3,47.3c4.2,4.2,10.9,4.2,15,0l23.6-23.6c3.3-3.3,4.1-8.4,1.9-12.5s-6.9-6.3-11.5-5.4
			s-8,4.7-8.5,9.4l-2.5,25.7c-0.5,4.7-4,8.6-8.7,9.4c-4.7,0.9-9.3-1.5-11.5-5.7l-28.2-56.7c-1.9-3.8-5.8-6.1-10-5.9
			c-4.2,0.2-7.9,2.9-9.4,6.8C164.7,151.3,165.6,155.8,168.6,158.8L168.6,158.8z"/>
		<path class="st0" d="M189.2,294.2v23.6c0,5.9,4.8,10.6,10.6,10.6h47.3c4.4,0,8.3-2.7,9.9-6.8c1.6-4.1,0.5-8.8-2.8-11.7
			c-3.3-3-8-3.6-11.9-1.6l-37.7,19c-3.4,1.7-7.5,1.5-10.7-0.6s-5-5.8-4.7-9.6s2.5-7.2,6-8.9l9.3-4.5c4.7-2.3,7.1-7.7,5.5-12.7
			s-6.6-8.2-11.7-7.4S189.2,289,189.2,294.2L189.2,294.2z"/>
		<path class="st0" d="M223.2,354.5h-23.6c-5.9,0-10.6,4.8-10.6,10.6v23.6c0,5.3,3.8,9.7,9,10.5s10.2-2.3,11.7-7.4
			s-0.8-10.4-5.5-12.7l-9.3-4.5c-4.2-2-6.6-6.6-5.9-11.2s4.3-8.2,8.9-8.9s9.1,1.7,11.2,5.9l4.5,9.3c2.3,4.7,7.7,7.1,12.7,5.5
			s8.2-6.6,7.4-11.7S228.5,354.5,223.2,354.5z"/>
		<path class="st0" d="M212.8,412.2v23.6c0,5.9,4.8,10.6,10.6,10.6H247c5.3,0,9.7-3.8,10.5-9s-2.3-10.2-7.4-11.7
			c-5-1.6-10.4,0.8-12.7,5.5l-4.5,9.3c-2,4.2-6.6,6.6-11.2,5.9s-8.2-4.3-8.9-8.9c-0.7-4.6,1.7-9.1,5.9-11.2l9.3-4.5
			c4.7-2.3,7.1-7.7,5.5-12.7s-6.6-8.2-11.7-7.4S212.8,406.9,212.8,412.2z"/>
		<path class="st0" d="M228,237.4l-9.3-4.5c-3.7-1.8-6-5.5-6-9.6s2.3-7.8,6-9.6l9.3-4.5c4.5-2.2,6.8-7.1,5.7-11.9s-5.4-8.3-10.4-8.3
			s-9.3,3.4-10.4,8.3c-1.1,4.8,1.3,9.8,5.7,11.9l9.3,4.5c3.7,1.8,6,5.5,6,9.6s-2.3,7.8-6,9.6l-9.3,4.5c-4.5,2.2-6.8,7.1-5.7,11.9
			c1.1,4.8,5.4,8.3,10.4,8.3s9.3-3.4,10.4-8.3S232.5,239.5,228,237.4z"/>
		<path class="st0" d="M212.7,270.7v23.5c0,5.8,4.7,10.6,10.6,10.6h23.5c5.2,0,9.7-3.8,10.5-9s-2.3-10.1-7.3-11.7
			s-10.4,0.8-12.7,5.5l-4.5,9.2c-2,4.2-6.5,6.5-11.1,5.9s-8.2-4.3-8.9-8.9c-0.7-4.6,1.7-9.1,5.9-11.1l9.2-4.5
			c4.7-2.3,7-7.7,5.5-12.7s-6.5-8.1-11.7-7.3C216.5,261,212.7,265.5,212.7,270.7L212.7,270.7z"/>
		<path class="st0" d="M53.2,185.6l9.3,4.5c3.7,1.8,6,5.5,6,9.6s-2.3,7.8-6,9.6l-9.3,4.5c-3.7,1.8-6,5.5-6,9.6s2.3,7.8,6,9.6
			l9.3,4.5c3.7,1.8,6,5.5,6,9.6s-2.3,7.8-6,9.6l-9.3,4.5c-3.7,1.8-6,5.5-6,9.6s2.3,7.8,6,9.6l9.3,4.5c3.7,1.8,6,5.5,6,9.6
			s-2.3,7.8-6,9.6l-9.3,4.5c-3.7,1.8-6,5.5-6,9.6s2.3,7.8,6,9.6l9.3,4.5c3.7,1.8,6,5.5,6,9.6s-2.3,7.8-6,9.6l-9.3,4.5
			c-3.7,1.8-6,5.5-6,9.6s2.3,7.8,6,9.6l9.3,4.5c3.3,1.6,5.6,4.9,6,8.6L71,414c0.5,5.1,4.5,9.1,9.6,9.6l25.7,2.5
			c5.1,0.5,9.1,4.5,9.6,9.6l2.5,25.7c0.5,4.7,4,8.6,8.7,9.5c4.7,0.9,9.4-1.5,11.5-5.8l4.5-9.3c1.8-3.7,5.5-6,9.6-6s7.8,2.3,9.6,6
			l4.5,9.3c1.8,3.7,5.5,6,9.6,6s7.8-2.3,9.6-6l4.5-9.3c1.8-3.7,5.5-6,9.6-6s7.8,2.3,9.6,6l4.5,9.3c2.2,4.5,7.1,6.8,11.9,5.7
			s8.3-5.4,8.3-10.4s-3.4-9.3-8.3-10.4c-4.8-1.1-9.8,1.3-11.9,5.7l-4.5,9.3c-1.8,3.7-5.5,6-9.6,6s-7.8-2.3-9.6-6l-4.9-10
			c-1.8-3.7-5.5-6-9.6-6s-7.8,2.3-9.6,6l-4.5,9.3c-1.8,3.7-5.5,6-9.6,6s-7.8-2.3-9.6-6l-4.5-9.3c-1.6-3.3-4.9-5.6-8.6-6l-25.7-2.5
			c-5.1-0.5-9.1-4.5-9.6-9.6l-2.5-25.7c-0.5-5.1-4.5-9.1-9.6-9.6l-25.7-2.5c-4.7-0.5-8.6-4-9.5-8.7c-0.8-4.7,1.5-9.4,5.8-11.5
			l9.3-4.5c3.7-1.8,6-5.5,6-9.6s-2.3-7.8-6-9.6l-9.3-4.5c-3.7-1.8-6-5.5-6-9.6s2.3-7.8,6-9.6l9.3-4.5c3.7-1.8,6-5.5,6-9.6
			s-2.3-7.8-6-9.6l-9.3-4.5c-3.7-1.8-6-5.5-6-9.6s2.3-7.8,6-9.6l9.3-4.5c3.7-1.8,6-5.5,6-9.6s-2.3-7.8-6-9.6l-9.3-4.5
			c-3.7-1.8-6-5.5-6-9.6s2.3-7.8,6-9.6l9.3-4.5c3.7-1.8,6-5.5,6-9.6V176c0-5.3-3.8-9.7-9-10.5s-10.2,2.3-11.7,7.4
			C46.2,177.9,48.5,183.3,53.2,185.6L53.2,185.6z"/>
		<path class="st0" d="M212.8,104.1l-2.5,25.7c-0.5,5.5-5.1,9.6-10.6,9.6s-10.1-4.2-10.6-9.6l-2.5-25.7c-0.5-5.6-5.3-9.8-10.9-9.6
			s-10.1,4.7-10.3,10.3s4,10.4,9.6,10.9l25.7,2.5c5.6,0.5,9.9,5.4,9.6,11.1s-4.9,10.1-10.6,10.1s-10.4-4.5-10.6-10.1
			s4-10.6,9.6-11.1l25.7-2.5c5.6-0.5,9.8-5.3,9.6-10.9c-0.2-5.6-4.7-10.1-10.3-10.3C218.1,94.3,213.4,98.5,212.8,104.1L212.8,104.1z
			"/>
		<path class="st0" d="M189.2,104.1l-2.5,25.7c-0.5,5.5-5.1,9.6-10.6,9.6s-10.1-4.2-10.6-9.6l-2.5-25.7c-0.5-5.6-5.3-9.8-10.9-9.6
			s-10.1,4.7-10.3,10.3s4,10.4,9.6,10.9l25.7,2.5c5.6,0.5,9.9,5.4,9.6,11.1s-4.9,10.1-10.6,10.1c-5.7,0-10.4-4.5-10.6-10.1
			s4-10.6,9.6-11.1l25.7-2.5c5.6-0.5,9.8-5.3,9.6-10.9c-0.2-5.6-4.7-10.1-10.3-10.3C194.5,94.3,189.7,98.5,189.2,104.1L189.2,104.1z
			"/>
		<path class="st0" d="M156.6,71.9l-9.3-4.5c-4.5-2.2-6.8-7.1-5.7-12c1.1-4.8,5.4-8.3,10.4-8.3s9.3,3.4,10.4,8.3
			c1.1,4.8-1.3,9.8-5.7,12l-9.3,4.5c-4.5,2.2-6.8,7.1-5.7,12c1.1,4.8,5.4,8.3,10.4,8.3s9.3-3.4,10.4-8.3
			C163.5,79,161.1,74.1,156.6,71.9L156.6,71.9z"/>
		<path class="st0" d="M242.4,20.2l9.3,4.5c3.7,1.8,6,5.5,6,9.6s-2.3,7.8-6,9.6l-9.3,4.5c-3.7,1.8-6,5.5-6,9.6s2.3,7.8,6,9.6
			l9.3,4.5c4.5,2.2,6.8,7.1,5.7,11.9s-5.4,8.3-10.4,8.3s-9.3-3.4-10.4-8.3s1.3-9.8,5.7-11.9l9.3-4.5c3.7-1.8,6-5.5,6-9.6
			s-2.3-7.8-6-9.6l-9.3-4.5c-3.7-1.8-6-5.5-6-9.6s2.3-7.8,6-9.6l9.3-4.5c4.5-2.2,6.8-7.1,5.7-11.9S251.9,0,246.9,0
			s-9.3,3.4-10.4,8.3S237.9,18,242.4,20.2L242.4,20.2z"/>
		<path class="st0" d="M195.1,20.2l9.3,4.5c3.7,1.8,6,5.5,6,9.6s-2.3,7.8-6,9.6l-9.3,4.5c-3.7,1.8-6,5.5-6,9.6s2.3,7.8,6,9.6
			l9.3,4.5c4.5,2.2,6.8,7.1,5.7,11.9s-5.4,8.3-10.4,8.3s-9.3-3.4-10.4-8.3s1.3-9.8,5.7-11.9l9.3-4.5c3.7-1.8,6-5.5,6-9.6
			s-2.3-7.8-6-9.6l-9.3-4.5c-3.7-1.8-6-5.5-6-9.6s2.3-7.8,6-9.6l9.3-4.5c4.5-2.2,6.8-7.1,5.7-11.9S204.6,0,199.6,0
			s-9.3,3.4-10.4,8.3S190.7,18,195.1,20.2L195.1,20.2z"/>
		<path class="st0" d="M180.8,71.9l-9.3-4.5c-3.7-1.8-6-5.5-6-9.6c0-4.1,2.3-7.8,6-9.6l9.3-4.5c4.5-2.2,6.8-7.1,5.7-11.9
			s-5.4-8.3-10.4-8.3s-9.3,3.4-10.4,8.3c-1.1,4.8,1.3,9.8,5.7,11.9l9.3,4.5c3.7,1.8,6,5.5,6,9.6c0,4.1-2.3,7.8-6,9.6l-9.3,4.5
			c-4.5,2.2-6.8,7.1-5.7,11.9c1.1,4.8,5.4,8.3,10.4,8.3s9.3-3.4,10.4-8.3S185.2,74.1,180.8,71.9z"/>
		<path class="st0" d="M213,83.9c1.1,4.8,5.4,8.3,10.4,8.3s9.3-3.4,10.4-8.3c1.1-4.8-1.3-9.8-5.7-11.9l-9.3-4.5
			c-3.7-1.8-6-5.5-6-9.6c0-4.1,2.3-7.8,6-9.6l9.3-4.5c4.5-2.2,6.8-7.1,5.7-11.9c-1.1-4.8-5.4-8.3-10.4-8.3s-9.3,3.4-10.4,8.3
			c-1.1,4.8,1.3,9.8,5.7,11.9l9.3,4.5c3.7,1.8,6,5.5,6,9.6c0,4.1-2.3,7.8-6,9.6l-9.3,4.5C214.3,74.1,211.9,79.1,213,83.9z"/>
		<path class="st0" d="M38.9,233.5c4.5-2.2,6.8-7.1,5.7-11.9s-5.4-8.3-10.4-8.3s-9.3,3.4-10.4,8.3s1.3,9.8,5.7,11.9l9.3,4.5
			c3.7,1.8,6,5.5,6,9.6s-2.3,7.8-6,9.6l-9.3,4.5c-3.7,1.8-6,5.5-6,9.6s2.3,7.8,6,9.6l9.3,4.5c4.5,2.2,6.8,7.1,5.7,11.9
			s-5.4,8.3-10.4,8.3s-9.3-3.4-10.4-8.3s1.3-9.8,5.7-11.9l9.3-4.5c3.7-1.8,6-5.5,6-9.6s-2.3-7.8-6-9.6l-9.3-4.5
			c-3.7-1.8-6-5.5-6-9.6s2.3-7.8,6-9.6L38.9,233.5L38.9,233.5z"/>
		<path class="st0" d="M92.1,153.4l2.5-25.7c0.5-5.1,4.5-9.1,9.6-9.6l25.7-2.5c5.6-0.5,9.8-5.3,9.6-10.9
			c-0.2-5.6-4.7-10.1-10.3-10.3c-5.6-0.2-10.4,4-10.9,9.6l-2.5,25.7c-0.5,5.1-4.5,9.1-9.6,9.6l-25.7,2.5c-5.6,0.5-9.8,5.3-9.6,10.9
			c0.2,5.6,4.7,10.1,10.3,10.3C86.8,163.2,91.6,159,92.1,153.4z"/>
		<path class="st0" d="M15.3,286.3L6,281.8c-4.5-2.2-6.8-7.1-5.7-12c1.1-4.8,5.4-8.3,10.4-8.3s9.3,3.4,10.4,8.3
			c1.1,4.8-1.3,9.8-5.7,12l-9.3,4.5c-4.5,2.2-6.8,7.1-5.7,12c1.1,4.8,5.4,8.3,10.4,8.3s9.3-3.4,10.4-8.3
			C22.1,293.5,19.7,288.5,15.3,286.3L15.3,286.3z"/>
		<path class="st0" d="M349.1,158.9c3-3,3.9-7.4,2.4-11.4c-1.5-3.9-5.2-6.6-9.4-6.8c-4.2-0.2-8.1,2.1-10,5.9l-28.2,56.7
			c-2.1,4.3-6.8,6.6-11.5,5.7s-8.2-4.7-8.7-9.4l-2.5-25.7c-0.4-4.7-3.9-8.5-8.5-9.4s-9.3,1.3-11.5,5.4c-2.2,4.1-1.5,9.2,1.9,12.5
			l23.6,23.6c4.2,4.2,10.9,4.2,15,0L349.1,158.9L349.1,158.9z"/>
		<path class="st0" d="M328.5,294.3c0-5.3-3.8-9.7-9-10.5s-10.2,2.3-11.7,7.4s0.8,10.4,5.5,12.7l9.3,4.5c3.4,1.7,5.7,5,6,8.9
			s-1.5,7.5-4.7,9.6s-7.3,2.4-10.7,0.6l-37.7-19c-3.9-2-8.7-1.3-11.9,1.6c-3.3,3-4.4,7.6-2.8,11.7s5.5,6.8,9.9,6.8H318
			c5.9,0,10.6-4.8,10.6-10.6L328.5,294.3L328.5,294.3z"/>
		<path class="st0" d="M283.9,363.6c-0.8,5.2,2.3,10.2,7.4,11.7c5,1.6,10.4-0.8,12.7-5.5l4.5-9.3c2-4.2,6.6-6.6,11.2-5.9
			s8.2,4.3,8.9,8.9s-1.7,9.1-5.9,11.2l-9.3,4.5c-4.7,2.3-7.1,7.7-5.5,12.7s6.6,8.2,11.7,7.4s9-5.3,9-10.5v-23.6
			c0-5.9-4.8-10.6-10.6-10.6h-23.6C289.2,354.6,284.7,358.4,283.9,363.6z"/>
		<path class="st0" d="M295.9,401.8c-5.2-0.8-10.2,2.3-11.7,7.4s0.8,10.4,5.5,12.7l9.3,4.5c4.2,2,6.6,6.6,5.9,11.2s-4.3,8.2-8.9,8.9
			s-9.1-1.7-11.2-5.9l-4.5-9.3c-2.3-4.7-7.7-7.1-12.7-5.5s-8.2,6.6-7.4,11.7c0.8,5.2,5.3,9,10.5,9h23.6c5.9,0,10.6-4.8,10.6-10.6
			v-23.6C304.9,407,301.1,402.6,295.9,401.8z"/>
		<path class="st0" d="M283.9,249.4c1.1,4.8,5.4,8.3,10.4,8.3s9.3-3.4,10.4-8.3s-1.3-9.8-5.7-11.9l-9.3-4.5c-3.7-1.8-6-5.5-6-9.6
			s2.3-7.8,6-9.6l9.3-4.5c4.5-2.2,6.8-7.1,5.7-11.9s-5.4-8.3-10.4-8.3s-9.3,3.4-10.4,8.3s1.3,9.8,5.7,11.9l9.3,4.5
			c3.7,1.8,6,5.5,6,9.6s-2.3,7.8-6,9.6l-9.3,4.5C285.2,239.6,282.8,244.6,283.9,249.4z"/>
		<path class="st0" d="M305,270.8c0-5.2-3.8-9.7-9-10.5s-10.1,2.3-11.7,7.3s0.8,10.4,5.5,12.7l9.2,4.5c4.2,2,6.5,6.5,5.9,11.1
			c-0.7,4.6-4.3,8.2-8.9,8.9c-4.6,0.7-9.1-1.7-11.1-5.9l-4.5-9.2c-2.3-4.7-7.7-7-12.7-5.5c-5,1.6-8.1,6.5-7.3,11.7
			c0.8,5.2,5.2,9,10.5,9h23.5c5.8,0,10.6-4.7,10.6-10.6V270.8L305,270.8z"/>
		<path class="st0" d="M464.5,185.7c4.7-2.3,7.1-7.7,5.5-12.7s-6.6-8.2-11.7-7.4c-5.2,0.8-9,5.3-9,10.5v47.3c0,4.1,2.3,7.8,6,9.6
			l9.3,4.5c3.7,1.8,6,5.5,6,9.6s-2.3,7.8-6,9.6l-9.3,4.5c-3.7,1.8-6,5.5-6,9.6s2.3,7.8,6,9.6l9.3,4.5c3.7,1.8,6,5.5,6,9.6
			s-2.3,7.8-6,9.6l-9.3,4.5c-3.7,1.8-6,5.5-6,9.6s2.3,7.8,6,9.6l9.3,4.5c3.7,1.8,6,5.5,6,9.6s-2.3,7.8-6,9.6l-9.3,4.5
			c-3.7,1.8-6,5.5-6,9.6s2.3,7.8,6,9.6l9.3,4.5c4.3,2.1,6.7,6.8,5.8,11.5c-0.8,4.7-4.7,8.3-9.5,8.7l-25.7,2.5
			c-5.1,0.5-9.1,4.5-9.6,9.6l-2.5,25.7c-0.5,5.1-4.5,9.1-9.6,9.6l-25.7,2.5c-3.7,0.4-6.9,2.6-8.6,6l-4.5,9.3c-1.8,3.7-5.5,6-9.6,6
			s-7.8-2.3-9.6-6l-4.5-9.3c-1.8-3.7-5.5-6-9.6-6s-7.8,2.3-9.6,6l-4.5,9.3c-1.8,3.7-5.5,6-9.6,6s-7.8-2.3-9.6-6l-4.5-9.3
			c-2.2-4.5-7.1-6.8-11.9-5.7s-8.3,5.4-8.3,10.4s3.4,9.3,8.3,10.4c4.8,1.1,9.8-1.3,11.9-5.7l4.5-9.3c1.8-3.7,5.5-6,9.6-6
			s7.8,2.3,9.6,6l4.5,9.3c1.8,3.7,5.5,6,9.6,6s7.8-2.3,9.6-6l4.5-9.3c1.8-3.7,5.5-6,9.6-6s7.8,2.3,9.6,6l4.5,9.3
			c2.1,4.3,6.8,6.7,11.5,5.8c4.7-0.8,8.3-4.7,8.7-9.5l2.5-25.7c0.5-5.1,4.5-9.1,9.6-9.6l25.7-2.5c5.1-0.5,9.1-4.5,9.6-9.6l2.5-25.7
			c0.4-3.7,2.6-6.9,6-8.6l9.3-4.5c3.7-1.8,6-5.5,6-9.6s-2.3-7.8-6-9.6l-9.3-4.5c-3.7-1.8-6-5.5-6-9.6s2.3-7.8,6-9.6l9.3-4.5
			c3.7-1.8,6-5.5,6-9.6s-2.3-7.8-6-9.6l-9.3-4.5c-3.7-1.8-6-5.5-6-9.6s2.3-7.8,6-9.6l9.3-4.5c3.7-1.8,6-5.5,6-9.6s-2.3-7.8-6-9.6
			l-9.3-4.5c-3.7-1.8-6-5.5-6-9.6s2.3-7.8,6-9.6l9.3-4.5c3.7-1.8,6-5.5,6-9.6s-2.3-7.8-6-9.6l-9.3-4.5c-3.7-1.8-6-5.5-6-9.6
			s2.3-7.8,6-9.6L464.5,185.7L464.5,185.7z"/>
		<path class="st0" d="M399.5,81.6c0,5.9-4.8,10.6-10.6,10.6s-10.6-4.8-10.6-10.6S383.1,71,388.9,71S399.5,75.7,399.5,81.6
			L399.5,81.6z"/>
		<path class="st0" d="M304.9,104.2c-0.5-5.6-5.3-9.8-10.9-9.6s-10.1,4.7-10.3,10.3c-0.2,5.6,4,10.4,9.6,10.9l25.7,2.5
			c5.6,0.5,9.9,5.4,9.6,11.1s-4.9,10.1-10.6,10.1s-10.4-4.5-10.6-10.1s4-10.6,9.6-11.1l25.7-2.5c5.6-0.5,9.8-5.3,9.6-10.9
			c-0.2-5.6-4.7-10.1-10.3-10.3s-10.4,4-10.9,9.6l-2.5,25.7c-0.5,5.5-5.1,9.6-10.6,9.6s-10.1-4.2-10.6-9.6L304.9,104.2L304.9,104.2z
			"/>
		<path class="st0" d="M328.5,104.2c-0.5-5.6-5.3-9.8-10.9-9.6s-10.1,4.7-10.3,10.3c-0.2,5.6,4,10.4,9.6,10.9l25.7,2.5
			c5.6,0.5,9.9,5.4,9.6,11.1s-4.9,10.1-10.6,10.1s-10.4-4.5-10.6-10.1s4-10.6,9.6-11.1l25.7-2.5c5.6-0.5,9.8-5.3,9.6-10.9
			c-0.2-5.6-4.7-10.1-10.3-10.3s-10.4,4-10.9,9.6l-2.5,25.7c-0.5,5.5-5.1,9.6-10.6,9.6s-10.1-4.2-10.6-9.6L328.5,104.2L328.5,104.2z
			"/>
		<path class="st0" d="M361.1,72c-4.5,2.2-6.8,7.1-5.7,12c1.1,4.8,5.4,8.3,10.4,8.3s9.3-3.4,10.4-8.3c1.1-4.8-1.3-9.8-5.7-12
			l-9.3-4.5c-4.5-2.2-6.8-7.1-5.7-12c1.1-4.8,5.4-8.3,10.4-8.3s9.3,3.4,10.4,8.3c1.1,4.8-1.3,9.8-5.7,12L361.1,72L361.1,72z"/>
		<path class="st0" d="M275.3,20.3c4.5-2.2,6.8-7.1,5.7-11.9s-5.4-8.3-10.4-8.3s-9.3,3.4-10.4,8.3s1.3,9.8,5.7,11.9l9.3,4.5
			c3.7,1.8,6,5.5,6,9.6s-2.3,7.8-6,9.6l-9.3,4.5c-3.7,1.8-6,5.5-6,9.6s2.3,7.8,6,9.6l9.3,4.5c4.5,2.2,6.8,7.1,5.7,11.9
			s-5.4,8.3-10.4,8.3s-9.3-3.4-10.4-8.3s1.3-9.8,5.7-11.9l9.3-4.5c3.7-1.8,6-5.5,6-9.6c0-4.1-2.3-7.8-6-9.6l-9.3-4.5
			c-3.7-1.8-6-5.5-6-9.6s2.3-7.8,6-9.6L275.3,20.3L275.3,20.3z"/>
		<path class="st0" d="M322.6,20.3c4.5-2.2,6.8-7.1,5.7-11.9s-5.4-8.3-10.4-8.3s-9.3,3.4-10.4,8.3s1.3,9.8,5.7,11.9l9.3,4.5
			c3.7,1.8,6,5.5,6,9.6s-2.3,7.8-6,9.6l-9.3,4.5c-3.7,1.8-6,5.5-6,9.6s2.3,7.8,6,9.6l9.3,4.5c4.5,2.2,6.8,7.1,5.7,11.9
			s-5.4,8.3-10.4,8.3s-9.3-3.4-10.4-8.3s1.3-9.8,5.7-11.9l9.3-4.5c3.7-1.8,6-5.5,6-9.6c0-4.1-2.3-7.8-6-9.6l-9.3-4.5
			c-3.7-1.8-6-5.5-6-9.6s2.3-7.8,6-9.6L322.6,20.3L322.6,20.3z"/>
		<path class="st0" d="M331.2,84c1.1,4.8,5.4,8.3,10.4,8.3s9.3-3.4,10.4-8.3c1.1-4.8-1.3-9.8-5.7-11.9l-9.3-4.5
			c-3.7-1.8-6-5.5-6-9.6c0-4.1,2.3-7.8,6-9.6l9.3-4.5c4.5-2.2,6.8-7.1,5.7-11.9c-1.1-4.8-5.4-8.3-10.4-8.3s-9.3,3.4-10.4,8.3
			c-1.1,4.8,1.3,9.8,5.7,11.9l9.3,4.5c3.7,1.8,6,5.5,6,9.6c0,4.1-2.3,7.8-6,9.6l-9.3,4.5C332.5,74.2,330.1,79.2,331.2,84z"/>
		<path class="st0" d="M298.9,72l-9.3-4.5c-3.7-1.8-6-5.5-6-9.6c0-4.1,2.3-7.8,6-9.6l9.3-4.5c4.5-2.2,6.8-7.1,5.7-11.9
			c-1.1-4.8-5.4-8.3-10.4-8.3s-9.3,3.4-10.4,8.3c-1.1,4.8,1.3,9.8,5.7,11.9l9.3,4.5c3.7,1.8,6,5.5,6,9.6c0,4.1-2.3,7.8-6,9.6
			l-9.3,4.5c-4.5,2.2-6.8,7.1-5.7,11.9c1.1,4.8,5.4,8.3,10.4,8.3s9.3-3.4,10.4-8.3C305.8,79.2,303.4,74.2,298.9,72z"/>
		<path class="st0" d="M478.8,233.6l9.3,4.5c3.7,1.8,6,5.5,6,9.6s-2.3,7.8-6,9.6l-9.3,4.5c-3.7,1.8-6,5.5-6,9.6s2.3,7.8,6,9.6
			l9.3,4.5c4.5,2.2,6.8,7.1,5.7,11.9s-5.4,8.3-10.4,8.3s-9.3-3.4-10.4-8.3s1.3-9.8,5.7-11.9l9.3-4.5c3.7-1.8,6-5.5,6-9.6
			s-2.3-7.8-6-9.6l-9.3-4.5c-3.7-1.8-6-5.5-6-9.6s2.3-7.8,6-9.6l9.3-4.5c4.5-2.2,6.8-7.1,5.7-11.9s-5.4-8.3-10.4-8.3
			s-9.3,3.4-10.4,8.3S474.4,231.4,478.8,233.6L478.8,233.6z"/>
		<path class="st0" d="M436.5,163.1c5.6-0.2,10.1-4.7,10.3-10.3s-4-10.4-9.6-10.9l-25.7-2.5c-5.1-0.5-9.1-4.5-9.6-9.6l-2.5-25.7
			c-0.5-5.6-5.3-9.8-10.9-9.6s-10.1,4.7-10.3,10.3c-0.2,5.6,4,10.4,9.6,10.9l25.7,2.5c5.1,0.5,9.1,4.5,9.6,9.6l2.5,25.7
			C426.1,159.1,430.9,163.3,436.5,163.1z"/>
		<path class="st0" d="M502.4,286.4c-4.5,2.2-6.8,7.1-5.7,12s5.4,8.3,10.4,8.3c5,0,9.3-3.4,10.4-8.3c1.1-4.8-1.3-9.8-5.7-12
			l-9.3-4.5c-4.5-2.2-6.8-7.1-5.7-12c1.1-4.8,5.4-8.3,10.4-8.3c5,0,9.3,3.4,10.4,8.3c1.1,4.8-1.3,9.8-5.7,12L502.4,286.4
			L502.4,286.4z"/>
		<path class="st0" d="M284.6,454.7l-4.5,9.3c-1.8,3.7-5.5,6-9.6,6s-7.8-2.3-9.6-6l-4.5-9.3c-1.8-3.7-5.5-6-9.6-6s-7.8,2.3-9.6,6
			l-4.5,9.3c-2.2,4.5-7.1,6.8-11.9,5.7s-8.3-5.4-8.3-10.4s3.4-9.3,8.3-10.4s9.8,1.3,11.9,5.7l4.5,9.3c1.8,3.7,5.5,6,9.6,6
			s7.8-2.3,9.6-6l4.5-9.3c1.8-3.7,5.5-6,9.6-6s7.8,2.3,9.6,6l4.5,9.3c2.2,4.5,7.1,6.8,11.9,5.7s8.3-5.4,8.3-10.4s-3.4-9.3-8.3-10.4
			S286.8,450.3,284.6,454.7L284.6,454.7z"/>
		<path class="st0" d="M118.1,81.6c0-5.9,4.8-10.6,10.6-10.6c5.8,0,10.6,4.8,10.6,10.6s-4.8,10.6-10.6,10.6
			C122.9,92.2,118.1,87.5,118.1,81.6L118.1,81.6z"/>
	</g>
</g>
</svg>
