<?xml version="1.0" encoding="utf-8"?>
<!-- Generator: Adobe Illustrator 22.0.1, SVG Export Plug-In . SVG Version: 6.00 Build 0)  -->
<svg version="1.1" id="Livello_1" xmlns="http://www.w3.org/2000/svg" xmlns:xlink="http://www.w3.org/1999/xlink" x="0px" y="0px"
	 viewBox="0 0 903.2 263.5" style="enable-background:new 0 0 903.2 263.5;" xml:space="preserve">
<style type="text/css">
	.st0{fill:#0000FF;}
</style>
<path class="st0" d="M42.9,220.6L7.4,185.1c-9.8-9.8-9.8-25.7,0-35.5L42.9,114c9.8-9.8,9.8-25.7,0-35.5L7.4,42.9
	c-9.8-9.8-9.8-25.7,0-35.5c9.8-9.8,25.7-9.8,35.5,0s9.8,25.7,0,35.5L7.4,78.4c-9.8,9.8-9.8,25.7,0,35.5l35.5,35.5
	c9.8,9.8,9.8,25.7,0,35.5L7.4,220.6c-9.8,9.8-9.8,25.7,0,35.5c9.8,9.8,25.7,9.8,35.5,0S52.7,230.4,42.9,220.6z"/>
<path class="st0" d="M149.5,220.6l35.5-35.5c9.8-9.8,9.8-25.7,0-35.5c-9.8-9.8-25.7-9.8-35.5,0c-9.8,9.8-9.8,25.7,0,35.5l35.5,35.5
	c9.8,9.8,9.8,25.7,0,35.5c-9.8,9.8-25.7,9.8-35.5,0C139.7,246.3,139.7,230.4,149.5,220.6L149.5,220.6z"/>
<path class="st0" d="M114,78.4L78.3,42.8c-9.8-9.8-9.7-25.6,0.1-35.4c9.8-9.8,25.7-9.8,35.5,0c9.8,9.8,9.8,25.7,0,35.5L78.4,78.4
	c-7.2,7.2-9.3,18-5.4,27.4s13.1,15.5,23.2,15.5h71.1l0,0h71.1c10.2,0,19.3-6.1,23.2-15.5c3.9-9.4,1.7-20.2-5.4-27.4l-35.5-35.5
	c-9.8-9.8-9.8-25.7,0-35.5c9.8-9.8,25.7-9.8,35.5,0c9.8,9.8,9.8,25.7,0,35.5l-35.5,35.5L185.1,114c-9.8,9.8-25.7,9.8-35.5,0
	L114,78.4L114,78.4z"/>
<path class="st0" d="M149.5,42.9l35.5,35.5c9.8,9.8,9.8,25.7,0,35.5c-9.8,9.8-25.7,9.8-35.5,0c-9.8-9.8-9.8-25.7,0-35.5l35.5-35.5
	c9.8-9.8,9.8-25.7,0-35.5c-9.8-9.8-25.7-9.8-35.5,0C139.7,17.2,139.7,33.1,149.5,42.9L149.5,42.9z"/>
<path class="st0" d="M327.2,42.9l-35.5,35.5c-9.8,9.8-9.8,25.7,0,35.5l35.5,35.5c9.8,9.8,9.8,25.7,0,35.5l-35.5,35.5
	c-9.8,9.8-9.8,25.7,0,35.5c9.8,9.8,25.7,9.8,35.5,0c9.8-9.8,9.8-25.7,0-35.5l-35.5-35.5c-9.8-9.8-9.8-25.7,0-35.5l35.5-35.5
	c9.8-9.8,9.8-25.7,0-35.5l-35.5-35.5c-9.8-9.8-9.8-25.7,0-35.5c9.8-9.8,25.7-9.8,35.5,0C337,17.2,337,33.1,327.2,42.9L327.2,42.9z"
	/>
<path class="st0" d="M469.4,220.6l-35.5-35.5c-9.8-9.8-9.8-25.7,0-35.5c9.8-9.8,25.7-9.8,35.5,0c9.8,9.8,9.8,25.7,0,35.5l-35.5,35.5
	c-9.8,9.8-9.8,25.7,0,35.5c9.8,9.8,25.7,9.8,35.5,0C479.2,246.3,479.2,230.4,469.4,220.6z"/>
<path class="st0" d="M404.8,18.6l22.5,84.1c2.9,11,12.9,18.6,24.3,18.6s21.3-7.6,24.3-18.6l21.5-84.1C500.6,6.8,512.7-1,524.9,0.1
	s21.8,10.7,22.8,22.8s-6.8,23.3-18.5,26.5l-84.1,22.5C432.9,75.2,425,87,426.7,99.5c1.6,12.5,12.3,21.8,24.9,21.8
	s23.3-9.3,24.9-21.8s-6.2-24.3-18.4-27.6L374,49.4c-11.8-3.2-19.6-14.3-18.5-26.5s10.7-21.8,22.8-22.8S401.6,6.8,404.8,18.6z"/>
<path class="st0" d="M433.8,42.9l35.5,35.5c9.8,9.8,9.8,25.7,0,35.5c-9.8,9.8-25.7,9.8-35.5,0c-9.8-9.8-9.8-25.7,0-35.5l35.5-35.5
	c9.8-9.8,9.8-25.7,0-35.5c-9.8-9.8-25.7-9.8-35.5,0C424,17.2,424,33.1,433.8,42.9L433.8,42.9z"/>
<path class="st0" d="M576,42.9l35.5,35.5c9.8,9.8,9.8,25.7,0,35.5L576,149.5c-9.8,9.8-9.8,25.7,0,35.5l35.5,35.5
	c9.8,9.8,9.8,25.7,0,35.5c-9.8,9.8-25.7,9.8-35.5,0s-9.8-25.7,0-35.5l35.5-35.5c9.8-9.8,9.8-25.7,0-35.5L576,114
	c-9.8-9.8-9.8-25.7,0-35.5l35.5-35.5c9.8-9.8,9.8-25.7,0-35.5c-9.8-9.8-25.7-9.8-35.5,0S566.2,33.1,576,42.9L576,42.9z"/>
<path class="st0" d="M718.1,220.6l35.5-35.5c9.8-9.8,9.8-25.7,0-35.5c-9.8-9.8-25.7-9.8-35.5,0c-9.8,9.8-9.8,25.7,0,35.5l35.5,35.5
	c9.8,9.8,9.8,25.7,0,35.5c-9.8,9.8-25.7,9.8-35.5,0S708.3,230.4,718.1,220.6z"/>
<path class="st0" d="M647.4,43.2l35.2,35.2l0,0l35.5,35.5c9.8,9.8,25.7,9.8,35.5,0l35.5-35.5l0,0l35.5-35.5c9.8-9.8,9.8-25.7,0-35.5
	c-9.8-9.8-25.7-9.8-35.5,0s-9.8,25.7,0,35.5l35.5,35.5c7.2,7.2,9.3,18,5.4,27.4s-13.1,15.5-23.2,15.5h-71.1h-71.1
	c-10.2,0-19.3-6.1-23.2-15.5s-1.7-20.2,5.4-27.4l35.5-35.5c9.8-9.8,9.8-25.7,0-35.5c-9.8-9.8-25.7-9.8-35.5,0s-9.8,25.7,0,35.5
	L647.4,43.2z"/>
<path class="st0" d="M753.7,78.4l-35.5-35.5c-9.8-9.8-9.8-25.7,0-35.5c9.8-9.8,25.7-9.8,35.5,0s9.8,25.7,0,35.5l-35.5,35.5
	c-9.8,9.8-9.8,25.7,0,35.5c9.8,9.8,25.7,9.8,35.5,0S763.5,88.3,753.7,78.4L753.7,78.4z"/>
<path class="st0" d="M860.3,42.9l35.5,35.5c9.8,9.8,9.8,25.7,0,35.5l-35.5,35.5c-9.8,9.8-9.8,25.7,0,35.5l35.5,35.5
	c9.8,9.8,9.8,25.7,0,35.5c-9.8,9.8-25.7,9.8-35.5,0s-9.8-25.7,0-35.5l35.5-35.5c9.8-9.8,9.8-25.7,0-35.5L860.3,114
	c-9.8-9.8-9.8-25.7,0-35.5l35.5-35.5c9.8-9.8,9.8-25.7,0-35.5c-9.8-9.8-25.7-9.8-35.5,0S850.5,33.1,860.3,42.9L860.3,42.9z"/>
</svg>
