<?xml version="1.0" encoding="utf-8"?>
<!-- Generator: Adobe Illustrator 22.0.1, SVG Export Plug-In . SVG Version: 6.00 Build 0)  -->
<svg version="1.1" id="Livello_1" xmlns="http://www.w3.org/2000/svg" xmlns:xlink="http://www.w3.org/1999/xlink" x="0px" y="0px"
	 viewBox="0 0 566.9 207.3" style="enable-background:new 0 0 566.9 207.3;" xml:space="preserve">
<style type="text/css">
	.st0{fill:#FF0000;}
	.st1{fill:#FFFFFF;}
	.st2{fill:#0000FF;}
</style>
<g>
	<g>
		<path class="st0" d="M152.1,10.7c0-5.7,4.6-10.2,10.2-10.2c5.6,0,10.2,4.6,10.2,10.2c0,5.7-4.6,10.2-10.2,10.2
			C156.7,21,152.1,16.4,152.1,10.7z"/>
		<path class="st0" d="M172.8,10.7c0-5.7,4.6-10.2,10.2-10.2c5.6,0,10.2,4.6,10.2,10.2c0,5.7-4.6,10.2-10.2,10.2
			C177.4,21,172.8,16.4,172.8,10.7z"/>
		<path class="st0" d="M131.5,31.4c0-5.7,4.6-10.2,10.2-10.2s10.2,4.6,10.2,10.2c0,5.7-4.6,10.2-10.2,10.2
			C136,41.6,131.5,37.1,131.5,31.4z"/>
		<path class="st0" d="M172.8,31.4c0-5.7,4.6-10.2,10.2-10.2c5.6,0,10.2,4.6,10.2,10.2c0,5.7-4.6,10.2-10.2,10.2
			C177.4,41.6,172.8,37.1,172.8,31.4z"/>
		<path class="st0" d="M193.5,31.4c0-5.7,4.6-10.2,10.2-10.2c5.7,0,10.2,4.6,10.2,10.2c0,5.7-4.6,10.2-10.2,10.2
			C198.1,41.6,193.5,37.1,193.5,31.4L193.5,31.4z"/>
		<path class="st0" d="M131.5,52.1c0-5.7,4.6-10.2,10.2-10.2s10.2,4.6,10.2,10.2s-4.6,10.2-10.2,10.2
			C136,62.3,131.5,57.7,131.5,52.1z"/>
		<path class="st0" d="M152.1,52.1c0-5.7,4.6-10.2,10.2-10.2c5.6,0,10.2,4.6,10.2,10.2s-4.6,10.2-10.2,10.2
			C156.7,62.3,152.1,57.7,152.1,52.1z"/>
		<path class="st0" d="M193.5,52.1c0-5.7,4.6-10.2,10.2-10.2c5.7,0,10.2,4.6,10.2,10.2s-4.6,10.2-10.2,10.2
			C198.1,62.3,193.5,57.7,193.5,52.1L193.5,52.1z"/>
		<path class="st0" d="M152.1,72.8c0-5.7,4.6-10.2,10.2-10.2c5.6,0,10.2,4.6,10.2,10.2S168,83,162.4,83
			C156.7,83,152.1,78.4,152.1,72.8z"/>
		<path class="st0" d="M172.8,72.8c0-5.7,4.6-10.2,10.2-10.2c5.6,0,10.2,4.6,10.2,10.2S188.7,83,183,83
			C177.4,83,172.8,78.4,172.8,72.8z"/>
		<path class="st0" d="M214.2,52.1c0-5.7,4.6-10.2,10.2-10.2s10.2,4.6,10.2,10.2s-4.6,10.2-10.2,10.2S214.2,57.7,214.2,52.1z"/>
		<path class="st0" d="M214.2,72.8c0-5.7,4.6-10.2,10.2-10.2s10.2,4.6,10.2,10.2S230,83,224.4,83S214.2,78.4,214.2,72.8z"/>
		<path class="st0" d="M234.8,52.1c0-5.7,4.6-10.2,10.2-10.2c5.7,0,10.2,4.6,10.2,10.2s-4.6,10.2-10.2,10.2
			C239.4,62.3,234.8,57.7,234.8,52.1z"/>
		<path class="st0" d="M234.8,72.8c0-5.7,4.6-10.2,10.2-10.2c5.7,0,10.2,4.6,10.2,10.2S250.7,83,245.1,83
			C239.4,83,234.8,78.4,234.8,72.8z"/>
		<path class="st0" d="M255.5,31.4c0-5.7,4.6-10.2,10.2-10.2c5.7,0,10.2,4.6,10.2,10.2c0,5.7-4.6,10.2-10.2,10.2
			C260.1,41.6,255.5,37.1,255.5,31.4z"/>
		<path class="st0" d="M255.5,52.1c0-5.7,4.6-10.2,10.2-10.2c5.7,0,10.2,4.6,10.2,10.2s-4.6,10.2-10.2,10.2
			C260.1,62.3,255.5,57.7,255.5,52.1z"/>
		<path class="st0" d="M276.2,10.7c0-5.7,4.6-10.2,10.2-10.2s10.2,4.6,10.2,10.2c0,5.7-4.6,10.2-10.2,10.2S276.2,16.4,276.2,10.7z"
			/>
		<path class="st0" d="M276.2,31.4c0-5.7,4.6-10.2,10.2-10.2s10.2,4.6,10.2,10.2c0,5.7-4.6,10.2-10.2,10.2S276.2,37.1,276.2,31.4z"
			/>
		<path class="st0" d="M276.2,72.8c0-5.7,4.6-10.2,10.2-10.2s10.2,4.6,10.2,10.2S292.1,83,286.4,83S276.2,78.4,276.2,72.8z"/>
		<path class="st0" d="M172.8,93.4c0-5.7,4.6-10.2,10.2-10.2c5.6,0,10.2,4.6,10.2,10.2c0,5.7-4.6,10.2-10.2,10.2
			C177.4,103.7,172.8,99.1,172.8,93.4z"/>
		<path class="st0" d="M193.5,93.4c0-5.7,4.6-10.2,10.2-10.2c5.7,0,10.2,4.6,10.2,10.2c0,5.7-4.6,10.2-10.2,10.2
			C198.1,103.7,193.5,99.1,193.5,93.4L193.5,93.4z"/>
		<path class="st0" d="M255.5,93.4c0-5.7,4.6-10.2,10.2-10.2c5.7,0,10.2,4.6,10.2,10.2c0,5.7-4.6,10.2-10.2,10.2
			C260.1,103.7,255.5,99.1,255.5,93.4z"/>
		<path class="st0" d="M276.2,93.4c0-5.7,4.6-10.2,10.2-10.2s10.2,4.6,10.2,10.2c0,5.7-4.6,10.2-10.2,10.2S276.2,99.1,276.2,93.4z"
			/>
		<path class="st0" d="M172.8,114.1c0-5.7,4.6-10.2,10.2-10.2c5.6,0,10.2,4.6,10.2,10.2c0,5.7-4.6,10.2-10.2,10.2
			C177.4,124.3,172.8,119.8,172.8,114.1z"/>
		<path class="st0" d="M193.5,114.1c0-5.7,4.6-10.2,10.2-10.2c5.7,0,10.2,4.6,10.2,10.2c0,5.7-4.6,10.2-10.2,10.2
			C198.1,124.3,193.5,119.8,193.5,114.1L193.5,114.1z"/>
		<path class="st0" d="M255.5,114.1c0-5.7,4.6-10.2,10.2-10.2c5.7,0,10.2,4.6,10.2,10.2c0,5.7-4.6,10.2-10.2,10.2
			C260.1,124.3,255.5,119.8,255.5,114.1z"/>
		<path class="st0" d="M276.2,114.1c0-5.7,4.6-10.2,10.2-10.2s10.2,4.6,10.2,10.2c0,5.7-4.6,10.2-10.2,10.2S276.2,119.8,276.2,114.1
			z"/>
		<path class="st0" d="M152.1,134.8c0-5.7,4.6-10.2,10.2-10.2c5.6,0,10.2,4.6,10.2,10.2c0,5.7-4.6,10.2-10.2,10.2
			C156.7,145,152.1,140.4,152.1,134.8z"/>
		<path class="st0" d="M172.8,134.8c0-5.7,4.6-10.2,10.2-10.2c5.6,0,10.2,4.6,10.2,10.2c0,5.7-4.6,10.2-10.2,10.2
			C177.4,145,172.8,140.4,172.8,134.8z"/>
		<path class="st0" d="M214.2,134.8c0-5.7,4.6-10.2,10.2-10.2s10.2,4.6,10.2,10.2c0,5.7-4.6,10.2-10.2,10.2S214.2,140.4,214.2,134.8
			z"/>
		<path class="st0" d="M234.8,134.8c0-5.7,4.6-10.2,10.2-10.2c5.7,0,10.2,4.6,10.2,10.2c0,5.7-4.6,10.2-10.2,10.2
			C239.4,145,234.8,140.4,234.8,134.8z"/>
		<path class="st0" d="M276.2,134.8c0-5.7,4.6-10.2,10.2-10.2s10.2,4.6,10.2,10.2c0,5.7-4.6,10.2-10.2,10.2S276.2,140.4,276.2,134.8
			z"/>
		<path class="st0" d="M131.5,155.5c0-5.7,4.6-10.2,10.2-10.2s10.2,4.6,10.2,10.2c0,5.7-4.6,10.2-10.2,10.2
			C136,165.7,131.5,161.1,131.5,155.5z"/>
		<path class="st0" d="M152.1,155.5c0-5.7,4.6-10.2,10.2-10.2c5.6,0,10.2,4.6,10.2,10.2c0,5.7-4.6,10.2-10.2,10.2
			C156.7,165.7,152.1,161.1,152.1,155.5z"/>
		<path class="st0" d="M193.5,155.5c0-5.7,4.6-10.2,10.2-10.2c5.7,0,10.2,4.6,10.2,10.2c0,5.7-4.6,10.2-10.2,10.2
			C198.1,165.7,193.5,161.1,193.5,155.5L193.5,155.5z"/>
		<path class="st0" d="M214.2,155.5c0-5.7,4.6-10.2,10.2-10.2s10.2,4.6,10.2,10.2c0,5.7-4.6,10.2-10.2,10.2S214.2,161.1,214.2,155.5
			z"/>
		<path class="st0" d="M234.8,155.5c0-5.7,4.6-10.2,10.2-10.2c5.7,0,10.2,4.6,10.2,10.2c0,5.7-4.6,10.2-10.2,10.2
			C239.4,165.7,234.8,161.1,234.8,155.5z"/>
		<path class="st0" d="M255.5,155.5c0-5.7,4.6-10.2,10.2-10.2c5.7,0,10.2,4.6,10.2,10.2c0,5.7-4.6,10.2-10.2,10.2
			C260.1,165.7,255.5,161.1,255.5,155.5z"/>
		<path class="st0" d="M296.9,10.7c0-5.7,4.6-10.2,10.2-10.2c5.7,0,10.2,4.6,10.2,10.2c0,5.7-4.6,10.2-10.2,10.2
			C301.4,21,296.9,16.4,296.9,10.7z"/>
		<path class="st0" d="M296.9,52.1c0-5.7,4.6-10.2,10.2-10.2c5.7,0,10.2,4.6,10.2,10.2s-4.6,10.2-10.2,10.2
			C301.4,62.3,296.9,57.7,296.9,52.1z"/>
		<path class="st0" d="M296.9,72.8c0-5.7,4.6-10.2,10.2-10.2c5.7,0,10.2,4.6,10.2,10.2S312.7,83,307.1,83
			C301.4,83,296.9,78.4,296.9,72.8z"/>
		<path class="st0" d="M296.9,134.8c0-5.7,4.6-10.2,10.2-10.2c5.7,0,10.2,4.6,10.2,10.2c0,5.7-4.6,10.2-10.2,10.2
			C301.4,145,296.9,140.4,296.9,134.8z"/>
		<path class="st0" d="M296.9,155.5c0-5.7,4.6-10.2,10.2-10.2c5.7,0,10.2,4.6,10.2,10.2c0,5.7-4.6,10.2-10.2,10.2
			C301.4,165.7,296.9,161.1,296.9,155.5z"/>
		<path class="st0" d="M317.5,31.4c0-5.7,4.6-10.2,10.2-10.2c5.7,0,10.2,4.6,10.2,10.2c0,5.7-4.6,10.2-10.2,10.2
			C322.1,41.6,317.5,37.1,317.5,31.4z"/>
		<path class="st0" d="M317.5,52.1c0-5.7,4.6-10.2,10.2-10.2c5.7,0,10.2,4.6,10.2,10.2s-4.6,10.2-10.2,10.2S317.5,57.7,317.5,52.1z"
			/>
		<path class="st0" d="M317.5,155.5c0-5.7,4.6-10.2,10.2-10.2c5.7,0,10.2,4.6,10.2,10.2c0,5.7-4.6,10.2-10.2,10.2
			C322.1,165.7,317.5,161.1,317.5,155.5z"/>
		<path class="st0" d="M131.5,176.1c0-5.7,4.6-10.2,10.2-10.2s10.2,4.6,10.2,10.2s-4.6,10.2-10.2,10.2
			C136,186.4,131.5,181.8,131.5,176.1z"/>
		<path class="st0" d="M172.8,176.1c0-5.7,4.6-10.2,10.2-10.2c5.6,0,10.2,4.6,10.2,10.2s-4.6,10.2-10.2,10.2
			C177.4,186.4,172.8,181.8,172.8,176.1z"/>
		<path class="st0" d="M193.5,176.1c0-5.7,4.6-10.2,10.2-10.2c5.7,0,10.2,4.6,10.2,10.2s-4.6,10.2-10.2,10.2
			C198.1,186.4,193.5,181.8,193.5,176.1L193.5,176.1z"/>
		<path class="st0" d="M255.5,176.1c0-5.7,4.6-10.2,10.2-10.2c5.7,0,10.2,4.6,10.2,10.2s-4.6,10.2-10.2,10.2
			C260.1,186.4,255.5,181.8,255.5,176.1z"/>
		<path class="st0" d="M276.2,176.1c0-5.7,4.6-10.2,10.2-10.2s10.2,4.6,10.2,10.2s-4.6,10.2-10.2,10.2S276.2,181.8,276.2,176.1z"/>
		<path class="st0" d="M317.5,176.1c0-5.7,4.6-10.2,10.2-10.2c5.7,0,10.2,4.6,10.2,10.2s-4.6,10.2-10.2,10.2
			C322.1,186.4,317.5,181.8,317.5,176.1z"/>
		<path class="st0" d="M152.1,196.8c0-5.7,4.6-10.2,10.2-10.2c5.6,0,10.2,4.6,10.2,10.2c0,5.7-4.6,10.2-10.2,10.2
			C156.7,207,152.1,202.5,152.1,196.8z"/>
		<path class="st0" d="M172.8,196.8c0-5.7,4.6-10.2,10.2-10.2c5.6,0,10.2,4.6,10.2,10.2c0,5.7-4.6,10.2-10.2,10.2
			C177.4,207,172.8,202.5,172.8,196.8z"/>
		<path class="st0" d="M276.2,196.8c0-5.7,4.6-10.2,10.2-10.2s10.2,4.6,10.2,10.2c0,5.7-4.6,10.2-10.2,10.2S276.2,202.5,276.2,196.8
			z"/>
		<path class="st0" d="M296.9,196.8c0-5.7,4.6-10.2,10.2-10.2c5.7,0,10.2,4.6,10.2,10.2c0,5.7-4.6,10.2-10.2,10.2
			C301.4,207,296.9,202.5,296.9,196.8z"/>
		<path class="st0" d="M162.5,21l-20.9,0.2c-5.6,0.1-10.2,4.6-10.1,10.3s4.6,10.2,10.2,10.2c5.6,0,10.2-4.5,10.3-10.1l0.2-20.9
			c0.1-5.6,4.6-10.2,10.3-10.1c5.6,0,10.2,4.6,10.2,10.2C172.6,16.3,168.1,20.9,162.5,21L162.5,21z"/>
		<path class="st0" d="M151.9,176l0.2,20.9c0.1,5.6,4.6,10.2,10.3,10.1c5.6,0,10.2-4.6,10.2-10.2c0-5.6-4.5-10.2-10.1-10.3
			l-20.9-0.2c-5.6-0.1-10.2-4.6-10.1-10.3c0-5.6,4.6-10.2,10.2-10.2C147.3,165.9,151.9,170.4,151.9,176L151.9,176z"/>
		<path class="st0" d="M307,186.6l20.9-0.2c5.6-0.1,10.2-4.6,10.1-10.3c0-5.6-4.6-10.2-10.2-10.2c-5.6,0-10.2,4.5-10.3,10.1
			l-0.2,20.9c-0.1,5.6-4.6,10.2-10.3,10.1s-10.2-4.6-10.2-10.2C296.8,191.2,301.4,186.6,307,186.6L307,186.6z"/>
		<path class="st0" d="M307,21l20.9,0.2c5.6,0.1,10.2,4.6,10.1,10.3c0,5.6-4.6,10.2-10.2,10.2c-5.6,0-10.2-4.5-10.3-10.1l-0.2-20.9
			c-0.1-5.6-4.6-10.2-10.3-10.1c-5.6,0-10.2,4.6-10.2,10.2C296.8,16.3,301.4,20.9,307,21L307,21z"/>
		<path class="st0" d="M131.7,54.1l20.1,99.3c0.8,4.1-0.9,8.2-4.3,10.5c-3.4,2.3-7.9,2.3-11.4,0c-3.4-2.3-5.2-6.5-4.3-10.5
			l20.1-99.3c0.8-4.1-0.9-8.2-4.3-10.5c-3.4-2.3-7.9-2.3-11.4,0C132.5,45.9,130.8,50,131.7,54.1z"/>
		<path class="st0" d="M317.7,54.1l20.1,99.3c0.8,4.1-0.9,8.2-4.3,10.5s-7.9,2.3-11.4,0s-5.2-6.5-4.3-10.5l20.1-99.3
			c0.8-4.1-0.9-8.2-4.3-10.5c-3.4-2.3-7.9-2.3-11.4,0S316.9,50,317.7,54.1L317.7,54.1z"/>
		<path class="st0" d="M185.1,0.7l99.3,20.1c4.1,0.8,8.2-0.9,10.5-4.3c2.3-3.4,2.3-7.9,0-11.4c-2.3-3.4-6.5-5.2-10.5-4.3l-99.3,20.1
			c-4.1,0.8-8.2-0.9-10.5-4.3c-2.3-3.4-2.3-7.9,0-11.4C176.8,1.6,181-0.1,185.1,0.7L185.1,0.7z"/>
		<path class="st0" d="M185.1,186.8l99.3,20.1c4.1,0.8,8.2-0.9,10.5-4.3c2.3-3.4,2.3-7.9,0-11.4c-2.3-3.4-6.5-5.2-10.5-4.3
			l-99.3,20.1c-4.1,0.8-8.2-0.9-10.5-4.3c-2.3-3.4-2.3-7.9,0-11.4C176.8,187.7,181,186,185.1,186.8L185.1,186.8z"/>
		<path class="st0" d="M162.3,41.8l20.9-0.2c5.6-0.1,10.2-4.6,10.1-10.3s-4.6-10.2-10.2-10.2c-5.6,0-10.2,4.5-10.3,10.1l-0.2,20.9
			c-0.1,5.6-4.6,10.2-10.3,10.1c-5.6,0-10.2-4.6-10.2-10.2C152.1,46.5,156.6,41.9,162.3,41.8L162.3,41.8z"/>
		<path class="st0" d="M286.3,41.6l20.9,0.2c5.6,0.1,10.2,4.6,10.1,10.3c0,5.6-4.6,10.2-10.2,10.2c-5.6,0-10.2-4.5-10.3-10.1
			l-0.2-20.9c-0.1-5.6-4.6-10.2-10.3-10.1c-5.6,0-10.2,4.6-10.2,10.2C276.2,37,280.7,41.6,286.3,41.6L286.3,41.6z"/>
		<path class="st0" d="M172.6,155.4l0.2,20.9c0.1,5.6,4.6,10.2,10.3,10.1c5.6,0,10.2-4.6,10.2-10.2c0-5.6-4.5-10.2-10.1-10.3
			l-20.9-0.2c-5.6-0.1-10.2-4.6-10.1-10.3c0-5.6,4.6-10.2,10.2-10.2C168,145.2,172.5,149.7,172.6,155.4L172.6,155.4z"/>
		<path class="st0" d="M286.3,165.9l20.9-0.2c5.6-0.1,10.2-4.6,10.1-10.3s-4.6-10.2-10.2-10.2c-5.6,0-10.2,4.5-10.3,10.1l-0.2,20.9
			c-0.1,5.6-4.6,10.2-10.3,10.1c-5.6,0-10.2-4.6-10.2-10.2C276.2,170.5,280.7,166,286.3,165.9L286.3,165.9z"/>
		<path class="st0" d="M152.7,76.1l19.3,55.3c1.5,4.2,0,8.9-3.6,11.6c-3.6,2.7-8.5,2.7-12.2,0c-3.6-2.7-5.1-7.4-3.6-11.6L172,76.1
			c1.5-4.2,0-8.9-3.6-11.6c-3.6-2.7-8.5-2.7-12.2,0C152.7,67.2,151.2,71.9,152.7,76.1z"/>
		<path class="st0" d="M297.4,76.1l19.3,55.3c1.5,4.2,0,8.9-3.6,11.6c-3.6,2.7-8.5,2.7-12.2,0c-3.6-2.7-5.1-7.4-3.6-11.6l19.3-55.3
			c1.5-4.2,0-8.9-3.6-11.6c-3.6-2.7-8.5-2.7-12.2,0C297.4,67.2,296,71.9,297.4,76.1L297.4,76.1z"/>
		<path class="st0" d="M207.1,21.7l55.3,19.3c4.2,1.5,8.9,0,11.6-3.6c2.7-3.6,2.7-8.5,0-12.2c-2.7-3.6-7.4-5.1-11.6-3.6l-55.3,19.3
			c-4.2,1.5-8.9,0-11.6-3.6c-2.7-3.6-2.7-8.5,0-12.2C198.1,21.7,202.9,20.3,207.1,21.7L207.1,21.7z"/>
		<path class="st0" d="M207.1,166.5l55.3,19.3c4.2,1.5,8.9,0,11.6-3.6c2.7-3.6,2.7-8.5,0-12.2c-2.7-3.6-7.4-5.1-11.6-3.6l-55.3,19.3
			c-4.2,1.5-8.9,0-11.6-3.6c-2.7-3.6-2.7-8.5,0-12.2C198.1,166.4,202.9,165,207.1,166.5z"/>
		<path class="st0" d="M182.9,62.5l20.9-0.2c5.6-0.1,10.2-4.6,10.1-10.3c0-5.6-4.6-10.2-10.2-10.2c-5.6,0-10.2,4.5-10.3,10.1
			l-0.2,20.9C193.2,78.5,188.6,83,183,83c-5.6,0-10.2-4.6-10.2-10.2C172.8,67.2,177.3,62.6,182.9,62.5L182.9,62.5z"/>
		<path class="st0" d="M276,52l0.2,20.9c0.1,5.6,4.6,10.2,10.3,10.1c5.6,0,10.2-4.6,10.2-10.2c0-5.6-4.5-10.2-10.1-10.3l-20.9-0.2
			c-5.6-0.1-10.2-4.6-10.1-10.3s4.6-10.2,10.2-10.2C271.3,41.8,275.9,46.4,276,52L276,52z"/>
		<path class="st0" d="M276.2,134.7l-0.2,20.9c-0.1,5.6-4.6,10.2-10.3,10.1c-5.6,0-10.2-4.6-10.2-10.2c0-5.6,4.5-10.2,10.1-10.3
			l20.9-0.2c5.6-0.1,10.2-4.6,10.1-10.3c0-5.6-4.6-10.2-10.2-10.2C280.8,124.5,276.2,129.1,276.2,134.7L276.2,134.7z"/>
		<path class="st0" d="M182.9,145l20.9,0.2c5.6,0.1,10.2,4.6,10.1,10.3s-4.6,10.2-10.2,10.2c-5.6,0-10.2-4.5-10.3-10.1l-0.2-20.9
			c-0.1-5.6-4.6-10.2-10.3-10.1c-5.6,0-10.2,4.6-10.2,10.2C172.8,140.4,177.3,145,182.9,145L182.9,145z"/>
		<path class="st0" d="M172.8,114.1V93.4c0-5.7,4.6-10.2,10.2-10.2c5.6,0,10.2,4.6,10.2,10.2v20.7c0,5.7-4.6,10.2-10.2,10.2
			C177.4,124.3,172.8,119.8,172.8,114.1L172.8,114.1z"/>
		<path class="st0" d="M276.2,93.4v20.7c0,5.7,4.6,10.2,10.2,10.2s10.2-4.6,10.2-10.2V93.4c0-5.7-4.6-10.2-10.2-10.2
			S276.2,87.8,276.2,93.4L276.2,93.4z"/>
		<path class="st0" d="M224.4,62.3h20.7c5.7,0,10.2-4.6,10.2-10.2s-4.6-10.2-10.2-10.2h-20.7c-5.7,0-10.2,4.6-10.2,10.2
			S218.7,62.3,224.4,62.3z"/>
		<path class="st0" d="M224.4,145.2h20.7c5.7,0,10.2,4.6,10.2,10.2c0,5.7-4.6,10.2-10.2,10.2h-20.7c-5.7,0-10.2-4.6-10.2-10.2
			C214.2,149.8,218.7,145.2,224.4,145.2z"/>
		<path class="st0" d="M213.9,93.5l0.2-20.9c0.1-5.6,4.6-10.2,10.3-10.1c5.6,0,10.2,4.6,10.2,10.2c0,5.6-4.5,10.2-10.1,10.3
			l-20.9,0.2c-5.6,0.1-10.2,4.6-10.1,10.3c0,5.6,4.6,10.2,10.2,10.2C209.3,103.7,213.9,99.2,213.9,93.5L213.9,93.5z"/>
		<path class="st0" d="M245,83l20.9,0.2c5.6,0.1,10.2,4.6,10.1,10.3c0,5.6-4.6,10.2-10.2,10.2c-5.6,0-10.2-4.5-10.3-10.1l-0.2-20.9
			c-0.1-5.6-4.6-10.2-10.3-10.1c-5.6,0-10.2,4.6-10.2,10.2S239.3,82.9,245,83L245,83z"/>
		<path class="st0" d="M213.9,114l0.2,20.9c0.1,5.6,4.6,10.2,10.3,10.1c5.6,0,10.2-4.6,10.2-10.2c0-5.6-4.5-10.2-10.1-10.3
			l-20.9-0.2c-5.6-0.1-10.2-4.6-10.1-10.3s4.6-10.2,10.2-10.2C209.3,103.9,213.9,108.4,213.9,114L213.9,114z"/>
		<path class="st0" d="M265.8,124.3l-20.9,0.2c-5.6,0.1-10.2,4.6-10.1,10.3c0,5.6,4.6,10.2,10.2,10.2c5.6,0,10.2-4.5,10.3-10.1
			l0.2-20.9c0.1-5.6,4.6-10.2,10.3-10.1c5.6,0,10.2,4.6,10.2,10.2C276,119.7,271.5,124.3,265.8,124.3L265.8,124.3z"/>
	</g>
	<g>
		<path class="st0" d="M360.4,11c0-5.7,4.6-10.2,10.2-10.2c5.7,0,10.2,4.6,10.2,10.2c0,5.7-4.6,10.2-10.2,10.2
			C365,21.2,360.4,16.6,360.4,11z"/>
		<path class="st0" d="M381,11c0-5.7,4.6-10.2,10.2-10.2c5.7,0,10.2,4.6,10.2,10.2c0,5.7-4.6,10.2-10.2,10.2
			C385.6,21.2,381,16.6,381,11z"/>
		<path class="st0" d="M381,31.6c0-5.7,4.6-10.2,10.2-10.2c5.7,0,10.2,4.6,10.2,10.2c0,5.7-4.6,10.2-10.2,10.2
			C385.6,41.9,381,37.3,381,31.6z"/>
		<path class="st0" d="M401.7,31.6c0-5.7,4.6-10.2,10.2-10.2c5.7,0,10.2,4.6,10.2,10.2c0,5.7-4.6,10.2-10.2,10.2
			C406.3,41.9,401.7,37.3,401.7,31.6z"/>
		<path class="st0" d="M401.7,52.3c0-5.7,4.6-10.2,10.2-10.2c5.7,0,10.2,4.6,10.2,10.2s-4.6,10.2-10.2,10.2
			C406.3,62.5,401.7,58,401.7,52.3z"/>
		<path class="st0" d="M422.4,52.3c0-5.7,4.6-10.2,10.2-10.2c5.7,0,10.2,4.6,10.2,10.2s-4.6,10.2-10.2,10.2
			C427,62.5,422.4,58,422.4,52.3L422.4,52.3z"/>
		<path class="st0" d="M422.4,73c0-5.7,4.6-10.2,10.2-10.2c5.7,0,10.2,4.6,10.2,10.2c0,5.7-4.6,10.2-10.2,10.2
			C427,83.2,422.4,78.6,422.4,73L422.4,73z"/>
		<path class="st0" d="M443.1,11c0-5.7,4.6-10.2,10.2-10.2s10.2,4.6,10.2,10.2c0,5.7-4.6,10.2-10.2,10.2S443.1,16.6,443.1,11z"/>
		<path class="st0" d="M443.1,73c0-5.7,4.6-10.2,10.2-10.2s10.2,4.6,10.2,10.2c0,5.7-4.6,10.2-10.2,10.2S443.1,78.6,443.1,73z"/>
		<path class="st0" d="M463.8,11c0-5.7,4.6-10.2,10.2-10.2c5.7,0,10.2,4.6,10.2,10.2c0,5.7-4.6,10.2-10.2,10.2S463.8,16.6,463.8,11z
			"/>
		<path class="st0" d="M463.8,73c0-5.7,4.6-10.2,10.2-10.2c5.7,0,10.2,4.6,10.2,10.2c0,5.7-4.6,10.2-10.2,10.2S463.8,78.6,463.8,73z
			"/>
		<path class="st0" d="M484.4,52.3c0-5.7,4.6-10.2,10.2-10.2c5.7,0,10.2,4.6,10.2,10.2s-4.6,10.2-10.2,10.2
			C489,62.5,484.4,58,484.4,52.3z"/>
		<path class="st0" d="M484.4,73c0-5.7,4.6-10.2,10.2-10.2c5.7,0,10.2,4.6,10.2,10.2c0,5.7-4.6,10.2-10.2,10.2
			C489,83.2,484.4,78.6,484.4,73z"/>
		<path class="st0" d="M505.1,31.6c0-5.7,4.6-10.2,10.2-10.2c5.7,0,10.2,4.6,10.2,10.2c0,5.7-4.6,10.2-10.2,10.2
			C509.7,41.9,505.1,37.3,505.1,31.6z"/>
		<path class="st0" d="M505.1,52.3c0-5.7,4.6-10.2,10.2-10.2c5.7,0,10.2,4.6,10.2,10.2s-4.6,10.2-10.2,10.2
			C509.7,62.5,505.1,58,505.1,52.3z"/>
		<path class="st0" d="M360.4,93.7c0-5.7,4.6-10.2,10.2-10.2c5.7,0,10.2,4.6,10.2,10.2c0,5.7-4.6,10.2-10.2,10.2
			C365,103.9,360.4,99.3,360.4,93.7z"/>
		<path class="st0" d="M401.7,93.7c0-5.7,4.6-10.2,10.2-10.2c5.7,0,10.2,4.6,10.2,10.2c0,5.7-4.6,10.2-10.2,10.2
			C406.3,103.9,401.7,99.3,401.7,93.7z"/>
		<path class="st0" d="M505.1,93.7c0-5.7,4.6-10.2,10.2-10.2c5.7,0,10.2,4.6,10.2,10.2c0,5.7-4.6,10.2-10.2,10.2
			C509.7,103.9,505.1,99.3,505.1,93.7z"/>
		<path class="st0" d="M360.4,114.3c0-5.7,4.6-10.2,10.2-10.2c5.7,0,10.2,4.6,10.2,10.2c0,5.7-4.6,10.2-10.2,10.2
			C365,124.6,360.4,120,360.4,114.3z"/>
		<path class="st0" d="M401.7,114.3c0-5.7,4.6-10.2,10.2-10.2c5.7,0,10.2,4.6,10.2,10.2c0,5.7-4.6,10.2-10.2,10.2
			C406.3,124.6,401.7,120,401.7,114.3z"/>
		<path class="st0" d="M505.1,114.3c0-5.7,4.6-10.2,10.2-10.2c5.7,0,10.2,4.6,10.2,10.2c0,5.7-4.6,10.2-10.2,10.2
			C509.7,124.6,505.1,120,505.1,114.3z"/>
		<path class="st0" d="M422.4,135c0-5.7,4.6-10.2,10.2-10.2c5.7,0,10.2,4.6,10.2,10.2c0,5.7-4.6,10.2-10.2,10.2
			C427,145.2,422.4,140.7,422.4,135L422.4,135z"/>
		<path class="st0" d="M443.1,135c0-5.7,4.6-10.2,10.2-10.2s10.2,4.6,10.2,10.2c0,5.7-4.6,10.2-10.2,10.2S443.1,140.7,443.1,135z"/>
		<path class="st0" d="M463.8,135c0-5.7,4.6-10.2,10.2-10.2c5.7,0,10.2,4.6,10.2,10.2c0,5.7-4.6,10.2-10.2,10.2
			S463.8,140.7,463.8,135z"/>
		<path class="st0" d="M484.4,135c0-5.7,4.6-10.2,10.2-10.2c5.7,0,10.2,4.6,10.2,10.2c0,5.7-4.6,10.2-10.2,10.2
			C489,145.2,484.4,140.7,484.4,135z"/>
		<path class="st0" d="M401.7,155.7c0-5.7,4.6-10.2,10.2-10.2c5.7,0,10.2,4.6,10.2,10.2c0,5.7-4.6,10.2-10.2,10.2
			C406.3,165.9,401.7,161.3,401.7,155.7z"/>
		<path class="st0" d="M422.4,155.7c0-5.7,4.6-10.2,10.2-10.2c5.7,0,10.2,4.6,10.2,10.2c0,5.7-4.6,10.2-10.2,10.2
			C427,165.9,422.4,161.3,422.4,155.7L422.4,155.7z"/>
		<path class="st0" d="M484.4,155.7c0-5.7,4.6-10.2,10.2-10.2c5.7,0,10.2,4.6,10.2,10.2c0,5.7-4.6,10.2-10.2,10.2
			C489,165.9,484.4,161.3,484.4,155.7z"/>
		<path class="st0" d="M505.1,155.7c0-5.7,4.6-10.2,10.2-10.2c5.7,0,10.2,4.6,10.2,10.2c0,5.7-4.6,10.2-10.2,10.2
			C509.7,165.9,505.1,161.3,505.1,155.7z"/>
		<path class="st0" d="M525.8,11c0-5.7,4.6-10.2,10.2-10.2c5.7,0,10.2,4.6,10.2,10.2c0,5.7-4.6,10.2-10.2,10.2
			C530.4,21.2,525.8,16.6,525.8,11z"/>
		<path class="st0" d="M525.8,31.6c0-5.7,4.6-10.2,10.2-10.2c5.7,0,10.2,4.6,10.2,10.2c0,5.7-4.6,10.2-10.2,10.2
			C530.4,41.9,525.8,37.3,525.8,31.6z"/>
		<path class="st0" d="M546.5,11c0-5.7,4.6-10.2,10.2-10.2c5.7,0,10.2,4.6,10.2,10.2c0,5.7-4.6,10.2-10.2,10.2
			C551,21.2,546.5,16.6,546.5,11z"/>
		<path class="st0" d="M546.5,93.7c0-5.7,4.6-10.2,10.2-10.2c5.7,0,10.2,4.6,10.2,10.2c0,5.7-4.6,10.2-10.2,10.2
			C551,103.9,546.5,99.3,546.5,93.7z"/>
		<path class="st0" d="M546.5,114.3c0-5.7,4.6-10.2,10.2-10.2c5.7,0,10.2,4.6,10.2,10.2c0,5.7-4.6,10.2-10.2,10.2
			C551,124.6,546.5,120,546.5,114.3z"/>
		<path class="st0" d="M381,176.4c0-5.7,4.6-10.2,10.2-10.2c5.7,0,10.2,4.6,10.2,10.2s-4.6,10.2-10.2,10.2
			C385.6,186.6,381,182,381,176.4z"/>
		<path class="st0" d="M401.7,176.4c0-5.7,4.6-10.2,10.2-10.2c5.7,0,10.2,4.6,10.2,10.2s-4.6,10.2-10.2,10.2
			C406.3,186.6,401.7,182,401.7,176.4z"/>
		<path class="st0" d="M505.1,176.4c0-5.7,4.6-10.2,10.2-10.2c5.7,0,10.2,4.6,10.2,10.2s-4.6,10.2-10.2,10.2
			C509.7,186.6,505.1,182,505.1,176.4z"/>
		<path class="st0" d="M525.8,176.4c0-5.7,4.6-10.2,10.2-10.2c5.7,0,10.2,4.6,10.2,10.2s-4.6,10.2-10.2,10.2
			C530.4,186.6,525.8,182,525.8,176.4z"/>
		<path class="st0" d="M360.4,197c0-5.7,4.6-10.2,10.2-10.2c5.7,0,10.2,4.6,10.2,10.2c0,5.7-4.6,10.2-10.2,10.2
			C365,207.3,360.4,202.7,360.4,197z"/>
		<path class="st0" d="M381,197c0-5.7,4.6-10.2,10.2-10.2c5.7,0,10.2,4.6,10.2,10.2c0,5.7-4.6,10.2-10.2,10.2
			C385.6,207.3,381,202.7,381,197z"/>
		<path class="st0" d="M443.1,197c0-5.7,4.6-10.2,10.2-10.2s10.2,4.6,10.2,10.2c0,5.7-4.6,10.2-10.2,10.2S443.1,202.7,443.1,197z"/>
		<path class="st0" d="M463.8,197c0-5.7,4.6-10.2,10.2-10.2c5.7,0,10.2,4.6,10.2,10.2c0,5.7-4.6,10.2-10.2,10.2
			S463.8,202.7,463.8,197z"/>
		<path class="st0" d="M525.8,197c0-5.7,4.6-10.2,10.2-10.2c5.7,0,10.2,4.6,10.2,10.2c0,5.7-4.6,10.2-10.2,10.2
			C530.4,207.3,525.8,202.7,525.8,197z"/>
		<path class="st0" d="M546.5,197c0-5.7,4.6-10.2,10.2-10.2c5.7,0,10.2,4.6,10.2,10.2c0,5.7-4.6,10.2-10.2,10.2
			C551,207.3,546.5,202.7,546.5,197z"/>
		<path class="st0" d="M360.7,13.5l19.8,77.6c1.1,4.1-0.6,8.5-4.1,10.9c-3.5,2.4-8.2,2.4-11.7,0c-3.5-2.4-5.1-6.8-4.1-10.9
			l19.8-77.6c1.1-4.1-0.6-8.5-4.1-10.9c-3.5-2.4-8.2-2.4-11.7,0C361.3,5,359.6,9.3,360.7,13.5z"/>
		<path class="st0" d="M360.7,116.9l19.8,77.6c1.1,4.1-0.6,8.5-4.1,10.9c-3.5,2.4-8.2,2.4-11.7,0c-3.5-2.4-5.1-6.8-4.1-10.9
			l19.8-77.6c1.1-4.1-0.6-8.5-4.1-10.9c-3.5-2.4-8.2-2.4-11.7,0C361.3,108.4,359.6,112.7,360.7,116.9L360.7,116.9z"/>
		<path class="st0" d="M546.8,13.5l19.8,77.6c1.1,4.1-0.6,8.5-4.1,10.9c-3.5,2.4-8.2,2.4-11.7,0c-3.5-2.4-5.1-6.8-4.1-10.9
			l19.8-77.6c1.1-4.1-0.6-8.5-4.1-10.9c-3.5-2.4-8.2-2.4-11.7,0C547.3,5,545.7,9.3,546.8,13.5L546.8,13.5z"/>
		<path class="st0" d="M546.8,116.9l19.8,77.6c1.1,4.1-0.6,8.5-4.1,10.9c-3.5,2.4-8.2,2.4-11.7,0c-3.5-2.4-5.1-6.8-4.1-10.9
			l19.8-77.6c1.1-4.1-0.6-8.5-4.1-10.9c-3.5-2.4-8.2-2.4-11.7,0C547.3,108.4,545.7,112.7,546.8,116.9L546.8,116.9z"/>
		<path class="st0" d="M394.7,1.3l55.3,19.3c4.2,1.5,8.9,0,11.6-3.6c2.7-3.6,2.7-8.5,0-12.2c-2.7-3.6-7.4-5.1-11.6-3.6l-55.3,19.3
			c-4.2,1.5-8.9,0-11.6-3.6c-2.7-3.6-2.7-8.5,0-12.2C385.7,1.3,390.4-0.2,394.7,1.3z"/>
		<path class="st0" d="M477.4,1.3l55.3,19.3c4.2,1.5,8.9,0,11.6-3.6c2.7-3.6,2.7-8.5,0-12.2c-2.7-3.6-7.4-5.1-11.6-3.6l-55.3,19.3
			c-4.2,1.5-8.9,0-11.6-3.6c-2.7-3.6-2.7-8.5,0-12.2C468.4,1.3,473.1-0.2,477.4,1.3z"/>
		<path class="st0" d="M394.7,187.4l55.3,19.3c4.2,1.5,8.9,0,11.6-3.6c2.7-3.6,2.7-8.5,0-12.2c-2.7-3.6-7.4-5.1-11.6-3.6l-55.3,19.3
			c-4.2,1.5-8.9,0-11.6-3.6c-2.7-3.6-2.7-8.5,0-12.2C385.7,187.3,390.4,185.9,394.7,187.4z"/>
		<path class="st0" d="M477.4,187.4l55.3,19.3c4.2,1.5,8.9,0,11.6-3.6c2.7-3.6,2.7-8.5,0-12.2c-2.7-3.6-7.4-5.1-11.6-3.6l-55.3,19.3
			c-4.2,1.5-8.9,0-11.6-3.6c-2.7-3.6-2.7-8.5,0-12.2C468.4,187.3,473.1,185.9,477.4,187.4z"/>
		<path class="st0" d="M381.2,33.1l20.3,141.8c0.6,4-1.2,7.9-4.6,10.1c-3.4,2.2-7.7,2.2-11.1,0c-3.4-2.2-5.2-6.1-4.6-10.1
			l20.3-141.8c0.6-4-1.2-7.9-4.6-10.1c-3.4-2.2-7.7-2.2-11.1,0C382.4,25.2,380.6,29.1,381.2,33.1z"/>
		<path class="st0" d="M525.9,33.1l20.3,141.8c0.6,4-1.2,7.9-4.6,10.1c-3.4,2.2-7.7,2.2-11.1,0c-3.4-2.2-5.2-6.1-4.6-10.1
			l20.3-141.8c0.6-4-1.2-7.9-4.6-10.1c-3.4-2.2-7.7-2.2-11.1,0C527.1,25.2,525.3,29.1,525.9,33.1z"/>
		<path class="st0" d="M414,21.6l99.3,20.1c4.1,0.8,8.2-0.9,10.5-4.3c2.3-3.4,2.3-7.9,0-11.4c-2.3-3.4-6.5-5.2-10.5-4.3L414,41.7
			c-4.1,0.8-8.2-0.9-10.5-4.3c-2.3-3.4-2.3-7.9,0-11.4C405.8,22.5,409.9,20.8,414,21.6L414,21.6z"/>
		<path class="st0" d="M414,166.3l99.3,20.1c4.1,0.8,8.2-0.9,10.5-4.3c2.3-3.4,2.3-7.9,0-11.4c-2.3-3.4-6.5-5.2-10.5-4.3L414,186.4
			c-4.1,0.8-8.2-0.9-10.5-4.3c-2.3-3.4-2.3-7.9,0-11.4C405.8,167.2,409.9,165.5,414,166.3L414,166.3z"/>
		<path class="st0" d="M420.9,150.6l-17.8-31.2c-2.5-4.3-1.5-9.7,2.3-12.9c3.8-3.2,9.3-3.2,13.1,0c3.8,3.2,4.8,8.6,2.3,12.9
			l-17.8,31.2c-2.5,4.3-1.5,9.7,2.3,12.9c3.8,3.2,9.3,3.2,13.1,0C422.3,160.4,423.3,154.9,420.9,150.6L420.9,150.6z"/>
		<path class="st0" d="M403.1,88.6l17.8-31.2c2.5-4.3,1.5-9.7-2.3-12.9c-3.8-3.2-9.3-3.2-13.1,0s-4.8,8.6-2.3,12.9l17.8,31.2
			c2.5,4.3,1.5,9.7-2.3,12.9c-3.8,3.2-9.3,3.2-13.1,0C401.6,98.3,400.6,92.9,403.1,88.6L403.1,88.6z"/>
		<path class="st0" d="M524.2,57.4l-17.8,31.2c-2.5,4.3-1.5,9.7,2.3,12.9c3.8,3.2,9.3,3.2,13.1,0c3.8-3.2,4.8-8.6,2.3-12.9
			l-17.8-31.2c-2.5-4.3-1.5-9.7,2.3-12.9c3.8-3.2,9.3-3.2,13.1,0C525.7,47.6,526.7,53.1,524.2,57.4z"/>
		<path class="st0" d="M506.4,119.4l17.8,31.2c2.5,4.3,1.5,9.7-2.3,12.9c-3.8,3.2-9.3,3.2-13.1,0c-3.8-3.2-4.8-8.6-2.3-12.9
			l17.8-31.2c2.5-4.3,1.5-9.7-2.3-12.9c-3.8-3.2-9.3-3.2-13.1,0C505,109.7,504,115.1,506.4,119.4L506.4,119.4z"/>
		<path class="st0" d="M436,42.6L491.3,62c4.2,1.5,8.9,0,11.6-3.6c2.7-3.6,2.7-8.5,0-12.2c-2.7-3.6-7.4-5.1-11.6-3.6L436,62
			c-4.2,1.5-8.9,0-11.6-3.6c-2.7-3.6-2.7-8.5,0-12.2C427.1,42.6,431.8,41.2,436,42.6z"/>
		<path class="st0" d="M436,146l55.3,19.3c4.2,1.5,8.9,0,11.6-3.6c2.7-3.6,2.7-8.5,0-12.2c-2.7-3.6-7.4-5.1-11.6-3.6L436,165.3
			c-4.2,1.5-8.9,0-11.6-3.6c-2.7-3.6-2.7-8.5,0-12.2C427.1,146,431.8,144.5,436,146z"/>
		<path class="st0" d="M442.3,131.6L423,76.4c-1.5-4.2,0-8.9,3.6-11.6s8.5-2.7,12.2,0s5.1,7.4,3.6,11.6L423,131.6
			c-1.5,4.2,0,8.9,3.6,11.6s8.5,2.7,12.2,0C442.3,140.6,443.8,135.9,442.3,131.6L442.3,131.6z"/>
		<path class="st0" d="M485,76.4l19.3,55.3c1.5,4.2,0,8.9-3.6,11.6s-8.5,2.7-12.2,0c-3.6-2.7-5.1-7.4-3.6-11.6l19.3-55.3
			c1.5-4.2,0-8.9-3.6-11.6c-3.6-2.7-8.5-2.7-12.2,0C485,67.4,483.5,72.1,485,76.4L485,76.4z"/>
		<path class="st0" d="M463.4,71.5l0.4,2.9c0.8,5.3,5.5,9.1,10.9,8.8c5.4-0.4,9.5-4.8,9.5-10.2c0-5.4-4.2-9.8-9.5-10.2
			c-5.4-0.4-10.1,3.4-10.9,8.8l-0.4,2.9c-0.8,5.3-5.5,9.1-10.9,8.8c-5.4-0.4-9.5-4.8-9.5-10.2c0-5.4,4.2-9.8,9.5-10.2
			C457.9,62.4,462.7,66.2,463.4,71.5z"/>
		<path class="st0" d="M463.4,133.6l0.4,2.9c0.8,5.3,5.5,9.1,10.9,8.8s9.5-4.8,9.5-10.2c0-5.4-4.2-9.8-9.5-10.2
			c-5.4-0.4-10.1,3.4-10.9,8.8l-0.4,2.9c-0.8,5.3-5.5,9.1-10.9,8.8c-5.4-0.4-9.5-4.8-9.5-10.2c0-5.4,4.2-9.8,9.5-10.2
			S462.7,128.2,463.4,133.6L463.4,133.6z"/>
	</g>
	<g>
		<path class="st1" d="M363.5,12.2l14.3,80.2c0.5,2.8-0.7,5.7-3.1,7.3c-2.4,1.6-5.5,1.6-8,0c-2.4-1.6-3.6-4.5-3.1-7.3l14.3-80.2
			c0.5-2.8-0.7-5.7-3.1-7.3c-2.4-1.6-5.5-1.6-8,0C364.2,6.5,363,9.4,363.5,12.2L363.5,12.2z"/>
		<path class="st1" d="M363.5,115.6l14.3,80.2c0.5,2.8-0.7,5.7-3.1,7.3s-5.5,1.6-8,0c-2.4-1.6-3.6-4.5-3.1-7.3l14.3-80.2
			c0.5-2.8-0.7-5.7-3.1-7.3c-2.4-1.6-5.5-1.6-8,0C364.2,109.9,363,112.8,363.5,115.6L363.5,115.6z"/>
		<path class="st1" d="M549.6,12.2l14.3,80.2c0.5,2.8-0.7,5.7-3.1,7.3c-2.4,1.6-5.5,1.6-8,0c-2.4-1.6-3.7-4.5-3.1-7.3l14.2-80.2
			c0.5-2.8-0.7-5.7-3.1-7.3s-5.5-1.6-8,0C550.3,6.5,549.1,9.4,549.6,12.2z"/>
		<path class="st1" d="M549.6,115.6l14.3,80.2c0.5,2.8-0.7,5.7-3.1,7.3c-2.4,1.6-5.5,1.6-8,0c-2.4-1.6-3.7-4.5-3.1-7.3l14.2-80.2
			c0.5-2.8-0.7-5.7-3.1-7.3s-5.5-1.6-8,0C550.3,109.9,549.1,112.8,549.6,115.6z"/>
		<path class="st1" d="M393,3.9L451.6,18c2.9,0.7,6-0.5,7.7-2.9c1.7-2.5,1.7-5.7,0-8.2c-1.7-2.5-4.7-3.6-7.7-2.9L393,18
			c-2.9,0.7-6-0.5-7.7-2.9c-1.7-2.5-1.7-5.7,0-8.2S390.1,3.2,393,3.9z"/>
		<path class="st1" d="M475.7,3.9L534.3,18c2.9,0.7,6-0.5,7.7-2.9c1.7-2.5,1.7-5.7,0-8.2c-1.7-2.5-4.7-3.6-7.7-2.9L475.7,18
			c-2.9,0.7-6-0.5-7.7-2.9c-1.7-2.5-1.7-5.7,0-8.2C469.7,4.4,472.8,3.2,475.7,3.9L475.7,3.9z"/>
		<path class="st1" d="M393,190l58.7,14.1c2.9,0.7,6-0.5,7.7-2.9c1.7-2.5,1.7-5.7,0-8.2c-1.7-2.5-4.7-3.6-7.7-2.9L393,204.1
			c-2.9,0.7-6-0.5-7.7-2.9c-1.7-2.5-1.7-5.7,0-8.2C387,190.5,390.1,189.3,393,190L393,190z"/>
		<path class="st1" d="M475.7,190l58.7,14.1c2.9,0.7,6-0.5,7.7-2.9c1.7-2.5,1.7-5.7,0-8.2c-1.7-2.5-4.7-3.6-7.7-2.9l-58.7,14.1
			c-2.9,0.7-6-0.5-7.7-2.9c-1.7-2.5-1.7-5.7,0-8.2C469.7,190.5,472.8,189.3,475.7,190L475.7,190z"/>
		<path class="st1" d="M384.1,32.4l14.4,143.3c0.3,2.7-1,5.4-3.4,6.9c-2.3,1.5-5.3,1.5-7.7,0s-3.7-4.1-3.4-6.9l14.4-143.3
			c0.3-2.7-1-5.4-3.4-6.9s-5.3-1.5-7.7,0C385.1,26.9,383.8,29.6,384.1,32.4L384.1,32.4z"/>
		<path class="st1" d="M528.8,32.4l14.4,143.3c0.3,2.7-1,5.4-3.4,6.9c-2.3,1.5-5.3,1.5-7.7,0s-3.6-4.1-3.4-6.9l14.4-143.3
			c0.3-2.7-1-5.4-3.4-6.9c-2.3-1.5-5.3-1.5-7.7,0S528.5,29.6,528.8,32.4z"/>
		<path class="st1" d="M413,24.5l101.4,14.3c2.8,0.4,5.6-0.9,7.1-3.3c1.5-2.4,1.5-5.4,0-7.8c-1.5-2.4-4.3-3.7-7.1-3.3L413,38.8
			c-2.8,0.4-5.6-0.9-7.1-3.3c-1.5-2.4-1.5-5.4,0-7.8C407.4,25.3,410.2,24.1,413,24.5z"/>
		<path class="st1" d="M413,169.2l101.4,14.3c2.8,0.4,5.6-0.9,7.1-3.3c1.5-2.4,1.5-5.4,0-7.8c-1.5-2.4-4.3-3.7-7.1-3.3L413,183.5
			c-2.8,0.4-5.6-0.9-7.1-3.3c-1.5-2.4-1.5-5.4,0-7.8C407.4,170.1,410.2,168.8,413,169.2L413,169.2z"/>
		<path class="st1" d="M418.7,153.2l-13.6-36.3c-1.1-3-0.1-6.4,2.4-8.3c2.6-1.9,6.1-1.9,8.7,0c2.6,1.9,3.6,5.3,2.4,8.3l-13.6,36.3
			c-1.1,3-0.1,6.4,2.4,8.3c2.6,1.9,6.1,1.9,8.7,0C418.9,159.5,419.9,156.2,418.7,153.2L418.7,153.2z"/>
		<path class="st1" d="M405.2,91.1l13.6-36.3c1.1-3,0.1-6.4-2.4-8.3c-2.6-1.9-6.1-1.9-8.7,0c-2.6,1.9-3.6,5.3-2.4,8.3l13.6,36.3
			c1.1,3,0.1,6.4-2.4,8.3s-6.1,1.9-8.7,0C405.1,97.5,404.1,94.1,405.2,91.1L405.2,91.1z"/>
		<path class="st1" d="M522.1,54.8l-13.6,36.3c-1.1,3-0.1,6.4,2.4,8.3c2.6,1.9,6.1,1.9,8.7,0s3.6-5.3,2.4-8.3l-13.6-36.3
			c-1.1-3-0.1-6.4,2.4-8.3c2.6-1.9,6.1-1.9,8.7,0C522.3,48.4,523.2,51.8,522.1,54.8z"/>
		<path class="st1" d="M508.6,116.9l13.6,36.3c1.1,3,0.1,6.4-2.4,8.3c-2.6,1.9-6.1,1.9-8.7,0c-2.6-1.9-3.6-5.3-2.4-8.3l13.6-36.3
			c1.1-3,0.1-6.4-2.4-8.3c-2.6-1.9-6.1-1.9-8.7,0C508.4,110.5,507.4,113.9,508.6,116.9z"/>
		<path class="st1" d="M434.3,45.3L493,59.3c2.9,0.7,6-0.5,7.7-2.9c1.7-2.5,1.7-5.7,0-8.2c-1.7-2.5-4.7-3.6-7.7-2.9l-58.7,14.1
			c-2.9,0.7-6-0.5-7.7-2.9c-1.7-2.5-1.7-5.7,0-8.2C428.4,45.7,431.4,44.6,434.3,45.3z"/>
		<path class="st1" d="M434.3,148.6l58.7,14.1c2.9,0.7,6-0.5,7.7-2.9c1.7-2.5,1.7-5.7,0-8.2c-1.7-2.5-4.7-3.6-7.7-2.9l-58.7,14.1
			c-2.9,0.7-6-0.5-7.7-2.9c-1.7-2.5-1.7-5.7,0-8.2C428.4,149.1,431.4,147.9,434.3,148.6L434.3,148.6z"/>
		<path class="st1" d="M439.7,133.3l-14.1-58.7c-0.7-2.9,0.5-6,2.9-7.7c2.5-1.7,5.7-1.7,8.2,0s3.6,4.7,2.9,7.7l-14.1,58.7
			c-0.7,2.9,0.5,6,2.9,7.6c2.5,1.7,5.7,1.7,8.2,0C439.2,139.3,440.4,136.2,439.7,133.3z"/>
		<path class="st1" d="M487.6,74.7l14.1,58.7c0.7,2.9-0.5,6-2.9,7.7c-2.5,1.7-5.7,1.7-8.2,0s-3.6-4.7-2.9-7.7l14.1-58.7
			c0.7-2.9-0.5-6-2.9-7.7c-2.5-1.7-5.7-1.7-8.2,0C488.1,68.7,486.9,71.8,487.6,74.7z"/>
		<path class="st1" d="M458.4,67.8l10.5,10.3c2.8,2.8,7.4,2.8,10.2-0.1s2.8-7.4,0-10.2s-7.4-2.9-10.2-0.1l-10.5,10.3
			c-2.8,2.8-7.4,2.8-10.2-0.1c-2.8-2.8-2.8-7.4,0-10.2C451,65.1,455.5,65,458.4,67.8z"/>
		<path class="st1" d="M458.4,129.8l10.5,10.3c2.8,2.8,7.4,2.8,10.2-0.1s2.8-7.4,0-10.2c-2.8-2.8-7.4-2.9-10.2-0.1l-10.5,10.3
			c-2.8,2.8-7.4,2.8-10.2-0.1c-2.8-2.8-2.8-7.4,0-10.2C451,127.1,455.5,127.1,458.4,129.8z"/>
	</g>
	<g>
		<path class="st1" d="M164.3,17.7l-24.5,6.7c-3.4,0.9-5.6,4.1-5.3,7.6c0.3,3.5,3.1,6.3,6.6,6.6c3.5,0.3,6.7-1.9,7.6-5.3l6.7-24.5
			c0.9-3.4,4.1-5.6,7.6-5.3c3.5,0.3,6.3,3.1,6.6,6.6C169.9,13.6,167.7,16.8,164.3,17.7L164.3,17.7z"/>
		<path class="st1" d="M148.7,174.2l6.7,24.5c0.9,3.4,4.1,5.6,7.6,5.3c3.5-0.3,6.3-3.1,6.6-6.6s-1.9-6.7-5.3-7.6l-24.5-6.7
			c-3.4-0.9-5.6-4.1-5.3-7.6c0.3-3.5,3.1-6.3,6.6-6.6C144.5,168.6,147.7,170.8,148.7,174.2L148.7,174.2z"/>
		<path class="st1" d="M305.2,189.8l24.5-6.7c3.4-0.9,5.6-4.1,5.3-7.6s-3.1-6.3-6.6-6.6c-3.5-0.3-6.7,1.9-7.6,5.3l-6.7,24.5
			c-0.9,3.4-4.1,5.6-7.6,5.3c-3.5-0.3-6.3-3.1-6.6-6.6S301.8,190.8,305.2,189.8L305.2,189.8z"/>
		<path class="st1" d="M305.2,17.7l24.5,6.7c3.4,0.9,5.6,4.1,5.3,7.6c-0.3,3.5-3.1,6.3-6.6,6.6c-3.5,0.3-6.7-1.9-7.6-5.3l-6.7-24.5
			c-0.9-3.4-4.1-5.6-7.6-5.3c-3.5,0.3-6.3,3.1-6.6,6.6C299.6,13.6,301.8,16.8,305.2,17.7z"/>
		<path class="st1" d="M134.5,53.1l14.3,101.4c0.4,2.8-0.9,5.6-3.3,7.1c-2.4,1.5-5.4,1.5-7.8,0c-2.4-1.5-3.7-4.3-3.3-7.1l14.3-101.4
			c0.4-2.8-0.9-5.6-3.3-7.1c-2.4-1.5-5.4-1.5-7.8,0C135.4,47.5,134.1,50.3,134.5,53.1L134.5,53.1z"/>
		<path class="st1" d="M320.6,53.1l14.3,101.4c0.4,2.8-0.9,5.6-3.3,7.1c-2.4,1.5-5.4,1.5-7.8,0c-2.4-1.5-3.7-4.3-3.3-7.1l14.3-101.4
			c0.4-2.8-0.9-5.6-3.3-7.1c-2.4-1.5-5.4-1.5-7.8,0C321.5,47.5,320.2,50.3,320.6,53.1L320.6,53.1z"/>
		<path class="st1" d="M184.1,3.6l101.4,14.3c2.8,0.4,5.6-0.9,7.1-3.3c1.5-2.4,1.5-5.4,0-7.8c-1.5-2.4-4.3-3.7-7.1-3.3L184.1,17.9
			c-2.8,0.4-5.6-0.9-7.1-3.3c-1.5-2.4-1.5-5.4,0-7.8S181.3,3.2,184.1,3.6z"/>
		<path class="st1" d="M184.1,189.6L285.4,204c2.8,0.4,5.6-0.9,7.1-3.3c1.5-2.4,1.5-5.4,0-7.8c-1.5-2.4-4.3-3.7-7.1-3.3L184.1,204
			c-2.8,0.4-5.6-0.9-7.1-3.3s-1.5-5.4,0-7.8C178.5,190.5,181.3,189.3,184.1,189.6L184.1,189.6z"/>
		<path class="st1" d="M160.4,45.1l24.5-6.7c3.4-0.9,5.6-4.1,5.3-7.6c-0.3-3.5-3.1-6.3-6.6-6.6c-3.5-0.3-6.7,1.9-7.6,5.3L169.3,54
			c-0.9,3.4-4.1,5.6-7.6,5.3c-3.5-0.3-6.3-3.1-6.6-6.6C154.8,49.2,157.1,46,160.4,45.1L160.4,45.1z"/>
		<path class="st1" d="M284.5,38.4l24.5,6.7c3.4,0.9,5.6,4.1,5.3,7.6c-0.3,3.5-3.1,6.3-6.6,6.6c-3.5,0.3-6.7-1.9-7.6-5.3l-6.7-24.5
			c-0.9-3.4-4.1-5.6-7.6-5.3c-3.5,0.3-6.3,3.1-6.6,6.6C278.9,34.2,281.1,37.5,284.5,38.4z"/>
		<path class="st1" d="M169.3,153.5l6.7,24.5c0.9,3.4,4.1,5.6,7.6,5.3c3.5-0.3,6.3-3.1,6.6-6.6c0.3-3.5-1.9-6.7-5.3-7.6l-24.5-6.7
			c-3.4-0.9-5.6-4.1-5.3-7.6c0.3-3.5,3.1-6.3,6.6-6.6C165.2,147.9,168.4,150.2,169.3,153.5L169.3,153.5z"/>
		<path class="st1" d="M284.5,169.2l24.5-6.7c3.4-0.9,5.6-4.1,5.3-7.6c-0.3-3.5-3.1-6.3-6.6-6.6s-6.7,1.9-7.6,5.3l-6.7,24.5
			c-0.9,3.4-4.1,5.6-7.6,5.3c-3.5-0.3-6.3-3.1-6.6-6.6C278.9,173.3,281.1,170.1,284.5,169.2L284.5,169.2z"/>
		<path class="st1" d="M155.3,74.4l14.1,58.7c0.7,2.9-0.5,6-2.9,7.7c-2.5,1.7-5.7,1.7-8.2,0c-2.5-1.7-3.6-4.7-2.9-7.7l14.1-58.7
			c0.7-2.9-0.5-6-2.9-7.7c-2.5-1.7-5.7-1.7-8.2,0C155.8,68.5,154.6,71.5,155.3,74.4L155.3,74.4z"/>
		<path class="st1" d="M300.1,74.4l14.1,58.7c0.7,2.9-0.5,6-2.9,7.7c-2.5,1.7-5.7,1.7-8.2,0c-2.5-1.7-3.6-4.7-2.9-7.7l14.1-58.7
			c0.7-2.9-0.5-6-2.9-7.7c-2.5-1.7-5.7-1.7-8.2,0C300.5,68.5,299.4,71.5,300.1,74.4z"/>
		<path class="st1" d="M205.4,24.4l58.7,14.1c2.9,0.7,6-0.5,7.7-2.9c1.7-2.5,1.7-5.7,0-8.2c-1.7-2.5-4.7-3.6-7.7-2.9l-58.7,14.1
			c-2.9,0.7-6-0.5-7.7-2.9c-1.7-2.5-1.7-5.7,0-8.2S202.5,23.7,205.4,24.4z"/>
		<path class="st1" d="M205.4,169.1l58.7,14.1c2.9,0.7,6-0.5,7.7-2.9c1.7-2.5,1.7-5.7,0-8.2c-1.7-2.5-4.7-3.6-7.7-2.9l-58.7,14.1
			c-2.9,0.7-6-0.5-7.7-2.9s-1.7-5.7,0-8.2C199.4,169.6,202.5,168.4,205.4,169.1L205.4,169.1z"/>
		<path class="st1" d="M181.1,65.8l24.5-6.7c3.4-0.9,5.6-4.1,5.3-7.6c-0.3-3.5-3.1-6.3-6.6-6.6c-3.5-0.3-6.7,1.9-7.6,5.3L190,74.7
			c-0.9,3.4-4.1,5.6-7.6,5.3c-3.5-0.3-6.3-3.1-6.6-6.6C175.5,69.9,177.7,66.7,181.1,65.8L181.1,65.8z"/>
		<path class="st1" d="M272.7,50.2l6.7,24.5c0.9,3.4,4.1,5.6,7.6,5.3c3.5-0.3,6.3-3.1,6.6-6.6c0.3-3.5-1.9-6.7-5.3-7.6l-24.5-6.7
			c-3.4-0.9-5.6-4.1-5.3-7.6c0.3-3.5,3.1-6.3,6.6-6.6C268.6,44.6,271.8,46.8,272.7,50.2L272.7,50.2z"/>
		<path class="st1" d="M279.4,132.9l-6.7,24.5c-0.9,3.4-4.1,5.6-7.6,5.3c-3.5-0.3-6.3-3.1-6.6-6.6c-0.3-3.5,1.9-6.7,5.3-7.6
			l24.5-6.7c3.4-0.9,5.6-4.1,5.3-7.6c-0.3-3.5-3.1-6.3-6.6-6.6C283.6,127.3,280.4,129.5,279.4,132.9L279.4,132.9z"/>
		<path class="st1" d="M181.1,141.8l24.5,6.7c3.4,0.9,5.6,4.1,5.3,7.6c-0.3,3.5-3.1,6.3-6.6,6.6c-3.5,0.3-6.7-1.9-7.6-5.3l-6.7-24.5
			c-0.9-3.4-4.1-5.6-7.6-5.3c-3.5,0.3-6.3,3.1-6.6,6.6C175.5,137.6,177.7,140.8,181.1,141.8L181.1,141.8z"/>
		<path class="st1" d="M175.8,114.1V93.4c0-4,3.2-7.2,7.2-7.2c4,0,7.2,3.2,7.2,7.2v20.7c0,4-3.2,7.2-7.2,7.2
			C179,121.3,175.8,118.1,175.8,114.1L175.8,114.1z"/>
		<path class="st1" d="M279.2,93.4v20.7c0,4,3.2,7.2,7.2,7.2c4,0,7.2-3.2,7.2-7.2V93.4c0-4-3.2-7.2-7.2-7.2
			C282.4,86.2,279.2,89.4,279.2,93.4L279.2,93.4z"/>
		<path class="st1" d="M224.4,59.3h20.7c4,0,7.2-3.2,7.2-7.2s-3.2-7.2-7.2-7.2h-20.7c-4,0-7.2,3.2-7.2,7.2S220.4,59.3,224.4,59.3z"
			/>
		<path class="st1" d="M224.4,148.2h20.7c4,0,7.2,3.2,7.2,7.2c0,4-3.2,7.2-7.2,7.2h-20.7c-4,0-7.2-3.2-7.2-7.2
			C217.2,151.5,220.4,148.2,224.4,148.2z"/>
		<path class="st1" d="M210.7,95.3l6.7-24.5c0.9-3.4,4.1-5.6,7.6-5.3c3.5,0.3,6.3,3.1,6.6,6.6c0.3,3.5-1.9,6.7-5.3,7.6l-24.5,6.7
			c-3.4,0.9-5.6,4.1-5.3,7.6c0.3,3.5,3.1,6.3,6.6,6.6C206.6,101,209.8,98.7,210.7,95.3L210.7,95.3z"/>
		<path class="st1" d="M243.2,79.7l24.5,6.7c3.4,0.9,5.6,4.1,5.3,7.6c-0.3,3.5-3.1,6.3-6.6,6.6c-3.5,0.3-6.7-1.9-7.6-5.3L252,70.8
			c-0.9-3.4-4.1-5.6-7.6-5.3s-6.3,3.1-6.6,6.6C237.5,75.6,239.8,78.8,243.2,79.7z"/>
		<path class="st1" d="M210.7,112.2l6.7,24.5c0.9,3.4,4.1,5.6,7.6,5.3c3.5-0.3,6.3-3.1,6.6-6.6c0.3-3.5-1.9-6.7-5.3-7.6l-24.5-6.7
			c-3.4-0.9-5.6-4.1-5.3-7.6s3.1-6.3,6.6-6.6C206.6,106.6,209.8,108.8,210.7,112.2L210.7,112.2z"/>
		<path class="st1" d="M267.7,121.1l-24.5,6.7c-3.4,0.9-5.6,4.1-5.3,7.6c0.3,3.5,3.1,6.3,6.6,6.6c3.5,0.3,6.7-1.9,7.6-5.3l6.7-24.5
			c0.9-3.4,4.1-5.6,7.6-5.3c3.5,0.3,6.3,3.1,6.6,6.6C273.3,117,271,120.2,267.7,121.1L267.7,121.1z"/>
	</g>
	<g>
		<path class="st2" d="M164.5,15.4l-24.9,11.3c-2.1,0.9-3.3,3.2-3,5.4c0.3,2.3,2.1,4.1,4.4,4.4c2.3,0.3,4.5-0.9,5.4-3l11.3-24.9
			c0.9-2.1,3.2-3.3,5.4-3s4.1,2.1,4.4,4.4C167.8,12.3,166.6,14.5,164.5,15.4z"/>
		<path class="st2" d="M146.4,174l11.3,24.9c0.9,2.1,3.2,3.3,5.4,3c2.3-0.3,4.1-2.1,4.4-4.4c0.3-2.3-0.9-4.5-3-5.4l-24.9-11.3
			c-2.1-0.9-3.3-3.2-3-5.4s2.1-4.1,4.4-4.4C143.2,170.7,145.5,171.9,146.4,174L146.4,174z"/>
		<path class="st2" d="M305,192.1l24.9-11.3c2.1-0.9,3.3-3.2,3-5.4c-0.3-2.3-2.1-4.1-4.4-4.4c-2.3-0.3-4.5,0.9-5.4,3l-11.3,24.9
			c-0.9,2.1-3.2,3.3-5.4,3c-2.3-0.3-4.1-2.1-4.4-4.4C301.7,195.3,302.9,193,305,192.1L305,192.1z"/>
		<path class="st2" d="M305,15.4l24.9,11.3c2.1,0.9,3.3,3.2,3,5.4c-0.3,2.3-2.1,4.1-4.4,4.4s-4.5-0.9-5.4-3L311.8,8.6
			c-0.9-2.1-3.2-3.3-5.4-3c-2.3,0.3-4.1,2.1-4.4,4.4C301.7,12.3,302.9,14.5,305,15.4z"/>
		<path class="st2" d="M136.5,52.6l10.3,102.3c0.2,2-0.7,3.9-2.4,4.9s-3.8,1-5.5,0c-1.7-1-2.6-2.9-2.4-4.9l10.3-102.3
			c0.2-2-0.7-3.9-2.4-4.9s-3.8-1-5.5,0C137.3,48.7,136.3,50.6,136.5,52.6z"/>
		<path class="st2" d="M322.6,52.6l10.3,102.3c0.2,2-0.7,3.9-2.4,4.9c-1.7,1-3.8,1-5.5,0s-2.6-2.9-2.4-4.9l10.3-102.3
			c0.2-2-0.7-3.9-2.4-4.9c-1.7-1-3.8-1-5.5,0S322.4,50.6,322.6,52.6L322.6,52.6z"/>
		<path class="st2" d="M183.6,5.6l102.3,10.3c2,0.2,3.9-0.7,4.9-2.4c1-1.7,1-3.8,0-5.5c-1-1.7-2.9-2.6-4.9-2.4L183.6,15.9
			c-2,0.2-3.9-0.7-4.9-2.4c-1-1.7-1-3.8,0-5.5C179.7,6.3,181.6,5.4,183.6,5.6L183.6,5.6z"/>
		<path class="st2" d="M183.6,191.7L285.9,202c2,0.2,3.9-0.7,4.9-2.4c1-1.7,1-3.8,0-5.5c-1-1.7-2.9-2.6-4.9-2.4L183.6,202
			c-2,0.2-3.9-0.7-4.9-2.4c-1-1.7-1-3.8,0-5.5C179.7,192.4,181.6,191.5,183.6,191.7L183.6,191.7z"/>
		<path class="st2" d="M160.2,47.4l24.9-11.3c2.1-0.9,3.3-3.2,3-5.4s-2.1-4.1-4.4-4.4c-2.3-0.3-4.5,0.9-5.4,3l-11.3,24.9
			c-0.9,2.1-3.2,3.3-5.4,3c-2.3-0.3-4.1-2.1-4.4-4.4C156.9,50.5,158.1,48.3,160.2,47.4L160.2,47.4z"/>
		<path class="st2" d="M284.3,36.1l24.9,11.3c2.1,0.9,3.3,3.2,3,5.4c-0.3,2.3-2.1,4.1-4.4,4.4s-4.5-0.9-5.4-3l-11.3-24.9
			c-0.9-2.1-3.2-3.3-5.4-3c-2.3,0.3-4.1,2.1-4.4,4.4S282.2,35.2,284.3,36.1z"/>
		<path class="st2" d="M167.1,153.3l11.3,24.9c0.9,2.1,3.2,3.3,5.4,3s4.1-2.1,4.4-4.4s-0.9-4.5-3-5.4l-24.9-11.3
			c-2.1-0.9-3.3-3.2-3-5.4c0.3-2.3,2.1-4.1,4.4-4.4C163.9,150,166.1,151.2,167.1,153.3z"/>
		<path class="st2" d="M284.3,171.4l24.9-11.3c2.1-0.9,3.3-3.2,3-5.4c-0.3-2.3-2.1-4.1-4.4-4.4c-2.3-0.3-4.5,0.9-5.4,3l-11.3,24.9
			c-0.9,2.1-3.2,3.3-5.4,3s-4.1-2.1-4.4-4.4S282.2,172.4,284.3,171.4z"/>
		<path class="st2" d="M157.3,73.6l10.2,60.3c0.3,2-0.5,4.1-2.3,5.2s-3.9,1.1-5.7,0c-1.7-1.1-2.6-3.2-2.3-5.2l10.2-60.3
			c0.3-2-0.5-4.1-2.3-5.2s-3.9-1.1-5.7,0C157.8,69.6,156.9,71.6,157.3,73.6z"/>
		<path class="st2" d="M302,73.6l10.2,60.3c0.3,2-0.5,4.1-2.3,5.2s-3.9,1.1-5.7,0c-1.7-1.1-2.6-3.2-2.3-5.2l10.2-60.3
			c0.3-2-0.5-4.1-2.3-5.2c-1.7-1.1-3.9-1.1-5.7,0C302.5,69.6,301.7,71.6,302,73.6z"/>
		<path class="st2" d="M204.6,26.3l60.3,10.2c2,0.3,4.1-0.5,5.2-2.3c1.1-1.7,1.1-3.9,0-5.7c-1.1-1.7-3.2-2.6-5.2-2.3l-60.3,10.2
			c-2,0.3-4.1-0.5-5.2-2.3c-1.1-1.7-1.1-3.9,0-5.7C200.5,26.9,202.6,26,204.6,26.3L204.6,26.3z"/>
		<path class="st2" d="M204.6,171l60.3,10.2c2,0.3,4.1-0.5,5.2-2.3c1.1-1.7,1.1-3.9,0-5.7c-1.1-1.7-3.2-2.6-5.2-2.3l-60.3,10.2
			c-2,0.3-4.1-0.5-5.2-2.3c-1.1-1.7-1.1-3.9,0-5.7C200.5,171.6,202.6,170.7,204.6,171z"/>
		<path class="st2" d="M180.9,68l24.9-11.3c2.1-0.9,3.3-3.2,3-5.4c-0.3-2.3-2.1-4.1-4.4-4.4c-2.3-0.3-4.5,0.9-5.4,3l-11.3,24.9
			c-0.9,2.1-3.2,3.3-5.4,3c-2.3-0.3-4.1-2.1-4.4-4.4C177.6,71.2,178.8,69,180.9,68z"/>
		<path class="st2" d="M270.5,50l11.3,24.9c0.9,2.1,3.2,3.3,5.4,3c2.3-0.3,4.1-2.1,4.4-4.4c0.3-2.3-0.9-4.5-3-5.4l-24.9-11.3
			c-2.1-0.9-3.3-3.2-3-5.4c0.3-2.3,2.1-4.1,4.4-4.4C267.3,46.6,269.5,47.9,270.5,50L270.5,50z"/>
		<path class="st2" d="M281.7,132.7l-11.3,24.9c-0.9,2.1-3.2,3.3-5.4,3s-4.1-2.1-4.4-4.4s0.9-4.5,3-5.4l24.9-11.3
			c2.1-0.9,3.3-3.2,3-5.4c-0.3-2.3-2.1-4.1-4.4-4.4C284.9,129.3,282.7,130.6,281.7,132.7L281.7,132.7z"/>
		<path class="st2" d="M180.9,139.5l24.9,11.3c2.1,0.9,3.3,3.2,3,5.4c-0.3,2.3-2.1,4.1-4.4,4.4s-4.5-0.9-5.4-3l-11.3-24.9
			c-0.9-2.1-3.2-3.3-5.4-3c-2.3,0.3-4.1,2.1-4.4,4.4C177.6,136.3,178.8,138.6,180.9,139.5z"/>
		<path class="st2" d="M177.9,114.1V93.4c0-2.9,2.3-5.2,5.2-5.2c2.9,0,5.2,2.3,5.2,5.2v20.7c0,2.9-2.3,5.2-5.2,5.2
			C180.2,119.3,177.9,117,177.9,114.1L177.9,114.1z"/>
		<path class="st2" d="M281.3,93.4v20.7c0,2.9,2.3,5.2,5.2,5.2s5.2-2.3,5.2-5.2V93.4c0-2.9-2.3-5.2-5.2-5.2
			C283.6,88.3,281.3,90.6,281.3,93.4L281.3,93.4z"/>
		<path class="st2" d="M224.4,57.2h20.7c2.9,0,5.2-2.3,5.2-5.2s-2.3-5.2-5.2-5.2h-20.7c-2.9,0-5.2,2.3-5.2,5.2
			C219.2,54.9,221.5,57.2,224.4,57.2z"/>
		<path class="st2" d="M224.4,150.3h20.7c2.9,0,5.2,2.3,5.2,5.2s-2.3,5.2-5.2,5.2h-20.7c-2.9,0-5.2-2.3-5.2-5.2
			C219.2,152.6,221.5,150.3,224.4,150.3z"/>
		<path class="st2" d="M208.4,95.6l11.3-24.9c0.9-2.1,3.2-3.3,5.4-3s4.1,2.1,4.4,4.4s-0.9,4.5-3,5.4l-24.9,11.3
			c-2.1,0.9-3.3,3.2-3,5.4c0.3,2.3,2.1,4.1,4.4,4.4C205.3,98.9,207.5,97.7,208.4,95.6z"/>
		<path class="st2" d="M242.9,77.5l24.9,11.3c2.1,0.9,3.3,3.2,3,5.4c-0.3,2.3-2.1,4.1-4.4,4.4c-2.3,0.3-4.5-0.9-5.4-3l-11.3-24.9
			c-0.9-2.1-3.2-3.3-5.4-3s-4.1,2.1-4.4,4.4C239.6,74.3,240.8,76.5,242.9,77.5z"/>
		<path class="st2" d="M208.4,112l11.3,24.9c0.9,2.1,3.2,3.3,5.4,3c2.3-0.3,4.1-2.1,4.4-4.4s-0.9-4.5-3-5.4l-24.9-11.3
			c-2.1-0.9-3.3-3.2-3-5.4c0.3-2.3,2.1-4.1,4.4-4.4C205.3,108.7,207.5,109.9,208.4,112L208.4,112z"/>
		<path class="st2" d="M267.9,118.8l-24.9,11.3c-2.1,0.9-3.3,3.2-3,5.4c0.3,2.3,2.1,4.1,4.4,4.4c2.3,0.3,4.5-0.9,5.4-3L261,112
			c0.9-2.1,3.2-3.3,5.4-3c2.3,0.3,4.1,2.1,4.4,4.4C271.2,115.7,270,117.9,267.9,118.8L267.9,118.8z"/>
	</g>
	<g>
		<path class="st2" d="M365.5,11.6L375.7,93c0.3,2-0.7,3.9-2.4,5c-1.7,1.1-3.8,1.1-5.5,0c-1.7-1.1-2.6-3-2.4-5l10.3-81.4
			c0.3-2-0.7-3.9-2.4-5c-1.7-1.1-3.8-1.1-5.5,0C366.1,7.7,365.2,9.6,365.5,11.6L365.5,11.6z"/>
		<path class="st2" d="M365.5,115l10.3,81.4c0.3,2-0.7,3.9-2.4,5s-3.8,1.1-5.5,0c-1.7-1.1-2.6-3-2.4-5l10.3-81.4
			c0.3-2-0.7-3.9-2.4-5c-1.7-1.1-3.8-1.1-5.5,0C366.1,111,365.2,113,365.5,115L365.5,115z"/>
		<path class="st2" d="M551.6,11.6L561.8,93c0.2,2-0.7,3.9-2.4,5c-1.7,1.1-3.8,1.1-5.5,0c-1.7-1.1-2.6-3-2.4-5l10.3-81.4
			c0.3-2-0.7-3.9-2.4-5c-1.7-1.1-3.8-1.1-5.5,0C552.2,7.7,551.3,9.6,551.6,11.6z"/>
		<path class="st2" d="M551.6,115l10.3,81.4c0.2,2-0.7,3.9-2.4,5s-3.8,1.1-5.5,0c-1.7-1.1-2.6-3-2.4-5l10.3-81.4
			c0.3-2-0.7-3.9-2.4-5c-1.7-1.1-3.8-1.1-5.5,0C552.2,111,551.3,113,551.6,115L551.6,115z"/>
		<path class="st2" d="M392.1,5.9L452.5,16c2,0.3,4.1-0.5,5.2-2.3c1.1-1.7,1.1-3.9,0-5.7c-1.1-1.7-3.2-2.6-5.2-2.3L392.1,16
			c-2,0.3-4.1-0.5-5.2-2.3c-1.1-1.7-1.1-3.9,0-5.7C388.1,6.4,390.1,5.5,392.1,5.9L392.1,5.9z"/>
		<path class="st2" d="M474.9,5.9L535.2,16c2,0.3,4.1-0.5,5.2-2.3c1.1-1.7,1.1-3.9,0-5.7s-3.2-2.6-5.2-2.3L474.9,16
			c-2,0.3-4.1-0.5-5.2-2.3c-1.1-1.7-1.1-3.9,0-5.7C470.8,6.4,472.8,5.5,474.9,5.9z"/>
		<path class="st2" d="M392.1,191.9l60.3,10.2c2,0.3,4.1-0.5,5.2-2.3c1.1-1.7,1.1-3.9,0-5.7c-1.1-1.7-3.2-2.6-5.2-2.3l-60.3,10.2
			c-2,0.3-4.1-0.5-5.2-2.3c-1.1-1.7-1.1-3.9,0-5.7C388.1,192.5,390.1,191.6,392.1,191.9L392.1,191.9z"/>
		<path class="st2" d="M474.9,191.9l60.3,10.2c2,0.3,4.1-0.5,5.2-2.3s1.1-3.9,0-5.7s-3.2-2.6-5.2-2.3l-60.3,10.2
			c-2,0.3-4.1-0.5-5.2-2.3c-1.1-1.7-1.1-3.9,0-5.7C470.8,192.5,472.8,191.6,474.9,191.9z"/>
		<path class="st2" d="M386.1,32l10.3,144c0.1,1.9-0.8,3.8-2.5,4.8s-3.7,1-5.4,0s-2.6-2.9-2.5-4.8l10.3-144c0.1-1.9-0.8-3.8-2.5-4.8
			c-1.7-1-3.7-1-5.4,0C386.9,28.2,386,30.1,386.1,32L386.1,32z"/>
		<path class="st2" d="M530.9,32l10.3,144c0.1,1.9-0.8,3.8-2.5,4.8c-1.7,1-3.7,1-5.4,0s-2.6-2.9-2.5-4.8l10.3-144
			c0.1-1.9-0.8-3.8-2.5-4.8c-1.7-1-3.7-1-5.4,0C531.7,28.2,530.7,30.1,530.9,32L530.9,32z"/>
		<path class="st2" d="M412.5,26.5l102.3,10.3c2,0.2,3.9-0.7,4.9-2.4s1-3.8,0-5.5c-1-1.7-2.9-2.6-4.9-2.4L412.5,36.8
			c-2,0.2-3.9-0.7-4.9-2.4c-1-1.7-1-3.8,0-5.5C408.6,27.2,410.5,26.3,412.5,26.5L412.5,26.5z"/>
		<path class="st2" d="M412.5,171.2l102.3,10.3c2,0.2,3.9-0.7,4.9-2.4s1-3.8,0-5.5c-1-1.7-2.9-2.6-4.9-2.4l-102.3,10.3
			c-2,0.2-3.9-0.7-4.9-2.4c-1-1.7-1-3.8,0-5.5C408.6,172,410.5,171,412.5,171.2L412.5,171.2z"/>
		<path class="st2" d="M417,154.4l-10-38.8c-0.5-2.1,0.3-4.3,2.1-5.5c1.8-1.2,4.1-1.2,5.9,0c1.8,1.2,2.6,3.4,2.1,5.5l-10,38.8
			c-0.5,2.1,0.3,4.3,2.1,5.5c1.8,1.2,4.1,1.2,5.9,0C416.7,158.7,417.5,156.5,417,154.4z"/>
		<path class="st2" d="M407,92.4l10-38.8c0.5-2.1-0.3-4.3-2.1-5.5c-1.8-1.2-4.1-1.2-5.9,0c-1.8,1.2-2.6,3.4-2.1,5.5l10,38.8
			c0.5,2.1-0.3,4.3-2.1,5.5c-1.8,1.2-4.1,1.2-5.9,0C407.2,96.7,406.4,94.5,407,92.4z"/>
		<path class="st2" d="M520.3,53.6l-10,38.8c-0.5,2.1,0.3,4.3,2.1,5.5c1.8,1.2,4.1,1.2,5.9,0c1.8-1.2,2.6-3.4,2.1-5.5l-10-38.8
			c-0.5-2.1,0.3-4.3,2.1-5.5c1.8-1.2,4.1-1.2,5.9,0C520.1,49.3,520.9,51.5,520.3,53.6L520.3,53.6z"/>
		<path class="st2" d="M510.3,115.6l10,38.8c0.5,2.1-0.3,4.3-2.1,5.5c-1.8,1.2-4.1,1.2-5.9,0c-1.8-1.2-2.6-3.4-2.1-5.5l10-38.8
			c0.5-2.1-0.3-4.3-2.1-5.5c-1.8-1.2-4.1-1.2-5.9,0C510.6,111.3,509.8,113.5,510.3,115.6L510.3,115.6z"/>
		<path class="st2" d="M433.5,47.2l60.3,10.2c2,0.3,4.1-0.5,5.2-2.3c1.1-1.7,1.1-3.9,0-5.7c-1.1-1.7-3.2-2.6-5.2-2.3l-60.3,10.2
			c-2,0.3-4.1-0.5-5.2-2.3c-1.1-1.7-1.1-3.9,0-5.7C429.4,47.8,431.5,46.9,433.5,47.2z"/>
		<path class="st2" d="M433.5,150.6l60.3,10.2c2,0.3,4.1-0.5,5.2-2.3c1.1-1.7,1.1-3.9,0-5.7c-1.1-1.7-3.2-2.6-5.2-2.3l-60.3,10.2
			c-2,0.3-4.1-0.5-5.2-2.3c-1.1-1.7-1.1-3.9,0-5.7C429.4,151.1,431.5,150.2,433.5,150.6z"/>
		<path class="st2" d="M437.7,134.1l-10.2-60.3c-0.3-2,0.5-4.1,2.3-5.2c1.7-1.1,3.9-1.1,5.7,0s2.6,3.2,2.3,5.2l-10.2,60.3
			c-0.3,2,0.5,4.1,2.3,5.2c1.7,1.1,3.9,1.1,5.7,0C437.2,138.2,438.1,136.2,437.7,134.1z"/>
		<path class="st2" d="M489.6,73.8l10.2,60.3c0.3,2-0.5,4.1-2.3,5.2c-1.7,1.1-3.9,1.1-5.7,0c-1.7-1.1-2.6-3.2-2.3-5.2l10.2-60.3
			c0.3-2-0.5-4.1-2.3-5.2c-1.7-1.1-3.9-1.1-5.7,0C490.1,69.8,489.2,71.8,489.6,73.8L489.6,73.8z"/>
		<path class="st2" d="M455.9,68.5l15.5,9c2.2,1.3,4.9,0.8,6.5-1.2c1.6-1.9,1.6-4.7,0-6.6c-1.6-1.9-4.4-2.4-6.5-1.2l-15.5,9
			c-2.2,1.3-4.9,0.8-6.5-1.2c-1.6-1.9-1.6-4.7,0-6.6C451,67.7,453.7,67.2,455.9,68.5z"/>
		<path class="st2" d="M455.9,130.5l15.5,9c2.2,1.3,4.9,0.8,6.5-1.2c1.6-1.9,1.6-4.7,0-6.6c-1.6-1.9-4.4-2.4-6.5-1.2l-15.5,9
			c-2.2,1.3-4.9,0.8-6.5-1.2c-1.6-1.9-1.6-4.7,0-6.6C451,129.8,453.7,129.3,455.9,130.5L455.9,130.5z"/>
	</g>
	<g>
		<path class="st0" d="M29.5,103.1l2.9,0.4c5.3,0.8,9.1,5.5,8.8,10.9s-4.8,9.5-10.2,9.5c-5.4,0-9.8-4.2-10.2-9.5s3.4-10.1,8.8-10.9
			l2.9-0.4c5.3-0.8,9.1-5.5,8.8-10.9c-0.4-5.4-4.8-9.5-10.2-9.5c-5.4,0-9.8,4.2-10.2,9.5C20.3,97.6,24.2,102.3,29.5,103.1
			L29.5,103.1z"/>
		<path class="st0" d="M70.8,103.1l2.9,0.4c5.3,0.8,9.1,5.5,8.8,10.9c-0.4,5.4-4.8,9.5-10.2,9.5c-5.4,0-9.8-4.2-10.2-9.5
			c-0.4-5.4,3.4-10.1,8.8-10.9l2.9-0.4c5.3-0.8,9.1-5.5,8.8-10.9c-0.4-5.4-4.8-9.5-10.2-9.5c-5.4,0-9.8,4.2-10.2,9.5
			C61.7,97.6,65.5,102.3,70.8,103.1L70.8,103.1z"/>
		<path class="st0" d="M36,63.4l31.2,17.8c4.3,2.5,9.7,1.5,12.9-2.3c3.2-3.8,3.2-9.3,0-13.1c-3.2-3.8-8.6-4.8-12.9-2.3L36,81.2
			c-4.3,2.5-9.7,1.5-12.9-2.3c-3.2-3.8-3.2-9.3,0-13.1C26.2,61.9,31.7,60.9,36,63.4z"/>
		<path class="st0" d="M36,125.4l31.2,17.8c4.3,2.5,9.7,1.5,12.9-2.3c3.2-3.8,3.2-9.3,0-13.1c-3.2-3.8-8.6-4.8-12.9-2.3L36,143.2
			c-4.3,2.5-9.7,1.5-12.9-2.3c-3.2-3.8-3.2-9.3,0-13.1C26.2,123.9,31.7,122.9,36,125.4L36,125.4z"/>
		<path class="st0" d="M12.8,41.7l77.6,19.8c4.1,1.1,8.5-0.6,10.9-4.1c2.4-3.5,2.4-8.2,0-11.7c-2.4-3.5-6.8-5.1-10.9-4.1L12.8,61.5
			c-4.1,1.1-8.5-0.6-10.9-4.1c-2.4-3.5-2.4-8.2,0-11.7C4.3,42.2,8.6,40.6,12.8,41.7L12.8,41.7z"/>
		<path class="st0" d="M12.8,145.1l77.6,19.8c4.1,1.1,8.5-0.6,10.9-4.1c2.4-3.5,2.4-8.2,0-11.7s-6.8-5.1-10.9-4.1l-77.6,19.8
			c-4.1,1.1-8.5-0.6-10.9-4.1c-2.4-3.5-2.4-8.2,0-11.7C4.3,145.6,8.6,144,12.8,145.1L12.8,145.1z"/>
		<path class="st0" d="M0.6,130.9l19.3-55.3c1.5-4.2,0-8.9-3.6-11.6c-3.6-2.7-8.5-2.7-12.2,0c-3.6,2.7-5.1,7.4-3.6,11.6l19.3,55.3
			c1.5,4.2,0,8.9-3.6,11.6s-8.5,2.7-12.2,0C0.5,139.9-0.9,135.2,0.6,130.9L0.6,130.9z"/>
		<path class="st0" d="M102.6,130.9L83.3,75.6c-1.5-4.2,0-8.9,3.6-11.6c3.6-2.7,8.5-2.7,12.2,0c3.6,2.7,5.1,7.4,3.6,11.6l-19.3,55.3
			c-1.5,4.2,0,8.9,3.6,11.6s8.5,2.7,12.2,0C102.6,139.9,104.1,135.2,102.6,130.9L102.6,130.9z"/>
		<path class="st0" d="M36,22l31.2,17.8c4.3,2.5,9.7,1.5,12.9-2.3c3.2-3.8,3.2-9.3,0-13.1c-3.2-3.8-8.6-4.8-12.9-2.3L36,39.8
			c-4.3,2.5-9.7,1.5-12.9-2.3c-3.2-3.8-3.2-9.3,0-13.1C26.2,20.5,31.7,19.6,36,22z"/>
		<path class="st0" d="M36,166.8l31.2,17.8c4.3,2.5,9.7,1.5,12.9-2.3c3.2-3.8,3.2-9.3,0-13.1c-3.2-3.8-8.6-4.8-12.9-2.3L36,184.5
			c-4.3,2.5-9.7,1.5-12.9-2.3c-3.2-3.8-3.2-9.3,0-13.1C26.2,165.3,31.7,164.3,36,166.8L36,166.8z"/>
		<path class="st0" d="M8.8,20.4l2.9,0.4c5.3,0.8,9.1,5.5,8.8,10.9s-4.8,9.5-10.2,9.5C4.9,41.1,0.4,37,0,31.6
			c-0.4-5.4,3.4-10.1,8.8-10.9l2.9-0.4c5.3-0.8,9.1-5.5,8.8-10.9S15.6,0,10.2,0S0.4,4.2,0,9.5C-0.4,14.9,3.5,19.6,8.8,20.4z"/>
		<path class="st0" d="M91.5,20.4l2.9,0.4c5.3,0.8,9.1,5.5,8.8,10.9s-4.8,9.5-10.2,9.5c-5.4,0-9.8-4.2-10.2-9.5
			c-0.4-5.4,3.4-10.1,8.8-10.9l2.9-0.4c5.3-0.8,9.1-5.5,8.8-10.9S98.3,0,92.9,0c-5.4,0-9.8,4.2-10.2,9.5
			C82.4,14.9,86.2,19.6,91.5,20.4z"/>
		<path class="st0" d="M8.8,185.8l2.9,0.4c5.3,0.8,9.1,5.5,8.8,10.9c-0.4,5.4-4.8,9.5-10.2,9.5c-5.4,0-9.8-4.2-10.2-9.5
			c-0.4-5.4,3.4-10.1,8.8-10.9l2.9-0.4c5.3-0.8,9.1-5.5,8.8-10.9c-0.4-5.4-4.8-9.5-10.2-9.5s-9.8,4.2-10.2,9.5
			C-0.4,180.3,3.5,185,8.8,185.8z"/>
		<path class="st0" d="M91.5,185.8l2.9,0.4c5.3,0.8,9.1,5.5,8.8,10.9c-0.4,5.4-4.8,9.5-10.2,9.5c-5.4,0-9.8-4.2-10.2-9.5
			c-0.4-5.4,3.4-10.1,8.8-10.9l2.9-0.4c5.3-0.8,9.1-5.5,8.8-10.9c-0.4-5.4-4.8-9.5-10.2-9.5c-5.4,0-9.8,4.2-10.2,9.5
			C82.4,180.3,86.2,185,91.5,185.8z"/>
		<path class="st0" d="M30.9,186.1h41.4c5.7,0,10.2,4.6,10.2,10.2c0,5.7-4.6,10.2-10.2,10.2H30.9c-5.7,0-10.2-4.6-10.2-10.2
			S25.3,186.1,30.9,186.1z"/>
		<path class="st0" d="M30.9,0h41.4c5.7,0,10.2,4.6,10.2,10.2c0,5.7-4.6,10.2-10.2,10.2H30.9c-5.7,0-10.2-4.6-10.2-10.2
			C20.7,4.6,25.3,0,30.9,0z"/>
	</g>
	<g>
		<path class="st1" d="M25.7,98l10.3,10.5c2.8,2.8,2.8,7.4-0.1,10.2c-2.8,2.8-7.4,2.8-10.2,0c-2.8-2.8-2.9-7.4-0.1-10.2L36.1,98
			c2.8-2.8,2.8-7.4-0.1-10.2c-2.8-2.8-7.4-2.8-10.2,0C23,90.6,23,95.2,25.7,98z"/>
		<path class="st1" d="M67.1,98l10.3,10.5c2.8,2.8,2.8,7.4-0.1,10.2s-7.4,2.8-10.2,0c-2.8-2.8-2.9-7.4-0.1-10.2L77.4,98
			c2.8-2.8,2.8-7.4-0.1-10.2c-2.8-2.8-7.4-2.8-10.2,0C64.3,90.6,64.3,95.2,67.1,98z"/>
		<path class="st1" d="M33.4,65.5L69.7,79c3,1.1,6.4,0.1,8.3-2.4c1.9-2.6,1.9-6.1,0-8.7c-1.9-2.6-5.3-3.6-8.3-2.4L33.4,79
			c-3,1.1-6.4,0.1-8.3-2.4c-1.9-2.6-1.9-6.1,0-8.7C27,65.4,30.4,64.4,33.4,65.5L33.4,65.5z"/>
		<path class="st1" d="M33.4,127.5l36.3,13.6c3,1.1,6.4,0.1,8.3-2.4c1.9-2.6,1.9-6.1,0-8.7c-1.9-2.6-5.3-3.6-8.3-2.4l-36.3,13.6
			c-3,1.1-6.4,0.1-8.3-2.4c-1.9-2.6-1.9-6.1,0-8.7C27,127.4,30.4,126.4,33.4,127.5z"/>
		<path class="st1" d="M11.5,44.5l80.2,14.2c2.8,0.5,5.7-0.7,7.3-3.1c1.6-2.4,1.6-5.5,0-8c-1.6-2.4-4.5-3.7-7.3-3.1L11.5,58.7
			c-2.8,0.5-5.7-0.7-7.3-3.1c-1.6-2.4-1.6-5.5,0-8C5.8,45.2,8.7,44,11.5,44.5z"/>
		<path class="st1" d="M11.5,147.8l80.2,14.2c2.8,0.5,5.7-0.7,7.3-3.1c1.6-2.4,1.6-5.5,0-8c-1.6-2.4-4.5-3.6-7.3-3.1l-80.2,14.2
			c-2.8,0.5-5.7-0.7-7.3-3.1s-1.6-5.5,0-8C5.8,148.6,8.7,147.3,11.5,147.8L11.5,147.8z"/>
		<path class="st1" d="M3.2,132.6L17.3,74c0.7-2.9-0.5-6-2.9-7.7c-2.5-1.7-5.7-1.7-8.2,0C3.7,68,2.5,71,3.2,74l14.1,58.7
			c0.7,2.9-0.5,6-2.9,7.7c-2.5,1.7-5.7,1.7-8.2,0C3.7,138.6,2.5,135.5,3.2,132.6L3.2,132.6z"/>
		<path class="st1" d="M100,132.6L85.9,74c-0.7-2.9,0.5-6,2.9-7.7c2.5-1.7,5.7-1.7,8.2,0c2.5,1.7,3.6,4.7,2.9,7.7l-14.1,58.7
			c-0.7,2.9,0.5,6,2.9,7.7c2.5,1.7,5.7,1.7,8.2,0C99.5,138.6,100.7,135.5,100,132.6z"/>
		<path class="st1" d="M33.4,24.1l36.3,13.6c3,1.1,6.4,0.1,8.3-2.4c1.9-2.6,1.9-6.1,0-8.7c-1.9-2.6-5.3-3.6-8.3-2.4L33.4,37.7
			c-3,1.1-6.4,0.1-8.3-2.4c-1.9-2.6-1.9-6.1,0-8.7C27,24,30.4,23,33.4,24.1z"/>
		<path class="st1" d="M33.4,168.9l36.3,13.6c3,1.1,6.4,0.1,8.3-2.4c1.9-2.6,1.9-6.1,0-8.7c-1.9-2.6-5.3-3.6-8.3-2.4l-36.3,13.6
			c-3,1.1-6.4,0.1-8.3-2.4s-1.9-6.1,0-8.7S30.4,167.7,33.4,168.9z"/>
		<path class="st1" d="M5.1,15.3l10.3,10.5c2.8,2.8,2.8,7.4-0.1,10.2c-2.8,2.8-7.4,2.8-10.2,0c-2.8-2.8-2.9-7.4-0.1-10.2l10.3-10.5
			c2.8-2.8,2.8-7.4-0.1-10.2C12.5,2.3,8,2.3,5.1,5.1C2.3,7.9,2.3,12.5,5.1,15.3z"/>
		<path class="st1" d="M87.8,15.3l10.3,10.5c2.8,2.8,2.8,7.4-0.1,10.2c-2.8,2.8-7.4,2.8-10.2,0c-2.8-2.8-2.9-7.4-0.1-10.2l10.3-10.5
			c2.8-2.8,2.8-7.4-0.1-10.2c-2.8-2.8-7.4-2.8-10.2,0C85,7.9,85,12.5,87.8,15.3z"/>
		<path class="st1" d="M5.1,180.7l10.3,10.5c2.8,2.8,2.8,7.4-0.1,10.2c-2.8,2.8-7.4,2.8-10.2,0c-2.8-2.8-2.9-7.4-0.1-10.2l10.3-10.5
			c2.8-2.8,2.8-7.4-0.1-10.2c-2.8-2.8-7.4-2.8-10.2,0C2.3,173.3,2.3,177.9,5.1,180.7z"/>
		<path class="st1" d="M87.8,180.7l10.3,10.5c2.8,2.8,2.8,7.4-0.1,10.2c-2.8,2.8-7.4,2.8-10.2,0c-2.8-2.8-2.9-7.4-0.1-10.2
			l10.3-10.5c2.8-2.8,2.8-7.4-0.1-10.2c-2.8-2.8-7.4-2.8-10.2,0S85,177.9,87.8,180.7z"/>
		<path class="st1" d="M30.9,189.1h41.4c4,0,7.2,3.2,7.2,7.2c0,4-3.2,7.2-7.2,7.2H30.9c-4,0-7.2-3.2-7.2-7.2
			C23.7,192.3,26.9,189.1,30.9,189.1z"/>
		<path class="st1" d="M30.9,3h41.4c4,0,7.2,3.2,7.2,7.2c0,4-3.2,7.2-7.2,7.2H30.9c-4,0-7.2-3.2-7.2-7.2C23.7,6.2,26.9,3,30.9,3z"/>
	</g>
	<g>
		<path class="st2" d="M26.4,95.5l9,15.5c1.3,2.2,0.8,4.9-1.2,6.5c-1.9,1.6-4.7,1.6-6.6,0c-1.9-1.6-2.4-4.4-1.2-6.5l9-15.5
			c1.3-2.2,0.8-4.9-1.2-6.5c-1.9-1.6-4.7-1.6-6.6,0C25.7,90.6,25.2,93.4,26.4,95.5z"/>
		<path class="st2" d="M67.8,95.5l9,15.5c1.3,2.2,0.8,4.9-1.2,6.5c-1.9,1.6-4.7,1.6-6.6,0c-1.9-1.6-2.4-4.4-1.2-6.5l9-15.5
			c1.3-2.2,0.8-4.9-1.2-6.5c-1.9-1.6-4.7-1.6-6.6,0C67,90.6,66.5,93.4,67.8,95.5z"/>
		<path class="st2" d="M32.2,67.3l38.8,10c2.1,0.5,4.3-0.3,5.5-2.1c1.2-1.8,1.2-4.1,0-5.9c-1.2-1.8-3.4-2.6-5.5-2.1l-38.8,10
			c-2.1,0.5-4.3-0.3-5.5-2.1c-1.2-1.8-1.2-4.1,0-5.9C27.9,67.5,30.1,66.7,32.2,67.3z"/>
		<path class="st2" d="M32.2,129.3l38.8,10c2.1,0.5,4.3-0.3,5.5-2.1c1.2-1.8,1.2-4.1,0-5.9c-1.2-1.8-3.4-2.6-5.5-2.1l-38.8,10
			c-2.1,0.5-4.3-0.3-5.5-2.1c-1.2-1.8-1.2-4.1,0-5.9C27.9,129.6,30.1,128.7,32.2,129.3L32.2,129.3z"/>
		<path class="st2" d="M10.9,46.5l81.4,10.3c2,0.2,3.9-0.7,5-2.4c1.1-1.7,1.1-3.8,0-5.5c-1.1-1.7-3-2.6-5-2.4L10.9,56.7
			c-2,0.2-3.9-0.7-5-2.4c-1.1-1.7-1.1-3.8,0-5.5S8.9,46.2,10.9,46.5L10.9,46.5z"/>
		<path class="st2" d="M10.9,149.8l81.4,10.3c2,0.2,3.9-0.7,5-2.4c1.1-1.7,1.1-3.8,0-5.5c-1.1-1.7-3-2.6-5-2.4l-81.4,10.3
			c-2,0.2-3.9-0.7-5-2.4s-1.1-3.8,0-5.5S8.9,149.6,10.9,149.8L10.9,149.8z"/>
		<path class="st2" d="M5.1,133.4l10.2-60.3c0.3-2-0.5-4.1-2.3-5.2c-1.7-1.1-3.9-1.1-5.7,0c-1.7,1.1-2.6,3.2-2.3,5.2l10.2,60.3
			c0.3,2-0.5,4.1-2.3,5.2c-1.7,1.1-3.9,1.1-5.7,0C5.7,137.5,4.8,135.5,5.1,133.4z"/>
		<path class="st2" d="M98,133.4L87.8,73.1c-0.3-2,0.5-4.1,2.3-5.2s3.9-1.1,5.7,0c1.7,1.1,2.6,3.2,2.3,5.2l-10.2,60.3
			c-0.3,2,0.5,4.1,2.3,5.2c1.7,1.1,3.9,1.1,5.7,0C97.5,137.5,98.4,135.5,98,133.4L98,133.4z"/>
		<path class="st2" d="M32.2,25.9l38.8,10c2.1,0.5,4.3-0.3,5.5-2.1c1.2-1.8,1.2-4.1,0-5.9c-1.2-1.8-3.4-2.6-5.5-2.1l-38.8,10
			c-2.1,0.5-4.3-0.3-5.5-2.1c-1.2-1.8-1.2-4.1,0-5.9C27.9,26.2,30.1,25.4,32.2,25.9L32.2,25.9z"/>
		<path class="st2" d="M32.2,170.6l38.8,10c2.1,0.5,4.3-0.3,5.5-2.1c1.2-1.8,1.2-4.1,0-5.9c-1.2-1.8-3.4-2.6-5.5-2.1l-38.8,10
			c-2.1,0.5-4.3-0.3-5.5-2.1c-1.2-1.8-1.2-4.1,0-5.9C27.9,170.9,30.1,170.1,32.2,170.6z"/>
		<path class="st2" d="M5.8,12.8l9,15.5c1.3,2.2,0.8,4.9-1.2,6.5c-1.9,1.6-4.7,1.6-6.6,0c-1.9-1.6-2.4-4.4-1.2-6.5l9-15.5
			c1.3-2.2,0.8-4.9-1.2-6.5c-1.9-1.6-4.7-1.6-6.6,0C5,7.9,4.5,10.6,5.8,12.8L5.8,12.8z"/>
		<path class="st2" d="M88.5,12.8l9,15.5c1.3,2.2,0.8,4.9-1.2,6.5c-1.9,1.6-4.7,1.6-6.6,0c-1.9-1.6-2.4-4.4-1.2-6.5l9-15.5
			c1.3-2.2,0.8-4.9-1.2-6.5c-1.9-1.6-4.7-1.6-6.6,0C87.7,7.9,87.2,10.6,88.5,12.8z"/>
		<path class="st2" d="M5.8,178.2l9,15.5c1.3,2.2,0.8,4.9-1.2,6.5c-1.9,1.6-4.7,1.6-6.6,0c-1.9-1.6-2.4-4.4-1.2-6.5l9-15.5
			c1.3-2.2,0.8-4.9-1.2-6.5c-1.9-1.6-4.7-1.6-6.6,0C5,173.3,4.5,176.1,5.8,178.2L5.8,178.2z"/>
		<path class="st2" d="M88.5,178.2l9,15.5c1.3,2.2,0.8,4.9-1.2,6.5c-1.9,1.6-4.7,1.6-6.6,0c-1.9-1.6-2.4-4.4-1.2-6.5l9-15.5
			c1.3-2.2,0.8-4.9-1.2-6.5c-1.9-1.6-4.7-1.6-6.6,0C87.7,173.3,87.2,176.1,88.5,178.2z"/>
		<path class="st2" d="M30.9,191.2h41.4c2.9,0,5.2,2.3,5.2,5.2c0,2.9-2.3,5.2-5.2,5.2H30.9c-2.9,0-5.2-2.3-5.2-5.2
			C25.7,193.5,28.1,191.2,30.9,191.2z"/>
		<path class="st2" d="M30.9,5.1h41.4c2.9,0,5.2,2.3,5.2,5.2s-2.3,5.2-5.2,5.2H30.9c-2.9,0-5.2-2.3-5.2-5.2
			C25.7,7.4,28.1,5.1,30.9,5.1z"/>
	</g>
</g>
</svg>
