<?xml version="1.0" encoding="utf-8"?>
<!-- Generator: Adobe Illustrator 22.0.1, SVG Export Plug-In . SVG Version: 6.00 Build 0)  -->
<svg version="1.1" id="Livello_1" xmlns="http://www.w3.org/2000/svg" xmlns:xlink="http://www.w3.org/1999/xlink" x="0px" y="0px"
	 viewBox="0 0 366.3 366.3" style="enable-background:new 0 0 366.3 366.3;" xml:space="preserve">
<style type="text/css">
	.st0{fill:#0000FF;}
	.st1{fill:none;stroke:#0000FF;stroke-miterlimit:10;}
</style>
<g>
	<path class="st0" d="M256.5,215.1c0-12.5,10.1-22.6,22.6-22.6c12.5,0,22.6,10.1,22.6,22.6s-10.1,22.6-22.6,22.6
		C266.6,237.8,256.5,227.6,256.5,215.1z"/>
	<path class="st1" d="M23.1,173.8h64c9.2,0,17.4-5.5,20.9-14s1.6-18.2-4.9-24.7l-96-96c-7.7-7.7-8.8-19.8-2.7-28.8S22.3-2,32.3,2.4
		L270,107.8c8.6,3.8,18.6,1.9,25.2-4.7l64-64c6.3-6.3,8.3-15.8,5.1-24.2s-11.1-14-20-14.4S326.9,5,322.9,13l-64,128
		c-1.6,3.1-2.4,6.6-2.4,10.1v128c0,10.2,6.9,19.2,16.8,21.9l75.7,20.3c9,2.4,15.7,10.2,16.6,19.5c1,9.3-3.8,18.3-12.2,22.5
		s-18.4,3-25.4-3.3s-9.4-16.1-6.1-24.9l42.3-112c4.2-11-0.8-23.3-11.4-28.4s-23.3-1.2-29.3,8.9l-89,151
		c-4.1,6.9-11.5,11.1-19.5,11.1h-128c-11.3,0-20.8-8.3-22.4-19.4L45.5,211.9c-1.3-9.1-8-16.6-17-18.8c-9-2.2-18.4,1.2-23.8,8.7
		s-5.7,17.5-0.8,25.3S18,239,27.1,237.4l248-44.5"/>
</g>
</svg>
