<?xml version="1.0" encoding="utf-8"?>
<!-- Generator: Adobe Illustrator 22.0.1, SVG Export Plug-In . SVG Version: 6.00 Build 0)  -->
<svg version="1.1" id="Livello_1" xmlns="http://www.w3.org/2000/svg" xmlns:xlink="http://www.w3.org/1999/xlink" x="0px" y="0px"
	 viewBox="0 0 524.7 524.7" style="enable-background:new 0 0 524.7 524.7;" xml:space="preserve">
<style type="text/css">
	.st0{fill:#0000FF;}
</style>
<g>
	<path class="st0" d="M164.8,460.2c0.7-2.1,0.9-4.3,0.6-6.5l-6.2,13.6C161.7,465.7,163.7,463.2,164.8,460.2z"/>
	<path class="st0" d="M220.8,13.6c0-6.3-4.4-11.8-10.6-13.3c-6.2-1.4-12.5,1.5-15.4,7.2l-4.3,8.6l30.2,7.6L220.8,13.6z"/>
	<path class="st0" d="M360,183.9c2.1,6.1,8.1,9.9,14.5,9.1c6.4-0.7,11.4-5.8,12-12.2c0.7-6.4-3.2-12.4-9.3-14.4l-6-2l-5.4,3.3
		C360.3,171.2,357.9,177.9,360,183.9z"/>
	<path class="st0" d="M493.9,225.9c-4.1-4.9-11-6.2-16.7-3.3c-5.7,2.9-8.6,9.3-7,15.5l7,28l17.2-23.1
		C498.2,237.8,498,230.8,493.9,225.9z"/>
	<path class="st0" d="M358.7,16.1c1.2-6.5-2.4-12.9-8.6-15.2c-6.2-2.4-13.1,0-16.6,5.6l-12.8,20.9l24.5-0.1
		C351.9,27.3,357.5,22.6,358.7,16.1z"/>
	<path class="st0" d="M464.5,3.1c-5.6-4.7-13.9-4.1-18.8,1.3s-4.7,13.7,0.4,18.9l11.2,11.2l9.5-12.6C471.1,16,470.1,7.8,464.5,3.1z"
		/>
	<path class="st0" d="M229.1,109l66,30.1l76.2,25.4l59.8-36.6l11.9-35.6c1.9-5.7,7.4-9.5,13.4-9.3c6,0.2,11.2,4.3,12.8,10.2
		s-0.9,12-6.1,15.2l-32,19.6l-15.8,47.3c-1.9,5.7,0.1,11.9,5,15.4s11.4,3.5,16.2-0.1l61-45.5V74.6l-40.1-40.1l-73.4,97.9
		c-4.3,5.7-12.2,7.2-18.3,3.3c-6-3.8-8.1-11.6-4.8-18l51.8-97.7c3.4-6.4,1.2-14.4-5.1-18.2c-6.3-3.7-14.3-1.9-18.4,4.2l-51.2,76.8
		h7.3c6.3,0,11.7,4.3,13.3,10.4s-1.3,12.4-6.8,15.4c-5.5,3-12.4,1.8-16.6-2.9c-4.2-4.6-4.7-11.6-1.3-16.8l4.1-6.1h-51.1L274,103.7
		c-3.4,5.6-10.4,8-16.6,5.6c-6.2-2.4-9.7-8.8-8.5-15.3c1.2-6.5,6.9-11.2,13.4-11.2h24.4l34-55.5l-84.4,0.2L238,28
		c7,1.8,11.4,8.7,10.1,15.8c-1.3,7.1-7.9,12-15.1,11.1c-7.2-0.9-12.4-7.2-12-14.4s6.4-12.8,13.6-12.9l1.7,0l-15.6-3.9l0.2,72.9
		C221.1,102,224.2,106.8,229.1,109z"/>
	<path class="st0" d="M277.1,147.2c-2.5,7,1,14.7,7.8,17.4s14.7-0.6,17.6-7.4c2.9-6.8-0.2-14.7-6.9-17.8l-0.7-0.3l-0.7-0.2
		C287.3,136.5,279.7,140.2,277.1,147.2z"/>
	<path class="st0" d="M518.6,80.3c5.4-3.6,7.5-10.6,5-16.6c-2.5-6-8.9-9.5-15.3-8.2c-6.4,1.3-11,6.9-11,13.4v5.7l4,4
		C506,83.2,513.2,83.9,518.6,80.3z"/>
	<path class="st0" d="M249.8,478c-2.8,6.5-0.1,14.1,6.2,17.5c6.3,3.3,14.1,1.3,17.9-4.8c3.8-6,2.4-13.9-3.3-18.2l-1.8-1.4l-2.1-0.7
		C259.9,468.2,252.6,471.5,249.8,478z"/>
	<path class="st0" d="M232.7,496.9c5.5,0.8,10.9-1.7,13.8-6.5c2.9-4.7,2.6-10.7-0.7-15.2c-3.3-4.5-8.9-6.5-14.3-5.1l-13.2,3.3
		l3.2,13.2C222.8,492.1,227.2,496.1,232.7,496.9z"/>
	<path class="st0" d="M110.5,511.3c0.1,6.4,4.7,11.8,10.9,13.1s12.6-1.9,15.2-7.7l11.8-25.8l-27.5,6.9
		C114.7,499.3,110.4,505,110.5,511.3z"/>
	<path class="st0" d="M347.7,524.5c6.2-1.1,10.8-6.2,11.2-12.5c0.4-6.2-3.4-12-9.3-14l-29.8-9.9l13,28.6
		C335.4,522.4,341.5,525.6,347.7,524.5z"/>
	<path class="st0" d="M359.2,511.1c0,7.5,6.1,13.7,13.6,13.7s13.7-6.1,13.7-13.6l0.1-13.8l-13.8,0
		C365.3,497.4,359.2,503.5,359.2,511.1z"/>
	<path class="st0" d="M55.7,514.4c1.4,5.6,6.2,9.7,11.9,10.3c5.8,0.6,11.2-2.5,13.7-7.8c2.5-5.2,1.4-11.4-2.7-15.5l-7.9-7.9
		l-9.3,6.2C56.5,502.9,54.3,508.8,55.7,514.4z"/>
	<path class="st0" d="M133.5,161.8c4.2-3.9,5.5-10,3.3-15.2c-2.2-5.3-7.4-8.6-13.1-8.4c-5.7,0.2-10.7,3.9-12.5,9.3l-3.8,11.3
		l10.6,5.3C123.2,166.6,129.4,165.7,133.5,161.8z"/>
	<path class="st0" d="M89.7,246.6c5.6,3.2,12.8,2.1,17.1-2.8c4.3-4.9,4.6-12.1,0.7-17.3l-15.7-20.9l-8.3,24.8
		C81.5,236.6,84.1,243.3,89.7,246.6z"/>
	<path class="st0" d="M8.3,111.6c-5.8,2.5-9.2,8.6-8.1,14.8c1,6.2,6.1,10.9,12.4,11.4c6.3,0.5,12.1-3.3,14.1-9.3l2.3-6.8l-4.3-5.7
		C20.8,111,14.1,109.2,8.3,111.6z"/>
	<path class="st0" d="M5.6,444.8c-5.4,4-7.1,11.4-4,17.4c3.2,6,10.2,8.8,16.6,6.5l20.6-7.2l-15.4-15.4
		C18.6,441.3,11,440.8,5.6,444.8z"/>
	<path class="st0" d="M87.5,86.3c-4.2,3.7-5.7,9.6-3.8,14.8c1.9,5.3,6.7,8.9,12.3,9.1c5.6,0.2,10.7-2.9,13-8l5.5-12l-11.8-5.9
		C97.7,81.8,91.7,82.6,87.5,86.3z"/>
	<path class="st0" d="M507.9,165.1c6.2,1.5,12.5-1.5,15.4-7.2c2.8-5.7,1.4-12.5-3.4-16.6s-11.9-4.3-17-0.5l-5.5,4.1v6.9
		C497.4,158.2,501.7,163.7,507.9,165.1z"/>
	<path class="st0" d="M509.3,358.8c5.6,0.7,11-2,13.7-7c2.7-4.9,2.1-11-1.5-15.3c-3.6-4.3-9.5-6-14.8-4.2l-12,4l3.1,12.3
		C499.1,354,503.7,358.1,509.3,358.8z"/>
	<path class="st0" d="M160.2,445c-4.6-3.6-11.1-3.8-15.9-0.5l-8.7,5.8l3.3,9.9c1.9,5.6,7.1,9.3,12.9,9.4c2.7,0,5.2-0.8,7.4-2.1
		l6.2-13.6C164.8,450.3,163.1,447.2,160.2,445z"/>
	<path class="st0" d="M511.1,414.5c-7.5,0-13.7,6.1-13.7,13.6l0,13.7H511c7.5,0,13.7-6.1,13.7-13.7
		C524.7,420.6,518.6,414.5,511.1,414.5z"/>
	<path class="st0" d="M418.5,437.8l-52.6-52.6l-80.2-20.5l-12.4,16.4c-4.1,5.5-11.7,7-17.6,3.6c-6-3.4-8.5-10.7-5.9-17
		s9.4-9.8,16.1-8.1l20,5.1l13.8-18.2l-46.8-46.8c-3.2-3.2-4.6-7.7-3.8-12.1c0.8-4.4,3.7-8.2,7.8-10l52.8-24.1l-4.8-14.4
		c-2.3-7,1.3-14.6,8.2-17.1c6.9-2.6,14.6,0.8,17.4,7.6c2.8,6.8-0.3,14.6-7,17.7l-13.8,6.3l22.8,68.5c1.4,4.1,4.7,7.4,8.8,8.7
		l87,27.8l66.6-22.2L477.1,266l-25.5,34.2l10.2,5.1c5.1,2.6,8.1,8.1,7.5,13.8c-0.7,5.7-4.8,10.4-10.4,11.7s-11.4-1-14.6-5.8
		c-3.2-4.8-3-11.1,0.5-15.7l6.8-9.2l-75.8-37.9l-24.5,12.2c-5.8,2.9-12.7,1.4-16.8-3.7c-4-5-4-12.2,0-17.2c4-5,11-6.5,16.8-3.7
		l24.5,12.2l86.1-43c5.7-2.8,8.7-9.2,7.2-15.4c-1.5-6.2-7-10.5-13.3-10.5H268.6l4.1,4.8c4.2,4.9,4.4,12,0.6,17.1
		c-3.9,5.1-10.8,6.9-16.6,4.2c-5.8-2.7-9-9.1-7.7-15.4c1.4-6.3,6.9-10.8,13.4-10.8h6.3L169.1,77.9c-3.6-4.2-4.3-10.1-1.9-15
		l23.3-46.7l-63-15.8c-1.1-0.3-2.2-0.4-3.3-0.4H13.7C6.2,0,0,6.1,0,13.6c0,7.5,6,13.7,13.5,13.7l0,0l27.9,0.3c4.4,0,8.5,2.2,11,5.7
		c2.5,3.6,3.2,8.1,1.8,12.3l-25.4,76.1l62.9,83.9l15.6-46.9l-44.7-22.3c-4.6-2.3-7.6-7.1-7.6-12.2V68.9c0-7.5,6.1-13.7,13.6-13.7
		l61.6-0.2l8.9-19.4c2.8-6.2,9.8-9.4,16.3-7.5c6.5,1.9,10.7,8.3,9.7,15c-1,6.7-6.7,11.7-13.5,11.8l-21.3,0.1l-16,35.2L158,112
		c1.3,0.7,2.5,1.5,3.6,2.6l27.6,27.6c0.8,0.8,1.4,1.6,2,2.5l55.2,90l4.4-7.1c3.2-5.2,9.5-7.7,15.4-6c5.9,1.7,10,7,10,13.2
		s-4.1,11.5-10,13.2c-5.9,1.7-12.2-0.8-15.4-6l-4.4-7.1l-55.2,90c-3.5,5.7-10.5,8-16.7,5.6s-9.7-8.9-8.4-15.4l26.8-132.7
		c0.8-4-0.2-8.2-2.8-11.4s-6.5-5-10.6-5h-55.3c-4.4,0-8.6,2.1-11.2,5.8s-3.2,8.2-1.8,12.4l25.8,73.9c1.7,4.8,0.6,10-2.8,13.8
		c-3.4,3.7-8.6,5.3-13.5,4L17.1,249.1c-6.3-1.6-12.9,1.4-15.7,7.3c-2.8,5.9-1.1,12.9,4.1,16.8l44.2,33.5c5.3,4.1,7,11.4,3.8,17.3
		L1.6,421.7c-3.4,6.4-1.2,14.4,5.1,18.2c6.3,3.7,14.3,1.9,18.4-4.2l55.3-82.9c1.5-2.2,2.3-4.9,2.3-7.6v-27.7l-21.9-16.6
		c-5.1-3.9-6.8-10.8-4.2-16.6c2.7-5.8,9.1-9,15.4-7.6c6.3,1.4,10.7,6.9,10.7,13.4v27.5l22.2,16.8c4.4,3.3,6.4,9,5,14.3l-24.7,96.7
		l6.9-2.4c5.9-2.1,12.5,0.2,15.9,5.4c3.4,5.2,2.9,12.1-1.3,16.8s-11.1,5.8-16.6,2.8s-8.3-9.3-6.7-15.4l1.8-7.1l-46.4,16.2l31.9,31.9
		l64.9-43.2l-24.3-73c-1-2.9-0.9-6,0.1-8.8l19.6-56.1l-15-11.3c-5.6-4.2-7.1-12-3.4-18c3.6-6,11.2-8.3,17.5-5.3
		c6.3,3,9.4,10.3,7.1,16.9l-6.2,17.7l29.2,22.1c3.4,2.6,5.4,6.6,5.4,10.9v55.2l0.3,52.4l1.2-2.7c2.9-6.4,10.1-9.5,16.7-7.3
		s10.5,9,9.1,15.9c-1.5,6.8-7.8,11.5-14.8,10.7c-6.9-0.7-12.2-6.6-12.3-13.5l0-3l-0.4,0.9c0.3,2.1,0.1,4.3-0.6,6.5
		c-1,3-3,5.5-5.6,7.1l-10.8,23.6l69.8-17.4l-24.5-100.1l-1.2,3.7c-2.1,6.5-8.6,10.5-15.4,9.3c-6.7-1.2-11.6-7.1-11.3-13.9
		c0.2-6.8,5.5-12.4,12.3-13.1c6.8-0.7,13.1,3.7,14.7,10.3l0.9,3.8l28-87.6c1.5-4.7,5.4-8.2,10.2-9.2s9.8,0.7,13.1,4.4
		c3.2,3.7,4.3,8.9,2.6,13.5l-25.8,73.9c-1.3,3.7-0.9,7.9,1,11.3c2,3.4,5.3,5.9,9.2,6.6l143.5,28.4c4.8,1,8.7,4.4,10.3,9
		c1.6,4.6,0.5,9.8-2.7,13.4c-3.2,3.7-8.2,5.3-13,4.4l-132.7-26.8c-6.3-1.3-12.6,2-15.2,7.8c-2.6,5.8-0.9,12.7,4.2,16.5l42.4,32.1
		l51,17l-8.5-18.7H290c-6.8,0-12.6-5-13.5-11.7s3.2-13.2,9.7-15.1s13.5,1.3,16.3,7.5l8.8,19.4h75.5l0.1-13.7
		c0-7.5,6.2-13.6,13.7-13.6c7.5,0,13.6,6.2,13.6,13.7c0,7.5-6.1,13.7-13.7,13.7h-13.7l-0.1,27.9l63.5-0.2l-4-4
		c-4.6-4.6-5.3-11.8-1.7-17.3c3.6-5.4,10.6-7.5,16.6-5.1s9.5,8.9,8.2,15.3c-1.3,6.4-6.9,11-13.4,11l-5.7,0l23.6,23.6
		c3.9,3.9,9.8,5.1,14.9,3c5.1-2.1,8.4-7.1,8.5-12.6l0.2-69.3h-69.2C424.5,441.8,421,440.4,418.5,437.8z"/>
	<path class="st0" d="M151.8,386.8c-7.5,0-13.6,6.2-13.6,13.7c0,7.5,6.1,13.7,13.7,13.6c7.5,0,13.7-6.1,13.7-13.7v0l0,0
		C165.5,392.9,159.3,386.8,151.8,386.8z"/>
	<path class="st0" d="M385.6,378c2.6-6.4,0-13.6-5.9-17c-6-3.4-13.5-1.9-17.6,3.6s-3.6,13.1,1.2,18l2.7,2.7l3.6,0.9
		C376.1,387.8,383,384.4,385.6,378z"/>
	<path class="st0" d="M414.7,375.1c1.1,6.6,6.9,11.5,13.6,11.4c6.7,0,12.4-5,13.4-11.6c1-6.6-2.9-13-9.3-15.1l-4.3-1.4l-4.2,1.4
		C417.4,362,413.6,368.5,414.7,375.1z"/>
	<path class="st0" d="M323.3,357.7c5.2-2.4,8.4-7.7,8-13.4s-4.3-10.5-9.7-12.2c-5.5-1.6-11.4,0.3-14.8,4.8l-7.2,9.5l8.4,8.4
		C312,359,318.1,360.1,323.3,357.7z"/>
</g>
</svg>
